Georama-ExtraBoldItalic.ufo
<glyph name="exclam" format="2">
  <advance width="259.892"/>
  <unicode hex="0021"/>
  <outline>
    <contour>
      <point x="48.096000000000004" y="259.7" type="line"/>
      <point x="203.008" y="259.7" type="line"/>
      <point x="295.552" y="740.0" type="line"/>
      <point x="113.98" y="740.0" type="line"/>
    </contour>
    <contour>
      <point x="-0.6280000000000001" y="63.147999999999996" type="curve" smooth="yes"/>
      <point x="-0.7680000000000007" y="15.36"/>
      <point x="24.480000000000004" y="-8.6"/>
      <point x="84.788" y="-8.6" type="curve" smooth="yes"/>
      <point x="165.744" y="-8.6"/>
      <point x="202.436" y="52.94399999999999"/>
      <point x="202.85599999999997" y="124.44799999999998" type="curve" smooth="yes"/>
      <point x="202.996" y="172.32"/>
      <point x="177.57999999999998" y="196.196"/>
      <point x="117.70000000000002" y="196.196" type="curve" smooth="yes"/>
      <point x="36.224000000000004" y="196.196"/>
      <point x="-0.2079999999999984" y="133.964"/>
    </contour>
  </outline>
</glyph>
<glyph name="numbersign" format="2">
  <advance width="656.824"/>
  <unicode hex="0023"/>
  <outline>
    <contour>
      <point x="112.31199999999998" y="411.912" type="line"/>
      <point x="170.568" y="411.912" type="line"/>
      <point x="132.528" y="284.26399999999995" type="line"/>
      <point x="74.304" y="284.26399999999995" type="line"/>
      <point x="51.66799999999999" y="144.028" type="line"/>
      <point x="95.25200000000001" y="144.028" type="line"/>
      <point x="55.788000000000004" y="0.0" type="line"/>
      <point x="213.644" y="0.0" type="line"/>
      <point x="252.968" y="144.028" type="line"/>
      <point x="314.172" y="144.028" type="line"/>
      <point x="274.848" y="0.0" type="line"/>
      <point x="432.10400000000004" y="0.0" type="line"/>
      <point x="471.42800000000005" y="144.028" type="line"/>
      <point x="546.048" y="144.028" type="line"/>
      <point x="568.256" y="284.26399999999995" type="line"/>
      <point x="509.448" y="284.26399999999995" type="line"/>
      <point x="546.7440000000001" y="411.912" type="line"/>
      <point x="606.264" y="411.912" type="line"/>
      <point x="629.3879999999999" y="552.492" type="line"/>
      <point x="584.0759999999999" y="552.492" type="line"/>
      <point x="624.7080000000001" y="700.0" type="line"/>
      <point x="466.93600000000004" y="700.0" type="line"/>
      <point x="426.30400000000003" y="552.492" type="line"/>
      <point x="365.1" y="552.492" type="line"/>
      <point x="405.732" y="700.0" type="line"/>
      <point x="248.476" y="700.0" type="line"/>
      <point x="207.844" y="552.492" type="line"/>
      <point x="135.092" y="552.492" type="line"/>
    </contour>
    <contour>
      <point x="327.824" y="411.912" type="line"/>
      <point x="389.028" y="411.912" type="line"/>
      <point x="351.504" y="284.26399999999995" type="line"/>
      <point x="290.3" y="284.26399999999995" type="line"/>
    </contour>
  </outline>
</glyph>
<glyph name="dollar" format="2">
  <advance width="656.824"/>
  <unicode hex="0024"/>
  <outline>
    <contour>
      <point x="623.352" y="672.7119999999999" type="line"/>
      <point x="587.0799999999999" y="685.8639999999999"/>
      <point x="535.1919999999999" y="701.376"/>
      <point x="470.24" y="706.8720000000001" type="curve"/>
      <point x="485.64" y="803.968" type="line"/>
      <point x="344.52000000000004" y="803.968" type="line"/>
      <point x="327.54400000000004" y="700.112" type="line"/>
      <point x="197.46400000000003" y="679.3439999999999"/>
      <point x="99.248" y="607.0639999999999"/>
      <point x="99.248" y="479.18399999999997" type="curve" smooth="yes"/>
      <point x="99.248" y="267.472"/>
      <point x="395.56000000000006" y="277.2080000000001"/>
      <point x="395.56000000000006" y="200.87199999999996" type="curve" smooth="yes"/>
      <point x="395.56000000000006" y="162.25600000000003"/>
      <point x="357.74399999999997" y="143.728"/>
      <point x="297.744" y="143.728" type="curve" smooth="yes"/>
      <point x="222.57600000000002" y="143.728"/>
      <point x="142.256" y="161.312"/>
      <point x="75.496" y="187.64000000000001" type="curve"/>
      <point x="19.664" y="37.12" type="line"/>
      <point x="71.776" y="15.343999999999998"/>
      <point x="141.552" y="-1.6880000000000002"/>
      <point x="212.744" y="-6.5600000000000005" type="curve"/>
      <point x="197.744" y="-105.0" type="line"/>
      <point x="338.52000000000004" y="-105.0" type="line"/>
      <point x="353.52000000000004" y="-3.208" type="line"/>
      <point x="484.76000000000005" y="19.967999999999996"/>
      <point x="587.8720000000001" y="91.112"/>
      <point x="587.8720000000001" y="221.272" type="curve" smooth="yes"/>
      <point x="587.8720000000001" y="430.75199999999995"/>
      <point x="294.63199999999995" y="415.144"/>
      <point x="294.63199999999995" y="494.712" type="curve" smooth="yes"/>
      <point x="294.63199999999995" y="531.7679999999999"/>
      <point x="333.70399999999995" y="550.2159999999999"/>
      <point x="389.15999999999997" y="550.2159999999999" type="curve" smooth="yes"/>
      <point x="446.87999999999994" y="550.2159999999999"/>
      <point x="509.31200000000007" y="542.752"/>
      <point x="568.024" y="519.888" type="curve"/>
    </contour>
  </outline>
</glyph>
<glyph name="ampersand" format="2">
  <advance width="724.8000000000001"/>
  <unicode hex="0026"/>
  <outline>
    <contour>
      <point x="303.02799999999996" y="-10.0" type="curve" smooth="yes"/>
      <point x="509.21600000000007" y="-10.0"/>
      <point x="637.8119999999999" y="128.16000000000003"/>
      <point x="634.14" y="304.052" type="curve"/>
      <point x="494.22" y="296.352" type="line"/>
      <point x="519.0680000000001" y="205.52800000000002"/>
      <point x="429.75600000000003" y="135.04399999999998"/>
      <point x="328.2" y="135.04399999999998" type="curve" smooth="yes"/>
      <point x="243.14000000000001" y="135.04399999999998"/>
      <point x="197.48799999999997" y="171.39199999999997"/>
      <point x="197.48799999999997" y="225.84799999999998" type="curve" smooth="yes"/>
      <point x="197.48799999999997" y="290.86799999999994"/>
      <point x="245.044" y="340.624"/>
      <point x="315.088" y="340.624" type="curve" smooth="yes"/>
      <point x="356.51200000000006" y="340.624" type="line"/>
      <point x="382.736" y="445.412" type="line"/>
      <point x="363.044" y="448.56399999999996" type="line" smooth="yes"/>
      <point x="311.22" y="455.308"/>
      <point x="286.776" y="476.748"/>
      <point x="286.776" y="510.18399999999997" type="curve" smooth="yes"/>
      <point x="286.776" y="545.58"/>
      <point x="319.068" y="570.392"/>
      <point x="361.88" y="570.392" type="curve" smooth="yes"/>
      <point x="394.26800000000003" y="570.392"/>
      <point x="423.796" y="561.8919999999999"/>
      <point x="456.35999999999996" y="539.932" type="curve"/>
      <point x="545.788" y="653.276" type="line"/>
      <point x="486.072" y="691.148"/>
      <point x="423.06" y="710.0"/>
      <point x="342.24" y="710.0" type="curve" smooth="yes"/>
      <point x="197.76400000000004" y="710.0"/>
      <point x="106.38400000000001" y="630.3159999999999"/>
      <point x="106.38400000000001" y="536.9040000000001" type="curve" smooth="yes"/>
      <point x="106.38400000000001" y="483.07599999999996"/>
      <point x="139.148" y="440.136"/>
      <point x="197.25200000000007" y="412.088" type="curve"/>
      <point x="89.012" y="391.1600000000001"/>
      <point x="12.968" y="319.86799999999994"/>
      <point x="12.968" y="200.308" type="curve" smooth="yes"/>
      <point x="12.968" y="76.224"/>
      <point x="109.316" y="-10.0"/>
    </contour>
    <contour>
      <point x="437.92800000000005" y="216.83200000000005" type="line"/>
      <point x="442.98800000000006" y="250.27599999999998"/>
      <point x="459.38" y="269.344"/>
      <point x="487.54" y="269.344" type="curve" smooth="yes"/>
      <point x="533.444" y="269.344"/>
      <point x="582.848" y="261.152"/>
      <point x="620.332" y="261.152" type="curve" smooth="yes"/>
      <point x="699.068" y="261.152"/>
      <point x="751.3119999999999" y="338.164"/>
      <point x="740.2" y="429.41599999999994" type="curve"/>
      <point x="632.6999999999999" y="430.172" type="line"/>
      <point x="630.792" y="379.232"/>
      <point x="607.3119999999999" y="367.96399999999994"/>
      <point x="560.912" y="367.96399999999994" type="curve" smooth="yes"/>
      <point x="529.0400000000001" y="367.96399999999994"/>
      <point x="501.11199999999997" y="377.40399999999994"/>
      <point x="468.624" y="377.40399999999994" type="curve" smooth="yes"/>
      <point x="381.17600000000004" y="377.40399999999994"/>
      <point x="340.09200000000004" y="314.044"/>
      <point x="334.696" y="240.428" type="curve"/>
    </contour>
  </outline>
</glyph>
<glyph name="quotesingle" format="2">
  <advance width="215.71200000000002"/>
  <unicode hex="0027"/>
  <outline>
    <contour>
      <point x="56.728" y="427.0" type="line"/>
      <point x="203.71599999999998" y="427.0" type="line"/>
      <point x="255.876" y="700.0" type="line"/>
      <point x="93.836" y="700.0" type="line"/>
    </contour>
  </outline>
</glyph>
<glyph name="parenleft" format="2">
  <advance width="334.692"/>
  <unicode hex="0028"/>
  <outline>
    <contour>
      <point x="33.792" y="81.92000000000002" type="curve" smooth="yes"/>
      <point x="33.792" y="-81.424"/>
      <point x="91.332" y="-200.024"/>
      <point x="232.75599999999997" y="-220.0" type="curve"/>
      <point x="256.892" y="-81.08" type="line"/>
      <point x="202.884" y="-57.895999999999994"/>
      <point x="178.612" y="-8.072"/>
      <point x="178.612" y="80.668" type="curve" smooth="yes"/>
      <point x="178.612" y="224.156"/>
      <point x="239.70000000000002" y="588.0239999999999"/>
      <point x="366.056" y="607.992" type="curve"/>
      <point x="387.47999999999996" y="749.9159999999999" type="line"/>
      <point x="131.156" y="740.7760000000001"/>
      <point x="33.792" y="340.37600000000003"/>
    </contour>
  </outline>
</glyph>
<glyph name="parenright" format="2">
  <advance width="334.692"/>
  <unicode hex="0029"/>
  <outline>
    <contour>
      <point x="297.64000000000004" y="447.96799999999996" type="curve" smooth="yes"/>
      <point x="297.64000000000004" y="613.3679999999999"/>
      <point x="240.072" y="730.024"/>
      <point x="98.592" y="750.0" type="curve"/>
      <point x="74.624" y="608.9960000000001" type="line"/>
      <point x="129.36" y="585.196"/>
      <point x="152.81999999999996" y="535.568"/>
      <point x="152.81999999999996" y="448.592" type="curve" smooth="yes"/>
      <point x="152.81999999999996" y="305.49600000000004"/>
      <point x="92.04" y="-57.827999999999996"/>
      <point x="-34.82" y="-78.04800000000002" type="curve"/>
      <point x="-56.16" y="-220.0" type="line"/>
      <point x="197.924" y="-207.99599999999998"/>
      <point x="297.64000000000004" y="190.376"/>
    </contour>
  </outline>
</glyph>
<glyph name="asterisk" format="2">
  <advance width="374.22400000000005"/>
  <unicode hex="002A"/>
  <outline>
    <contour>
      <point x="133.496" y="368.62000000000006" type="line"/>
      <point x="214.14800000000002" y="450.804" type="line"/>
      <point x="267.528" y="368.704" type="line"/>
      <point x="339.34799999999996" y="416.43199999999996" type="line"/>
      <point x="304.688" y="513.2760000000001" type="line"/>
      <point x="403.29200000000003" y="559.776" type="line"/>
      <point x="391.952" y="638.844" type="line"/>
      <point x="291.36" y="617.044" type="line"/>
      <point x="298.82000000000005" y="726.676" type="line"/>
      <point x="219.068" y="726.676" type="line"/>
      <point x="190.62400000000002" y="617.1279999999999" type="line"/>
      <point x="98.184" y="638.928" type="line"/>
      <point x="61.228" y="559.944" type="line"/>
      <point x="142.516" y="513.4440000000001" type="line"/>
      <point x="77.724" y="416.544" type="line"/>
    </contour>
  </outline>
</glyph>
<glyph name="plus" format="2">
  <advance width="512.172"/>
  <unicode hex="002B"/>
  <outline>
    <contour>
      <point x="153.65200000000002" y="124.11599999999999" type="line"/>
      <point x="310.024" y="124.11599999999999" type="line"/>
      <point x="328.69199999999995" y="242.93600000000004" type="line"/>
      <point x="457.348" y="242.93600000000004" type="line"/>
      <point x="482.364" y="398.62" type="line"/>
      <point x="353.70799999999997" y="398.62" type="line"/>
      <point x="372.776" y="517.1800000000001" type="line"/>
      <point x="217.092" y="517.1800000000001" type="line"/>
      <point x="197.336" y="398.62" type="line"/>
      <point x="69.628" y="398.62" type="line"/>
      <point x="44.612" y="242.93600000000004" type="line"/>
      <point x="173.008" y="242.93600000000004" type="line"/>
    </contour>
  </outline>
</glyph>
<glyph name="comma" format="2">
  <advance width="245.264"/>
  <unicode hex="002C"/>
  <outline>
    <contour>
      <point x="12.136000000000001" y="99.88399999999999" type="line"/>
      <point x="11.583999999999998" y="71.6"/>
      <point x="8.256" y="45.412"/>
      <point x="5.332000000000001" y="28.424" type="curve" smooth="yes"/>
      <point x="-4.127999999999999" y="-32.192"/>
      <point x="-36.964" y="-109.164"/>
      <point x="-77.656" y="-159.684" type="curve"/>
      <point x="55.28" y="-188.384" type="line"/>
      <point x="126.92000000000002" y="-114.052"/>
      <point x="179.76000000000002" y="-27.084000000000003"/>
      <point x="179.76000000000002" y="68.284" type="curve" smooth="yes"/>
      <point x="179.76000000000002" y="80.13600000000001"/>
      <point x="178.732" y="91.332"/>
      <point x="177.252" y="101.83600000000001" type="curve"/>
    </contour>
  </outline>
</glyph>
<glyph name="hyphen" format="2">
  <advance width="351.776"/>
  <unicode hex="002D"/>
  <outline>
    <contour>
      <point x="33.04" y="229.892" type="line"/>
      <point x="303.364" y="229.892" type="line"/>
      <point x="330.52799999999996" y="393.888" type="line"/>
      <point x="60.204" y="393.888" type="line"/>
    </contour>
  </outline>
</glyph>
<glyph name="period" format="2">
  <advance width="249.736"/>
  <unicode hex="002E"/>
  <outline>
    <contour>
      <point x="-5.404000000000002" y="64.696" type="curve" smooth="yes"/>
      <point x="-5.544000000000002" y="16.392"/>
      <point x="19.188000000000002" y="-7.052"/>
      <point x="80.012" y="-7.052" type="curve" smooth="yes"/>
      <point x="160.96800000000002" y="-7.052"/>
      <point x="197.144" y="54.49199999999999"/>
      <point x="197.564" y="127.02799999999999" type="curve" smooth="yes"/>
      <point x="197.70399999999998" y="174.384"/>
      <point x="172.804" y="197.744"/>
      <point x="112.92399999999999" y="197.744" type="curve" smooth="yes"/>
      <point x="30.932000000000002" y="197.744"/>
      <point x="-4.984" y="135.512"/>
    </contour>
  </outline>
</glyph>
<glyph name="slash" format="2">
  <advance width="438.96"/>
  <unicode hex="002F"/>
  <outline>
    <contour>
      <point x="-77.236" y="-210.0" type="line"/>
      <point x="71.364" y="-210.0" type="line"/>
      <point x="513.196" y="740.0" type="line"/>
      <point x="363.22" y="740.0" type="line"/>
    </contour>
  </outline>
</glyph>
<glyph name="zero" format="2">
  <advance width="657.16"/>
  <unicode hex="0030"/>
  <outline>
    <contour>
      <point x="308.23999999999995" y="-10.56" type="curve" smooth="yes"/>
      <point x="527.8800000000001" y="-10.56"/>
      <point x="638.04" y="206.96000000000004"/>
      <point x="638.04" y="440.7999999999999" type="curve" smooth="yes"/>
      <point x="638.04" y="619.3199999999999"/>
      <point x="559.08" y="710.28"/>
      <point x="372.19999999999993" y="710.28" type="curve" smooth="yes"/>
      <point x="150.04000000000002" y="710.28"/>
      <point x="42.12" y="491.35999999999996"/>
      <point x="42.12" y="259.19999999999993" type="curve" smooth="yes"/>
      <point x="42.12" y="80.96000000000002"/>
      <point x="121.36" y="-10.56"/>
    </contour>
    <contour>
      <point x="309.04" y="144.88" type="curve" smooth="yes"/>
      <point x="258.52" y="144.88"/>
      <point x="234.11999999999998" y="173.27999999999997"/>
      <point x="234.12" y="240.32000000000002" type="curve" smooth="yes"/>
      <point x="234.11999999999998" y="347.76000000000005"/>
      <point x="276.32" y="555.1199999999999"/>
      <point x="371.4" y="555.1199999999999" type="curve" smooth="yes"/>
      <point x="421.92" y="555.1199999999999"/>
      <point x="446.0399999999999" y="526.5599999999998"/>
      <point x="446.0400000000001" y="459.52" type="curve" smooth="yes"/>
      <point x="446.0400000000001" y="352.64"/>
      <point x="403.56000000000006" y="144.88"/>
    </contour>
  </outline>
</glyph>
<glyph name="one" format="2">
  <advance width="656.824"/>
  <unicode hex="0031"/>
  <outline>
    <contour>
      <point x="74.808" y="0.0" type="line"/>
      <point x="539.7760000000001" y="0.0" type="line"/>
      <point x="564.9639999999999" y="154.10399999999998" type="line"/>
      <point x="432.712" y="154.10399999999998" type="line"/>
      <point x="521.044" y="700.56" type="line"/>
      <point x="429.032" y="700.56" type="line"/>
      <point x="143.904" y="598.1680000000001" type="line"/>
      <point x="158.728" y="430.692" type="line"/>
      <point x="298.24" y="483.456" type="line"/>
      <point x="245.72400000000002" y="154.10399999999998" type="line"/>
      <point x="99.48" y="154.10399999999998" type="line"/>
    </contour>
  </outline>
</glyph>
<glyph name="two" format="2">
  <advance width="657.16"/>
  <unicode hex="0032"/>
  <outline>
    <contour>
      <point x="50.88" y="121.19999999999999" type="curve"/>
      <point x="32.68" y="0.0" type="line"/>
      <point x="541.96" y="0.0" type="line"/>
      <point x="567.32" y="149.28" type="line"/>
      <point x="327.68" y="149.28" type="line"/>
      <point x="456.59999999999997" y="260.92"/>
      <point x="580.24" y="373.6"/>
      <point x="580.24" y="531.1600000000001" type="curve" smooth="yes"/>
      <point x="580.24" y="646.1199999999999"/>
      <point x="491.7199999999999" y="710.0"/>
      <point x="375.2" y="710.0" type="curve" smooth="yes"/>
      <point x="286.68" y="710.0"/>
      <point x="188.00000000000003" y="681.3999999999999"/>
      <point x="119.08000000000003" y="639.9600000000002" type="curve"/>
      <point x="150.23999999999995" y="476.8" type="line"/>
      <point x="203.96" y="502.48"/>
      <point x="256.8" y="521.4799999999999"/>
      <point x="304.36" y="521.4799999999999" type="curve" smooth="yes"/>
      <point x="353.55999999999995" y="521.4799999999999"/>
      <point x="376.72" y="495.28"/>
      <point x="376.72" y="461.5600000000001" type="curve" smooth="yes"/>
      <point x="376.71999999999997" y="355.96"/>
      <point x="211.84000000000003" y="208.27999999999997"/>
    </contour>
  </outline>
</glyph>
<glyph name="three" format="2">
  <advance width="657.16"/>
  <unicode hex="0033"/>
  <outline>
    <contour>
      <point x="14.16" y="41.959999999999994" type="line"/>
      <point x="79.64000000000001" y="6.84"/>
      <point x="157.79999999999998" y="-10.0"/>
      <point x="252.68" y="-10.0" type="curve" smooth="yes"/>
      <point x="395.64" y="-10.0"/>
      <point x="579.1999999999999" y="53.2"/>
      <point x="579.1999999999999" y="229.32" type="curve" smooth="yes"/>
      <point x="579.1999999999999" y="311.28"/>
      <point x="540.8" y="352.12"/>
      <point x="485.28" y="372.71999999999997" type="curve"/>
      <point x="560.16" y="406.92"/>
      <point x="613.0000000000001" y="464.48"/>
      <point x="613.0000000000001" y="552.72" type="curve" smooth="yes"/>
      <point x="613.0000000000001" y="652.88"/>
      <point x="535.6800000000001" y="710.0"/>
      <point x="372.24000000000007" y="710.0" type="curve" smooth="yes"/>
      <point x="274.03999999999996" y="710.0"/>
      <point x="178.8" y="691.52"/>
      <point x="122.52" y="658.84" type="curve"/>
      <point x="141.04" y="525.4800000000001" type="line"/>
      <point x="191.64000000000001" y="542.56"/>
      <point x="250.52000000000004" y="552.68"/>
      <point x="309.52000000000004" y="552.68" type="curve" smooth="yes"/>
      <point x="378.28000000000003" y="552.68"/>
      <point x="422.12" y="532.8000000000001"/>
      <point x="422.12" y="491.08" type="curve" smooth="yes"/>
      <point x="422.12" y="448.12000000000006"/>
      <point x="391.84000000000003" y="420.28"/>
      <point x="303.47999999999996" y="420.28" type="curve" smooth="yes"/>
      <point x="201.32" y="420.28" type="line"/>
      <point x="179.12" y="286.76000000000005" type="line"/>
      <point x="303.64" y="286.76000000000005" type="line" smooth="yes"/>
      <point x="371.64" y="286.76000000000005"/>
      <point x="396.24" y="263.84000000000003"/>
      <point x="396.24" y="226.32" type="curve" smooth="yes"/>
      <point x="396.24" y="170.12"/>
      <point x="348.40000000000003" y="144.00000000000003"/>
      <point x="260.84" y="144.00000000000003" type="curve" smooth="yes"/>
      <point x="193.76" y="144.00000000000003"/>
      <point x="128.32" y="155.39999999999998"/>
      <point x="82.48" y="176.2" type="curve"/>
    </contour>
  </outline>
</glyph>
<glyph name="four" format="2">
  <advance width="657.16"/>
  <unicode hex="0034"/>
  <outline>
    <contour>
      <point x="4.640000000000001" y="99.68" type="line"/>
      <point x="310.52" y="99.68" type="line"/>
      <point x="295.0" y="-0.2799999999999999" type="line"/>
      <point x="487.0" y="-0.2799999999999999" type="line"/>
      <point x="502.52" y="99.68" type="line"/>
      <point x="590.6399999999999" y="99.68" type="line"/>
      <point x="612.56" y="240.35999999999999" type="line"/>
      <point x="525.44" y="240.35999999999999" type="line"/>
      <point x="600.44" y="699.72" type="line"/>
      <point x="438.52000000000004" y="700.56" type="line"/>
      <point x="24.28" y="226.04" type="line"/>
    </contour>
    <contour>
      <point x="176.27999999999997" y="240.35999999999999" type="line"/>
      <point x="376.8" y="468.92" type="line"/>
      <point x="337.6" y="240.35999999999999" type="line"/>
    </contour>
  </outline>
</glyph>
<glyph name="five" format="2">
  <advance width="657.16"/>
  <unicode hex="0035"/>
  <outline>
    <contour>
      <point x="22.119999999999997" y="37.35999999999999" type="line"/>
      <point x="86.03999999999999" y="3.6800000000000006"/>
      <point x="159.52" y="-10.0"/>
      <point x="253.68" y="-10.0" type="curve" smooth="yes"/>
      <point x="488.36" y="-10.0"/>
      <point x="583.6" y="116.68"/>
      <point x="583.6" y="265.79999999999995" type="curve" smooth="yes"/>
      <point x="583.6" y="380.44"/>
      <point x="519.4" y="429.67999999999995"/>
      <point x="385.75999999999993" y="431.12" type="curve" smooth="yes"/>
      <point x="293.08" y="431.84" type="line"/>
      <point x="314.32" y="541.12" type="line"/>
      <point x="595.24" y="541.12" type="line"/>
      <point x="620.5999999999999" y="700.0" type="line"/>
      <point x="214.64000000000001" y="700.0" type="line"/>
      <point x="105.12" y="298.71999999999997" type="line"/>
      <point x="111.4" y="288.44" type="line"/>
      <point x="298.6" y="288.44" type="line" smooth="yes"/>
      <point x="373.40000000000003" y="288.44"/>
      <point x="393.87999999999994" y="268.8"/>
      <point x="393.87999999999994" y="232.84" type="curve" smooth="yes"/>
      <point x="393.87999999999994" y="190.88"/>
      <point x="362.71999999999997" y="145.16"/>
      <point x="257.68" y="145.16" type="curve" smooth="yes"/>
      <point x="186.88" y="145.16"/>
      <point x="122.11999999999999" y="166.28000000000003"/>
      <point x="80.12000000000002" y="184.08" type="curve"/>
    </contour>
  </outline>
</glyph>
<glyph name="six" format="2">
  <advance width="657.1600000000001"/>
  <unicode hex="0036"/>
  <note>
14
</note>
  <outline>
    <contour>
      <point x="312.76" y="-10.0" type="curve" smooth="yes"/>
      <point x="491.03999999999996" y="-10.0"/>
      <point x="607.72" y="90.55999999999999"/>
      <point x="607.72" y="268.88" type="curve" smooth="yes"/>
      <point x="607.72" y="386.12000000000006"/>
      <point x="537.36" y="452.52"/>
      <point x="412.08000000000004" y="452.52" type="curve" smooth="yes"/>
      <point x="347.72" y="452.52"/>
      <point x="281.52" y="437.0"/>
      <point x="230.11999999999998" y="391.8" type="curve"/>
      <point x="221.07999999999998" y="272.12" type="line"/>
      <point x="253.00000000000003" y="297.52"/>
      <point x="297.96" y="316.03999999999996"/>
      <point x="342.36" y="316.03999999999996" type="curve" smooth="yes"/>
      <point x="410.03999999999996" y="316.03999999999996"/>
      <point x="433.79999999999995" y="288.71999999999997"/>
      <point x="433.79999999999995" y="243.07999999999998" type="curve" smooth="yes"/>
      <point x="433.79999999999995" y="182.16"/>
      <point x="388.48" y="141.00000000000003"/>
      <point x="329.12" y="141.00000000000003" type="curve" smooth="yes"/>
      <point x="262.64" y="141.00000000000003"/>
      <point x="230.24" y="178.16"/>
      <point x="230.24" y="246.51999999999998" type="curve" smooth="yes"/>
      <point x="230.24" y="340.24"/>
      <point x="250.88" y="424.96000000000004"/>
      <point x="300.79999999999995" y="480.76" type="curve" smooth="yes"/>
      <point x="340.6" y="524.2799999999999"/>
      <point x="395.4" y="552.1199999999999"/>
      <point x="469.36" y="552.1199999999999" type="curve" smooth="yes"/>
      <point x="516.4" y="552.1199999999999"/>
      <point x="554.88" y="542.12"/>
      <point x="592.7199999999999" y="527.0000000000001" type="curve"/>
      <point x="653.6" y="670.5600000000001" type="line"/>
      <point x="617.1999999999999" y="689.4"/>
      <point x="542.1199999999999" y="710.0"/>
      <point x="453.88" y="710.0" type="curve" smooth="yes"/>
      <point x="198.87999999999997" y="710.0"/>
      <point x="50.83999999999999" y="515.8"/>
      <point x="50.83999999999999" y="248.39999999999998" type="curve" smooth="yes"/>
      <point x="50.83999999999999" y="80.91999999999999"/>
      <point x="146.27999999999997" y="-10.0"/>
    </contour>
  </outline>
</glyph>
<glyph name="seven" format="2">
  <advance width="656.824"/>
  <unicode hex="0037"/>
  <note>
9
</note>
  <outline>
    <contour>
      <point x="122.052" y="0.0" type="curve"/>
      <point x="317.74800000000005" y="0.0" type="line"/>
      <point x="340.324" y="118.012"/>
      <point x="383.448" y="205.02"/>
      <point x="490.9240000000001" y="364.444" type="curve" smooth="yes"/>
      <point x="631.556" y="571.66" type="line"/>
      <point x="651.984" y="700.0" type="line"/>
      <point x="137.636" y="700.0" type="line"/>
      <point x="111.64399999999999" y="537.42" type="line"/>
      <point x="414.548" y="537.42" type="line"/>
      <point x="290.23999999999995" y="368.45199999999994" type="line" smooth="yes"/>
      <point x="190.952" y="233.308"/>
      <point x="143.7" y="131.57999999999998"/>
    </contour>
  </outline>
</glyph>
<glyph name="eight" format="2">
  <advance width="701.8000000000001"/>
  <unicode hex="0038"/>
  <outline>
    <contour>
      <point x="331.24" y="-10.0" type="curve" smooth="yes"/>
      <point x="506.64" y="-10.0"/>
      <point x="641.8" y="39.12"/>
      <point x="641.8" y="214.20000000000002" type="curve" smooth="yes"/>
      <point x="641.8" y="468.44"/>
      <point x="256.28000000000003" y="370.28000000000003"/>
      <point x="256.28000000000003" y="522.4" type="curve" smooth="yes"/>
      <point x="256.28000000000003" y="559.52"/>
      <point x="326.0" y="569.92"/>
      <point x="401.08" y="569.92" type="curve" smooth="yes"/>
      <point x="488.68" y="569.92"/>
      <point x="533.52" y="539.4"/>
      <point x="533.52" y="495.6" type="curve" smooth="yes"/>
      <point x="533.52" y="443.72"/>
      <point x="482.44" y="428.76"/>
      <point x="441.2" y="408.44" type="curve"/>
      <point x="514.76" y="348.68" type="line"/>
      <point x="591.72" y="388.24"/>
      <point x="673.3199999999999" y="436.04"/>
      <point x="673.3199999999999" y="534.04" type="curve" smooth="yes"/>
      <point x="673.3199999999999" y="627.36"/>
      <point x="597.32" y="710.0"/>
      <point x="408.8" y="710.0" type="curve" smooth="yes"/>
      <point x="231.56" y="710.0"/>
      <point x="109.88" y="643.84"/>
      <point x="109.88" y="512.72" type="curve" smooth="yes"/>
      <point x="109.88" y="262.32"/>
      <point x="491.56000000000006" y="364.03999999999996"/>
      <point x="491.56000000000006" y="199.64" type="curve" smooth="yes"/>
      <point x="491.56000000000006" y="129.4"/>
      <point x="423.2" y="123.64"/>
      <point x="339.36" y="123.64" type="curve" smooth="yes"/>
      <point x="239.8" y="123.64"/>
      <point x="180.68" y="163.76"/>
      <point x="180.68" y="212.2" type="curve" smooth="yes"/>
      <point x="180.68" y="274.64"/>
      <point x="249.51999999999998" y="294.15999999999997"/>
      <point x="301.44" y="304.48" type="curve"/>
      <point x="224.16000000000003" y="375.28" type="line"/>
      <point x="123.16" y="360.08"/>
      <point x="30.28" y="286.28"/>
      <point x="30.28" y="192.6" type="curve" smooth="yes"/>
      <point x="30.28" y="81.12"/>
      <point x="123.43999999999998" y="-10.0"/>
    </contour>
  </outline>
</glyph>
<glyph name="nine" format="2">
  <advance width="657.1600000000001"/>
  <unicode hex="0039"/>
  <outline>
    <contour>
      <point x="370.84" y="710.0" type="curve" smooth="yes"/>
      <point x="195.44" y="710.0"/>
      <point x="75.88000000000001" y="610.88"/>
      <point x="75.88000000000001" y="441.92" type="curve" smooth="yes"/>
      <point x="75.88000000000001" y="311.71999999999997"/>
      <point x="153.44" y="247.48000000000002"/>
      <point x="278.72" y="247.48000000000002" type="curve" smooth="yes"/>
      <point x="343.08000000000004" y="247.48000000000002"/>
      <point x="402.08" y="263.0"/>
      <point x="453.48" y="308.2" type="curve"/>
      <point x="462.52" y="427.88" type="line"/>
      <point x="430.6" y="402.47999999999996"/>
      <point x="385.64" y="383.96000000000004"/>
      <point x="341.24" y="383.96000000000004" type="curve" smooth="yes"/>
      <point x="273.56" y="383.96000000000004"/>
      <point x="249.8" y="411.28000000000003"/>
      <point x="249.8" y="456.92" type="curve" smooth="yes"/>
      <point x="249.8" y="517.8399999999999"/>
      <point x="295.11999999999995" y="559.0"/>
      <point x="354.48" y="559.0" type="curve" smooth="yes"/>
      <point x="420.96" y="559.0"/>
      <point x="453.35999999999996" y="521.84"/>
      <point x="453.35999999999996" y="453.47999999999996" type="curve" smooth="yes"/>
      <point x="453.35999999999996" y="359.76"/>
      <point x="436.44" y="272.76"/>
      <point x="386.52" y="216.95999999999998" type="curve" smooth="yes"/>
      <point x="347.44" y="172.72000000000003"/>
      <point x="298.4" y="145.60000000000002"/>
      <point x="217.23999999999998" y="145.60000000000002" type="curve" smooth="yes"/>
      <point x="170.20000000000002" y="145.60000000000002"/>
      <point x="128.72" y="157.88"/>
      <point x="90.88" y="173.00000000000003" type="curve"/>
      <point x="29.999999999999996" y="29.44" type="line"/>
      <point x="66.4" y="10.600000000000001"/>
      <point x="141.48" y="-10.0"/>
      <point x="229.72" y="-10.0" type="curve" smooth="yes"/>
      <point x="484.7199999999999" y="-10.0"/>
      <point x="632.76" y="184.2"/>
      <point x="632.76" y="451.59999999999997" type="curve" smooth="yes"/>
      <point x="632.76" y="619.08"/>
      <point x="537.32" y="710.0"/>
    </contour>
  </outline>
</glyph>
<glyph name="less" format="2">
  <advance width="509.732"/>
  <unicode hex="003C"/>
  <outline>
    <contour>
      <point x="438.87600000000003" y="74.292" type="line"/>
      <point x="462.344" y="223.85999999999999" type="line"/>
      <point x="202.36" y="310.844" type="line"/>
      <point x="490.956" y="398.084" type="line"/>
      <point x="514.4240000000001" y="548.048" type="line"/>
      <point x="56.896" y="393.248" type="line"/>
      <point x="31.452000000000005" y="232.904" type="line"/>
    </contour>
  </outline>
</glyph>
<glyph name="equal" format="2">
  <advance width="490.92800000000005"/>
  <unicode hex="003D"/>
  <outline>
    <contour>
      <point x="440.22" y="274.056" type="line"/>
      <point x="51.220000000000006" y="274.056" type="line"/>
      <point x="27.236" y="118.28800000000001" type="line"/>
      <point x="416.236" y="118.28800000000001" type="line"/>
    </contour>
    <contour>
      <point x="474.79999999999995" y="504.68" type="line"/>
      <point x="85.972" y="504.68" type="line"/>
      <point x="61.816" y="348.91200000000003" type="line"/>
      <point x="450.81600000000003" y="348.91200000000003" type="line"/>
    </contour>
  </outline>
</glyph>
<glyph name="greater" format="2">
  <advance width="509.732"/>
  <unicode hex="003E"/>
  <outline>
    <contour>
      <point x="464.40000000000003" y="232.652" type="line"/>
      <point x="489.156" y="387.836" type="line"/>
      <point x="82.852" y="544.44" type="line"/>
      <point x="58.696000000000005" y="398.14" type="line"/>
      <point x="319.624" y="310.92800000000005" type="line"/>
      <point x="30.856" y="224.0" type="line"/>
      <point x="6.960000000000001" y="74.124" type="line"/>
    </contour>
  </outline>
</glyph>
<glyph name="question" format="2">
  <advance width="474.52000000000004"/>
  <unicode hex="003F"/>
  <outline>
    <contour>
      <point x="134.2" y="259.67199999999997" type="line"/>
      <point x="289.488" y="259.67199999999997" type="line"/>
      <point x="300.74399999999997" y="322.58400000000006" type="line"/>
      <point x="417.592" y="367.128"/>
      <point x="504.672" y="448.36800000000005"/>
      <point x="504.672" y="574.792" type="curve" smooth="yes"/>
      <point x="504.672" y="694.5600000000001"/>
      <point x="418.74399999999997" y="750.0"/>
      <point x="304.04" y="750.0" type="curve" smooth="yes"/>
      <point x="224.37599999999998" y="750.0"/>
      <point x="134.60000000000002" y="726.4879999999999"/>
      <point x="74.13600000000001" y="685.0" type="curve"/>
      <point x="103.32000000000001" y="532.1920000000001" type="line"/>
      <point x="153.176" y="559.928"/>
      <point x="197.13600000000002" y="575.592"/>
      <point x="241.888" y="575.592" type="curve" smooth="yes"/>
      <point x="280.664" y="575.592"/>
      <point x="304.20000000000005" y="561.624"/>
      <point x="304.20000000000005" y="529.5840000000001" type="curve" smooth="yes"/>
      <point x="304.20000000000005" y="477.09600000000006"/>
      <point x="262.69599999999997" y="442.75199999999995"/>
      <point x="154.74399999999997" y="410.032" type="curve"/>
    </contour>
    <contour>
      <point x="84.66400000000002" y="62.087999999999994" type="curve" smooth="yes"/>
      <point x="84.72" y="14.703999999999999"/>
      <point x="109.31200000000001" y="-8.6"/>
      <point x="169.048" y="-8.6" type="curve" smooth="yes"/>
      <point x="250.03199999999995" y="-8.6"/>
      <point x="287.42400000000004" y="50.879999999999995"/>
      <point x="287.25600000000003" y="123.904" type="curve" smooth="yes"/>
      <point x="287.2" y="172.32"/>
      <point x="262.816" y="196.05599999999998"/>
      <point x="203.648" y="196.05599999999998" type="curve" smooth="yes"/>
      <point x="120.73599999999999" y="196.05599999999998"/>
      <point x="84.49600000000001" y="134.104"/>
    </contour>
  </outline>
</glyph>
<glyph name="at" format="2">
  <advance width="965.6"/>
  <unicode hex="0040"/>
  <outline>
    <contour>
      <point x="425.88" y="-121.28" type="curve" smooth="yes"/>
      <point x="489.88" y="-121.28"/>
      <point x="590.68" y="-103.72000000000001"/>
      <point x="656.7600000000001" y="-78.52000000000001" type="curve"/>
      <point x="642.32" y="-14.800000000000002" type="line"/>
      <point x="569.3199999999999" y="-36.44"/>
      <point x="494.64" y="-48.839999999999996"/>
      <point x="428.44" y="-48.839999999999996" type="curve" smooth="yes"/>
      <point x="250.16" y="-48.839999999999996"/>
      <point x="119.28" y="39.64"/>
      <point x="119.28" y="247.83999999999997" type="curve" smooth="yes"/>
      <point x="119.28" y="431.6"/>
      <point x="270.0" y="652.04"/>
      <point x="542.12" y="652.04" type="curve" smooth="yes"/>
      <point x="748.6800000000001" y="652.04"/>
      <point x="856.72" y="541.92"/>
      <point x="856.72" y="356.12" type="curve" smooth="yes"/>
      <point x="856.72" y="283.48"/>
      <point x="830.6400000000001" y="155.07999999999998"/>
      <point x="734.76" y="155.07999999999998" type="curve" smooth="yes"/>
      <point x="675.36" y="155.07999999999998"/>
      <point x="667.88" y="193.83999999999997"/>
      <point x="684.4799999999999" y="262.23999999999995" type="curve" smooth="yes"/>
      <point x="748.76" y="517.88" type="line"/>
      <point x="686.5200000000001" y="544.64"/>
      <point x="622.44" y="560.96"/>
      <point x="550.84" y="560.96" type="curve" smooth="yes"/>
      <point x="334.40000000000003" y="560.96"/>
      <point x="233.0" y="357.76"/>
      <point x="233.0" y="210.60000000000002" type="curve" smooth="yes"/>
      <point x="233.0" y="108.60000000000001"/>
      <point x="285.08000000000004" y="55.800000000000004"/>
      <point x="375.08" y="55.800000000000004" type="curve" smooth="yes"/>
      <point x="446.44" y="55.800000000000004"/>
      <point x="512.64" y="102.48"/>
      <point x="561.0" y="154.6" type="curve"/>
      <point x="576.6400000000001" y="71.51999999999998"/>
      <point x="629.56" y="51.08"/>
      <point x="702.08" y="51.08" type="curve" smooth="yes"/>
      <point x="864.0799999999999" y="51.08"/>
      <point x="933.16" y="209.32000000000005"/>
      <point x="933.16" y="367.0" type="curve" smooth="yes"/>
      <point x="933.16" y="589.1999999999999"/>
      <point x="775.8000000000001" y="723.76"/>
      <point x="557.4399999999999" y="723.76" type="curve" smooth="yes"/>
      <point x="224.04" y="723.76"/>
      <point x="41.839999999999996" y="479.84000000000003"/>
      <point x="41.839999999999996" y="231.79999999999998" type="curve" smooth="yes"/>
      <point x="41.839999999999996" y="10.919999999999998"/>
      <point x="185.12" y="-121.28"/>
    </contour>
    <contour>
      <point x="450.6" y="199.24" type="curve" smooth="yes"/>
      <point x="408.28000000000003" y="199.24"/>
      <point x="386.12" y="219.8"/>
      <point x="386.12" y="255.32000000000002" type="curve" smooth="yes"/>
      <point x="386.12" y="301.72"/>
      <point x="453.20000000000005" y="445.36"/>
      <point x="534.96" y="445.36" type="curve" smooth="yes"/>
      <point x="558.24" y="445.36"/>
      <point x="573.3599999999999" y="442.08"/>
      <point x="595.3599999999999" y="434.08000000000004" type="curve"/>
      <point x="545.8000000000001" y="232.35999999999999" type="line" smooth="yes"/>
      <point x="527.68" y="216.51999999999998"/>
      <point x="487.0" y="199.24"/>
    </contour>
  </outline>
</glyph>
<glyph name="A" format="2">
  <advance width="646.2719999999999"/>
  <unicode hex="0041"/>
  <anchor x="279.784" y="0.0" name="bottom"/>
  <anchor x="597.744" y="0.0" name="ogonek"/>
  <anchor x="388.20799999999997" y="700.0" name="top"/>
  <outline>
    <contour>
      <point x="-39.472" y="0.0" type="line"/>
      <point x="165.992" y="0.0" type="line"/>
      <point x="209.92000000000002" y="114.792" type="line"/>
      <point x="384.38399999999996" y="114.792" type="line"/>
      <point x="392.99999999999994" y="0.0" type="line"/>
      <point x="597.744" y="0.0" type="line"/>
      <point x="509.576" y="704.84" type="line"/>
      <point x="266.40000000000003" y="704.84" type="line"/>
    </contour>
    <contour>
      <point x="267.368" y="265.512" type="line"/>
      <point x="367.304" y="561.3919999999999" type="line"/>
      <point x="377.08799999999997" y="265.512" type="line"/>
    </contour>
  </outline>
</glyph>
<glyph name="B" format="2">
  <advance width="629.06"/>
  <unicode hex="0042"/>
  <outline>
    <contour>
      <point x="5.324000000000005" y="4.075999999999999" type="line"/>
      <point x="116.56800000000001" y="-5.676"/>
      <point x="184.716" y="-10.0"/>
      <point x="279.664" y="-10.0" type="curve" smooth="yes"/>
      <point x="460.31600000000003" y="-10.0"/>
      <point x="608.4280000000001" y="72.06"/>
      <point x="608.4280000000001" y="247.952" type="curve" smooth="yes"/>
      <point x="608.4280000000001" y="315.632"/>
      <point x="574.272" y="367.86"/>
      <point x="509.4000000000001" y="385.56800000000004" type="curve"/>
      <point x="581.0519999999999" y="421.056"/>
      <point x="627.9280000000001" y="481.49999999999994"/>
      <point x="627.9280000000001" y="566.192" type="curve" smooth="yes"/>
      <point x="627.9280000000001" y="658.676"/>
      <point x="558.184" y="710.0"/>
      <point x="380.3" y="710.0" type="curve" smooth="yes"/>
      <point x="323.86" y="710.0"/>
      <point x="238.308" y="706.6840000000001"/>
      <point x="115.83599999999998" y="695.756" type="curve"/>
    </contour>
    <contour>
      <point x="261.056" y="419.824" type="line"/>
      <point x="281.676" y="552.708" type="line"/>
      <point x="315.14" y="555.416"/>
      <point x="327.828" y="557.38"/>
      <point x="357.60400000000004" y="557.38" type="curve" smooth="yes"/>
      <point x="419.748" y="557.38"/>
      <point x="439.624" y="545.08"/>
      <point x="439.624" y="508.50399999999996" type="curve" smooth="yes"/>
      <point x="439.624" y="448.444"/>
      <point x="397.088" y="419.824"/>
      <point x="363.06000000000006" y="419.824" type="curve" smooth="yes"/>
    </contour>
    <contour>
      <point x="238.392" y="281.736" type="line"/>
      <point x="342.404" y="281.736" type="line" smooth="yes"/>
      <point x="391.984" y="281.736"/>
      <point x="414.16" y="267.05999999999995"/>
      <point x="414.16" y="233.656" type="curve" smooth="yes"/>
      <point x="414.16" y="166.772"/>
      <point x="371.184" y="139.776"/>
      <point x="288.308" y="139.776" type="curve" smooth="yes"/>
      <point x="269.7" y="139.776"/>
      <point x="241.12" y="140.996"/>
      <point x="216.35200000000003" y="143.736" type="curve"/>
    </contour>
  </outline>
</glyph>
<glyph name="C" format="2">
  <advance width="591.4399999999999"/>
  <unicode hex="0043"/>
  <anchor x="306.72" y="0.0" name="bottom"/>
  <anchor x="413.4800000000001" y="700.0" name="top"/>
  <outline>
    <contour>
      <point x="346.12000000000006" y="-10.0" type="curve" smooth="yes"/>
      <point x="412.68" y="-10.0"/>
      <point x="470.68" y="-2.72"/>
      <point x="535.04" y="13.999999999999998" type="curve"/>
      <point x="524.16" y="166.43999999999997" type="line"/>
      <point x="476.7200000000001" y="157.6"/>
      <point x="431.03999999999996" y="149.59999999999997"/>
      <point x="381.8" y="149.59999999999997" type="curve" smooth="yes"/>
      <point x="282.40000000000003" y="149.59999999999997"/>
      <point x="229.07999999999998" y="176.60000000000002"/>
      <point x="229.07999999999998" y="273.87999999999994" type="curve" smooth="yes"/>
      <point x="229.07999999999998" y="430.79999999999995"/>
      <point x="295.6" y="550.4"/>
      <point x="416.3600000000001" y="550.4" type="curve" smooth="yes"/>
      <point x="470.2" y="550.4"/>
      <point x="528.52" y="539.2400000000001"/>
      <point x="572.7600000000001" y="525.68" type="curve"/>
      <point x="620.7599999999999" y="672.9600000000002" type="line"/>
      <point x="553.0000000000001" y="700.2800000000001"/>
      <point x="478.2000000000001" y="710.0"/>
      <point x="403.15999999999997" y="710.0" type="curve" smooth="yes"/>
      <point x="173.24" y="710.0"/>
      <point x="33.36000000000001" y="530.92"/>
      <point x="33.36000000000001" y="248.08" type="curve" smooth="yes"/>
      <point x="33.36000000000001" y="68.72"/>
      <point x="140.56000000000003" y="-10.0"/>
    </contour>
  </outline>
</glyph>
<glyph name="D" format="2">
  <advance width="672.5200000000001"/>
  <unicode hex="0044"/>
  <anchor x="283.16" y="0.0" name="bottom"/>
  <anchor x="345.44" y="350.0" name="center"/>
  <anchor x="360.79999999999995" y="700.0" name="top"/>
  <outline>
    <contour>
      <point x="267.04" y="-10.0" type="curve" smooth="yes"/>
      <point x="523.36" y="-10.0"/>
      <point x="659.1600000000001" y="154.60000000000005"/>
      <point x="659.1600000000001" y="423.36" type="curve" smooth="yes"/>
      <point x="659.1600000000001" y="610.2000000000002"/>
      <point x="557.8" y="710.0"/>
      <point x="347.72" y="710.0" type="curve" smooth="yes"/>
      <point x="277.24" y="710.0"/>
      <point x="205.16" y="707.0"/>
      <point x="116.03999999999998" y="699.5600000000001" type="curve"/>
      <point x="4.040000000000001" y="2.1599999999999993" type="line"/>
      <point x="83.24" y="-5.28"/>
      <point x="159.36" y="-10.0"/>
    </contour>
    <contour>
      <point x="287.12" y="136.56" type="curve" smooth="yes"/>
      <point x="255.19999999999996" y="136.56"/>
      <point x="241.72" y="138.56"/>
      <point x="215.52" y="139.84000000000003" type="curve"/>
      <point x="281.96000000000004" y="555.7200000000001" type="line"/>
      <point x="298.75999999999993" y="557.0"/>
      <point x="321.36" y="558.28"/>
      <point x="350.43999999999994" y="558.28" type="curve" smooth="yes"/>
      <point x="422.4" y="558.28"/>
      <point x="466.43999999999994" y="510.6400000000001"/>
      <point x="466.43999999999994" y="418.91999999999996" type="curve" smooth="yes"/>
      <point x="466.43999999999994" y="246.19999999999996"/>
      <point x="398.84" y="136.56"/>
    </contour>
  </outline>
</glyph>
<glyph name="E" format="2">
  <advance width="575.976"/>
  <unicode hex="0045"/>
  <anchor x="256.656" y="0.0" name="bottom"/>
  <anchor x="508.288" y="0.0" name="ogonek"/>
  <anchor x="359.37600000000003" y="700.0" name="top"/>
  <anchor x="88.62536" y="700.0" name="topleft"/>
  <outline>
    <contour>
      <point x="3.7520000000000016" y="0.0" type="line"/>
      <point x="508.288" y="0.0" type="line"/>
      <point x="533.6399999999999" y="156.136" type="line"/>
      <point x="215.79999999999998" y="156.136" type="line"/>
      <point x="234.84799999999998" y="279.216" type="line"/>
      <point x="511.96000000000004" y="279.216" type="line"/>
      <point x="536.4399999999999" y="423.832" type="line"/>
      <point x="258.616" y="423.832" type="line"/>
      <point x="277.664" y="541.704" type="line"/>
      <point x="578.792" y="541.704" type="line"/>
      <point x="605.0079999999999" y="700.0" type="line"/>
      <point x="115.47200000000001" y="700.0" type="line"/>
    </contour>
  </outline>
</glyph>
<glyph name="F" format="2">
  <advance width="550.4120000000001"/>
  <unicode hex="0046"/>
  <outline>
    <contour>
      <point x="3.4600000000000017" y="0.0" type="line"/>
      <point x="192.772" y="0.0" type="line"/>
      <point x="227.96800000000002" y="218.89600000000002" type="line"/>
      <point x="481.83200000000005" y="218.89600000000002" type="line"/>
      <point x="507.7080000000001" y="379.08" type="line"/>
      <point x="253.44" y="379.08" type="line"/>
      <point x="278.472" y="536.936" type="line"/>
      <point x="573.66" y="536.936" type="line"/>
      <point x="600.852" y="700.0" type="line"/>
      <point x="115.75200000000001" y="700.0" type="line"/>
    </contour>
  </outline>
</glyph>
<glyph name="G" format="2">
  <advance width="631.26"/>
  <unicode hex="0047"/>
  <anchor x="318.02" y="0.0" name="bottom"/>
  <anchor x="417.456" y="700.0" name="top"/>
  <outline>
    <contour>
      <point x="319.93600000000004" y="-10.0" type="curve" smooth="yes"/>
      <point x="421.9920000000001" y="-10.0"/>
      <point x="504.0640000000001" y="9.076"/>
      <point x="559.376" y="38.092" type="curve"/>
      <point x="619.0120000000001" y="407.15200000000004" type="line"/>
      <point x="357.004" y="407.15200000000004" type="line"/>
      <point x="334.91200000000003" y="268.44" type="line"/>
      <point x="430.34399999999994" y="268.44" type="line"/>
      <point x="411.312" y="149.3" type="line"/>
      <point x="395.98" y="142.756"/>
      <point x="369.95200000000006" y="137.828"/>
      <point x="338.816" y="137.828" type="curve" smooth="yes"/>
      <point x="260.88" y="137.828"/>
      <point x="219.348" y="169.168"/>
      <point x="219.348" y="258.94399999999996" type="curve" smooth="yes"/>
      <point x="219.348" y="417.484"/>
      <point x="290.41200000000003" y="551.6800000000001"/>
      <point x="421.932" y="551.6800000000001" type="curve" smooth="yes"/>
      <point x="485.44" y="551.6800000000001"/>
      <point x="535.4639999999999" y="540.0360000000001"/>
      <point x="583.204" y="527.88" type="curve"/>
      <point x="639.856" y="677.4039999999999" type="line"/>
      <point x="569.456" y="701.0600000000001"/>
      <point x="496.9760000000001" y="710.0"/>
      <point x="414.668" y="710.0" type="curve" smooth="yes"/>
      <point x="148.844" y="710.0"/>
      <point x="30.412000000000003" y="481.94800000000004"/>
      <point x="30.412000000000003" y="245.68" type="curve" smooth="yes"/>
      <point x="30.412000000000003" y="77.42"/>
      <point x="137.892" y="-10.0"/>
    </contour>
  </outline>
</glyph>
<glyph name="H" format="2">
  <advance width="667.788"/>
  <unicode hex="0048"/>
  <anchor x="290.37070400000005" y="0.0" name="bottom"/>
  <anchor x="345.853164" y="350.0" name="center"/>
  <anchor x="401.25070800000003" y="700.0" name="top"/>
  <anchor x="87.11870800000001" y="700.0" name="topleft"/>
  <outline>
    <contour>
      <point x="3.4040000000000017" y="0.0" type="line"/>
      <point x="192.94" y="0.0" type="line"/>
      <point x="230.684" y="240.088" type="line"/>
      <point x="427.168" y="240.088" type="line"/>
      <point x="389.252" y="0.0" type="line"/>
      <point x="575.092" y="0.0" type="line"/>
      <point x="687.4680000000001" y="700.0" type="line"/>
      <point x="501.456" y="700.0" type="line"/>
      <point x="453.216" y="402.192" type="line"/>
      <point x="256.64799999999997" y="402.192" type="line"/>
      <point x="305.232" y="700.0" type="line"/>
      <point x="115.69600000000001" y="700.0" type="line"/>
    </contour>
  </outline>
</glyph>
<glyph name="I" format="2">
  <advance width="285.552"/>
  <unicode hex="0049"/>
  <anchor x="99.057968" y="0.0" name="bottom"/>
  <anchor x="194.418448" y="5.159999999999999" name="ogonek"/>
  <anchor x="209.983036" y="700.0" name="top"/>
  <anchor x="88.673508" y="700.0" name="topleft"/>
  <outline>
    <contour>
      <point x="3.4040000000000017" y="0.0" type="line"/>
      <point x="192.85600000000002" y="0.0" type="line"/>
      <point x="305.232" y="700.0" type="line"/>
      <point x="115.69600000000001" y="700.0" type="line"/>
    </contour>
  </outline>
</glyph>
<glyph name="J" format="2">
  <advance width="502.39200000000005"/>
  <unicode hex="004A"/>
  <anchor x="202.265104" y="0.0" name="bottom"/>
  <anchor x="324.048" y="700.0" name="top"/>
  <outline>
    <contour>
      <point x="-29.872" y="27.5" type="line"/>
      <point x="35.32" y="4.52"/>
      <point x="107.632" y="-10.0"/>
      <point x="186.356" y="-10.0" type="curve" smooth="yes"/>
      <point x="341.248" y="-10.0"/>
      <point x="424.428" y="69.108"/>
      <point x="451.252" y="230.356" type="curve" smooth="yes"/>
      <point x="527.228" y="700.0" type="line"/>
      <point x="123.708" y="700.0" type="line"/>
      <point x="97.488" y="539.788" type="line"/>
      <point x="311.55600000000004" y="539.788" type="line"/>
      <point x="270.08799999999997" y="279.124" type="line" smooth="yes"/>
      <point x="255.44400000000005" y="186.864"/>
      <point x="221.32" y="160.532"/>
      <point x="158.48399999999998" y="160.532" type="curve" smooth="yes"/>
      <point x="120.92000000000002" y="160.532"/>
      <point x="75.268" y="170.54800000000003"/>
      <point x="21.396" y="184.756" type="curve"/>
    </contour>
  </outline>
</glyph>
<glyph name="K" format="2">
  <advance width="643.768"/>
  <unicode hex="004B"/>
  <anchor x="297.92" y="0.0" name="bottom"/>
  <anchor x="392.64799999999997" y="700.0" name="top"/>
  <outline>
    <contour>
      <point x="2.7760000000000016" y="0.0" type="line"/>
      <point x="193.25600000000003" y="0.0" type="line"/>
      <point x="304.632" y="700.0" type="line"/>
      <point x="116.44000000000001" y="700.0" type="line"/>
    </contour>
    <contour>
      <point x="532.008" y="-9.6" type="curve" smooth="yes"/>
      <point x="547.0160000000001" y="-9.6"/>
      <point x="577.728" y="-4.784000000000001"/>
      <point x="586.256" y="-1.496" type="curve"/>
      <point x="608.76" y="190.072" type="line"/>
      <point x="601.976" y="190.384"/>
      <point x="596.024" y="189.81599999999997"/>
      <point x="589.96" y="189.81599999999997" type="curve" smooth="yes"/>
      <point x="554.184" y="189.81599999999997"/>
      <point x="518.1759999999999" y="203.488"/>
      <point x="469.64000000000004" y="251.208" type="curve" smooth="yes"/>
      <point x="236.096" y="479.35200000000003" type="line"/>
      <point x="206.256" y="268.59200000000004" type="line"/>
      <point x="390.50399999999996" y="57.784000000000006" type="line" smooth="yes"/>
      <point x="432.19199999999995" y="13.288000000000002"/>
      <point x="478.0639999999999" y="-9.6"/>
    </contour>
    <contour>
      <point x="369.544" y="286.088" type="line"/>
      <point x="505.29600000000005" y="374.104"/>
      <point x="619.432" y="492.51200000000006"/>
      <point x="679.912" y="627.512" type="curve"/>
      <point x="538.4079999999999" y="707.992" type="line"/>
      <point x="461.61600000000004" y="576.3839999999999"/>
      <point x="363.728" y="463.072"/>
      <point x="270.488" y="398.288" type="curve"/>
    </contour>
  </outline>
</glyph>
<glyph name="L" format="2">
  <advance width="537.956"/>
  <unicode hex="004C"/>
  <anchor x="245.916" y="0.0" name="bottom"/>
  <anchor x="279.929164" y="350.0" name="center"/>
  <anchor x="210.352" y="700.0" name="top"/>
  <anchor x="395.384" y="700.0" name="topright"/>
  <outline>
    <contour>
      <point x="3.3200000000000003" y="0.0" type="line"/>
      <point x="474.956" y="0.0" type="line"/>
      <point x="502.036" y="161.588" type="line"/>
      <point x="219.164" y="161.588" type="line"/>
      <point x="305.14799999999997" y="700.0" type="line"/>
      <point x="115.69600000000001" y="700.0" type="line"/>
    </contour>
  </outline>
</glyph>
<glyph name="M" format="2">
  <advance width="755.844"/>
  <unicode hex="004D"/>
  <outline>
    <contour>
      <point x="2.8040000000000003" y="0.0" type="line"/>
      <point x="177.776" y="0.0" type="line"/>
      <point x="241.70000000000002" y="420.25600000000003" type="line"/>
      <point x="311.996" y="137.31599999999997" type="line"/>
      <point x="395.28" y="137.31599999999997" type="line"/>
      <point x="558.6479999999999" y="421.28800000000007" type="line"/>
      <point x="489.348" y="0.0" type="line"/>
      <point x="663.148" y="0.0" type="line"/>
      <point x="775.5240000000001" y="700.0" type="line"/>
      <point x="574.332" y="700.0" type="line"/>
      <point x="388.7" y="376.348" type="line"/>
      <point x="302.676" y="700.0" type="line"/>
      <point x="115.69600000000001" y="700.0" type="line"/>
    </contour>
  </outline>
</glyph>
<glyph name="N" format="2">
  <advance width="650.8199999999999"/>
  <unicode hex="004E"/>
  <anchor x="285.06" y="0.0" name="bottom"/>
  <anchor x="393.48" y="700.0" name="top"/>
  <outline>
    <contour>
      <point x="3.460000000000001" y="0.0" type="line"/>
      <point x="171.38" y="0.0" type="line"/>
      <point x="233.38" y="379.6" type="line"/>
      <point x="382.40000000000003" y="-0.56" type="line"/>
      <point x="557.78" y="-0.56" type="line"/>
      <point x="670.5" y="700.0" type="line"/>
      <point x="501.86" y="700.0" type="line"/>
      <point x="436.4200000000001" y="300.76" type="line"/>
      <point x="291.84000000000003" y="700.56" type="line"/>
      <point x="116.18" y="700.56" type="line"/>
    </contour>
  </outline>
</glyph>
<glyph name="O" format="2">
  <advance width="673.84"/>
  <unicode hex="004F"/>
  <note>
8
</note>
  <anchor x="293.04" y="0.0" name="bottom"/>
  <anchor x="348.32" y="350.0" name="center"/>
  <anchor x="386.16" y="1.0000000000000004" name="ogonek"/>
  <anchor x="399.03999999999996" y="700.0" name="top"/>
  <anchor x="85.24" y="700.0" name="topleft"/>
  <anchor x="554.3999999999999" y="693.0400000000001" name="topright"/>
  <outline>
    <contour>
      <point x="308.31999999999994" y="-6.28" type="curve" smooth="yes"/>
      <point x="533.52" y="-6.28"/>
      <point x="653.4399999999999" y="160.56"/>
      <point x="661.36" y="412.24000000000007" type="curve" smooth="yes"/>
      <point x="667.12" y="601.24"/>
      <point x="569.6400000000001" y="706.28"/>
      <point x="389.52000000000004" y="706.28" type="curve" smooth="yes"/>
      <point x="164.32" y="706.28"/>
      <point x="44.4" y="539.4399999999999"/>
      <point x="36.480000000000004" y="287.76" type="curve" smooth="yes"/>
      <point x="30.720000000000002" y="98.76"/>
      <point x="128.20000000000002" y="-6.28"/>
    </contour>
    <contour>
      <point x="323.36" y="150.60000000000002" type="curve" smooth="yes"/>
      <point x="262.28000000000003" y="150.60000000000002"/>
      <point x="229.48000000000002" y="177.28"/>
      <point x="229.48000000000002" y="275.72" type="curve" smooth="yes"/>
      <point x="229.48000000000002" y="404.00000000000006"/>
      <point x="277.84000000000003" y="549.4000000000001"/>
      <point x="374.76" y="549.4000000000001" type="curve" smooth="yes"/>
      <point x="435.56" y="549.4000000000001"/>
      <point x="468.36" y="522.0"/>
      <point x="468.36" y="423.56" type="curve" smooth="yes"/>
      <point x="468.36" y="295.28"/>
      <point x="420.0" y="150.60000000000002"/>
    </contour>
  </outline>
</glyph>
<glyph name="P" format="2">
  <advance width="651.3799999999999"/>
  <unicode hex="0050"/>
  <outline>
    <contour>
      <point x="3.460000000000001" y="0.0" type="line"/>
      <point x="191.88" y="0.0" type="line"/>
      <point x="221.26000000000002" y="177.23999999999998" type="line"/>
      <point x="273.96" y="173.52"/>
      <point x="291.18" y="173.38"/>
      <point x="325.2" y="173.38" type="curve" smooth="yes"/>
      <point x="556.3800000000001" y="173.38"/>
      <point x="664.0" y="283.59999999999997"/>
      <point x="664.14" y="493.88" type="curve" smooth="yes"/>
      <point x="664.14" y="641.4"/>
      <point x="582.24" y="710.0"/>
      <point x="378.53999999999996" y="710.0" type="curve" smooth="yes"/>
      <point x="331.48" y="710.0"/>
      <point x="240.85999999999999" y="707.14"/>
      <point x="116.18" y="701.14" type="curve"/>
    </contour>
    <contour>
      <point x="281.82" y="553.42" type="line"/>
      <point x="329.62" y="555.6999999999999"/>
      <point x="341.68" y="556.8399999999999"/>
      <point x="374.68" y="556.8399999999999" type="curve" smooth="yes"/>
      <point x="448.26" y="556.8399999999999"/>
      <point x="472.2800000000001" y="528.3399999999999"/>
      <point x="472.2800000000001" y="465.8" type="curve" smooth="yes"/>
      <point x="472.2800000000001" y="390.62"/>
      <point x="431.98" y="327.4"/>
      <point x="316.16" y="327.4" type="curve" smooth="yes"/>
      <point x="295.56" y="327.4"/>
      <point x="280.66" y="328.53999999999996"/>
      <point x="245.76000000000002" y="330.53999999999996" type="curve"/>
    </contour>
  </outline>
</glyph>
<glyph name="Q" format="2">
  <advance width="675.508"/>
  <unicode hex="0051"/>
  <note>
14
</note>
  <outline>
    <contour>
      <point x="481.468" y="-183.444" type="curve" smooth="yes"/>
      <point x="510.396" y="-183.444"/>
      <point x="539.74" y="-179.024"/>
      <point x="569.236" y="-169.84" type="curve"/>
      <point x="578.7719999999999" y="-19.884000000000015" type="line"/>
      <point x="565.5600000000001" y="-25.056"/>
      <point x="549.7400000000001" y="-27.616"/>
      <point x="532.1479999999999" y="-27.616" type="curve" smooth="yes"/>
      <point x="489.39200000000005" y="-27.616"/>
      <point x="452.216" y="-7.827999999999995"/>
      <point x="441.512" y="26.724" type="curve"/>
      <point x="277.88800000000003" y="12.163999999999998" type="line"/>
      <point x="295.688" y="-131.592"/>
      <point x="385.528" y="-183.444"/>
    </contour>
    <component base="O"/>
  </outline>
</glyph>
<glyph name="R" format="2">
  <advance width="667.64"/>
  <unicode hex="0052"/>
  <anchor x="311.04" y="0.0" name="bottom"/>
  <anchor x="369.04" y="700.0" name="top"/>
  <outline>
    <contour>
      <point x="3.320000000000002" y="0.0" type="line"/>
      <point x="192.88" y="0.0" type="line"/>
      <point x="228.12" y="218.28" type="line"/>
      <point x="267.48" y="218.0"/>
      <point x="305.56" y="218.0"/>
      <point x="346.88" y="217.0" type="curve"/>
      <point x="383.71999999999997" y="246.16000000000003" type="line"/>
      <point x="550.8" y="246.44000000000003"/>
      <point x="661.0" y="341.48"/>
      <point x="661.0" y="506.96" type="curve" smooth="yes"/>
      <point x="661.0" y="634.12"/>
      <point x="579.0400000000001" y="710.0"/>
      <point x="379.8" y="710.0" type="curve" smooth="yes"/>
      <point x="317.79999999999995" y="710.0"/>
      <point x="232.08" y="706.2800000000001"/>
      <point x="116.03999999999999" y="699.5600000000001" type="curve"/>
    </contour>
    <contour>
      <point x="554.2800000000001" y="-10.0" type="curve" smooth="yes"/>
      <point x="565.4400000000002" y="-10.0"/>
      <point x="594.8" y="-6.999999999999999"/>
      <point x="604.68" y="-2.56" type="curve"/>
      <point x="627.48" y="172.96" type="line"/>
      <point x="622.4799999999999" y="171.96000000000004"/>
      <point x="615.04" y="171.96000000000004"/>
      <point x="609.5999999999999" y="171.96000000000004" type="curve" smooth="yes"/>
      <point x="561.8799999999999" y="171.96"/>
      <point x="504.03999999999996" y="209.28"/>
      <point x="461.16" y="288.76" type="curve"/>
      <point x="277.19999999999993" y="244.48000000000002" type="line"/>
      <point x="374.68000000000006" y="48.519999999999996"/>
      <point x="450.72" y="-10.0"/>
    </contour>
    <contour>
      <point x="330.08" y="355.19999999999993" type="curve" smooth="yes"/>
      <point x="298.84000000000003" y="355.19999999999993"/>
      <point x="274.8" y="356.2"/>
      <point x="250.32" y="359.2" type="curve"/>
      <point x="281.96" y="558.4399999999999" type="line"/>
      <point x="327.92" y="560.72"/>
      <point x="339.44" y="561.72"/>
      <point x="374.36" y="561.72" type="curve" smooth="yes"/>
      <point x="443.64" y="561.72"/>
      <point x="464.2800000000001" y="529.6400000000001"/>
      <point x="464.2800000000001" y="486.00000000000006" type="curve" smooth="yes"/>
      <point x="464.2800000000001" y="402.32"/>
      <point x="414.64" y="355.19999999999993"/>
    </contour>
  </outline>
</glyph>
<glyph name="S" format="2">
  <advance width="586.6400000000001"/>
  <unicode hex="0053"/>
  <anchor x="270.2" y="0.0" name="bottom"/>
  <anchor x="364.52" y="700.0" name="top"/>
  <outline>
    <contour>
      <point x="594.5600000000001" y="669.8000000000001" type="line"/>
      <point x="528.4" y="695.12"/>
      <point x="455.76" y="710.0"/>
      <point x="374.24" y="710.0" type="curve" smooth="yes"/>
      <point x="154.84" y="710.0"/>
      <point x="54.720000000000006" y="621.08"/>
      <point x="54.720000000000006" y="476.64" type="curve" smooth="yes"/>
      <point x="54.720000000000006" y="263.44"/>
      <point x="358.4" y="288.28"/>
      <point x="358.40000000000003" y="198.23999999999998" type="curve" smooth="yes"/>
      <point x="358.40000000000003" y="166.16"/>
      <point x="330.88" y="141.56"/>
      <point x="260.52" y="141.56" type="curve" smooth="yes"/>
      <point x="185.4" y="141.56"/>
      <point x="109.28" y="156.56"/>
      <point x="29.639999999999993" y="185.43999999999997" type="curve"/>
      <point x="-24.92" y="39.48" type="line"/>
      <point x="47.24000000000001" y="8.6"/>
      <point x="139.56" y="-10.0"/>
      <point x="244.95999999999998" y="-10.0" type="curve" smooth="yes"/>
      <point x="465.04" y="-10.0"/>
      <point x="561.04" y="80.92"/>
      <point x="561.04" y="218.72" type="curve" smooth="yes"/>
      <point x="561.3199999999999" y="431.72"/>
      <point x="258.8" y="414.56"/>
      <point x="258.8" y="498.76" type="curve" smooth="yes"/>
      <point x="258.8" y="535.16"/>
      <point x="288.0" y="558.32"/>
      <point x="359.4" y="558.32" type="curve" smooth="yes"/>
      <point x="425.4" y="558.32"/>
      <point x="488.44" y="547.6"/>
      <point x="542.88" y="526.88" type="curve"/>
    </contour>
  </outline>
</glyph>
<glyph name="T" format="2">
  <advance width="593.128"/>
  <unicode hex="0054"/>
  <anchor x="252.793104" y="0.0" name="bottom"/>
  <anchor x="308.49478799999997" y="350.0" name="center"/>
  <anchor x="363.74303599999996" y="700.0" name="top"/>
  <outline>
    <contour>
      <point x="620.656" y="546.668" type="line"/>
      <point x="647.3919999999999" y="700.0" type="line"/>
      <point x="82.66" y="700.0" type="line"/>
      <point x="55.58" y="546.668" type="line"/>
      <point x="243.98" y="546.668" type="line"/>
      <point x="157.48000000000002" y="0.0" type="line"/>
      <point x="346.932" y="0.0" type="line"/>
      <point x="433.088" y="546.668" type="line"/>
    </contour>
  </outline>
</glyph>
<glyph name="U" format="2">
  <advance width="655.096"/>
  <unicode hex="0055"/>
  <anchor x="284.12984" y="0.0" name="bottom"/>
  <anchor x="374.848" y="0.0" name="ogonek"/>
  <anchor x="394.62518" y="700.0" name="top"/>
  <anchor x="663.7639999999999" y="700.0" name="topright"/>
  <outline>
    <contour>
      <point x="279.684" y="-10.0" type="curve" smooth="yes"/>
      <point x="474.992" y="-10.0"/>
      <point x="577.704" y="66.26"/>
      <point x="604.864" y="232.928" type="curve" smooth="yes"/>
      <point x="679.932" y="700.0" type="line"/>
      <point x="492.8040000000001" y="700.0" type="line"/>
      <point x="416.81999999999994" y="224.32800000000003" type="line" smooth="yes"/>
      <point x="408.944" y="171.82"/>
      <point x="372.428" y="146.256"/>
      <point x="307.276" y="146.256" type="curve" smooth="yes"/>
      <point x="242.988" y="146.256"/>
      <point x="212.14000000000001" y="173.28"/>
      <point x="220.652" y="222.81600000000003" type="curve" smooth="yes"/>
      <point x="297.812" y="700.0" type="line"/>
      <point x="110.768" y="700.0" type="line"/>
      <point x="35.58800000000001" y="231.388" type="line" smooth="yes"/>
      <point x="31.24" y="202.86800000000002"/>
      <point x="29.808" y="186.608"/>
      <point x="29.808" y="170.688" type="curve" smooth="yes"/>
      <point x="29.808" y="48.812000000000005"/>
      <point x="111.55199999999999" y="-10.0"/>
    </contour>
  </outline>
</glyph>
<glyph name="V" format="2">
  <advance width="617.436"/>
  <unicode hex="0056"/>
  <outline>
    <contour>
      <point x="370.15599999999995" y="0.0" type="line"/>
      <point x="587.88" y="376.756"/>
      <point x="650.0799999999999" y="518.0"/>
      <point x="673.3" y="675.74" type="curve" smooth="yes"/>
      <point x="674.16" y="684.2160000000001"/>
      <point x="674.88" y="691.636"/>
      <point x="675.376" y="700.0" type="curve"/>
      <point x="472.176" y="700.0" type="line"/>
      <point x="472.4" y="694.88"/>
      <point x="473.456" y="689.236"/>
      <point x="473.456" y="681.1800000000001" type="curve" smooth="yes"/>
      <point x="473.456" y="548.6600000000001"/>
      <point x="392.468" y="391.72799999999995"/>
      <point x="295.13199999999995" y="170.16" type="curve"/>
      <point x="271.15999999999997" y="700.616" type="line"/>
      <point x="65.54" y="700.14" type="line"/>
      <point x="149.496" y="0.0" type="line"/>
    </contour>
  </outline>
</glyph>
<glyph name="W" format="2">
  <advance width="942.12"/>
  <unicode hex="0057"/>
  <anchor x="421.92" y="0.0" name="bottom"/>
  <anchor x="533.44" y="700.0" name="top"/>
  <outline>
    <contour>
      <point x="731.68" y="0.0" type="line"/>
      <point x="937.16" y="457.44"/>
      <point x="989.72" y="581.6400000000001"/>
      <point x="996.04" y="687.8" type="curve" smooth="yes"/>
      <point x="996.04" y="691.4799999999999"/>
      <point x="996.04" y="696.6"/>
      <point x="996.48" y="700.0" type="curve"/>
      <point x="836.44" y="700.0" type="line"/>
      <point x="836.72" y="696.3199999999999"/>
      <point x="836.72" y="692.92"/>
      <point x="836.72" y="687.5199999999999" type="curve" smooth="yes"/>
      <point x="830.0" y="546.4"/>
      <point x="788.24" y="472.0"/>
      <point x="653.64" y="167.92" type="curve"/>
      <point x="607.28" y="658.8" type="line"/>
      <point x="449.8" y="658.8" type="line"/>
      <point x="398.56" y="500.48"/>
      <point x="329.52" y="294.6"/>
      <point x="265.96" y="165.24" type="curve"/>
      <point x="231.0" y="700.0" type="line"/>
      <point x="66.67999999999999" y="700.0" type="line"/>
      <point x="130.24" y="0.0" type="line"/>
      <point x="304.52" y="0.0" type="line"/>
      <point x="380.72" y="155.32"/>
      <point x="444.55999999999995" y="299.84"/>
      <point x="492.08" y="405.59999999999997" type="curve"/>
      <point x="549.1999999999999" y="0.0" type="line"/>
    </contour>
  </outline>
</glyph>
<glyph name="X" format="2">
  <advance width="655.2"/>
  <unicode hex="0058"/>
  <outline>
    <contour>
      <point x="446.36" y="-1.5599999999999998" type="line"/>
      <point x="615.3599999999999" y="1.72" type="line"/>
      <point x="459.76" y="357.48" type="line"/>
      <point x="610.12" y="573.8000000000001"/>
      <point x="673.2800000000001" y="618.8400000000001"/>
      <point x="693.52" y="701.44" type="curve"/>
      <point x="530.0" y="704.16" type="line"/>
      <point x="511.63999999999993" y="622.32"/>
      <point x="447.03999999999996" y="536.3999999999999"/>
      <point x="354.96" y="455.00000000000006" type="curve"/>
      <point x="252.76000000000002" y="701.84" type="line"/>
      <point x="86.92" y="698.56" type="line"/>
      <point x="215.56" y="365.67999999999995" type="line"/>
      <point x="79.24000000000001" y="210.92000000000002"/>
      <point x="1.6799999999999997" y="126.47999999999999"/>
      <point x="-15.600000000000003" y="0.0" type="curve"/>
      <point x="154.4" y="0.0" type="line"/>
      <point x="171.68" y="113.68"/>
      <point x="213.95999999999998" y="153.12000000000003"/>
      <point x="325.79999999999995" y="267.03999999999996" type="curve"/>
    </contour>
  </outline>
</glyph>
<glyph name="Y" format="2">
  <advance width="599.7919999999999"/>
  <unicode hex="0059"/>
  <anchor x="255.792" y="0.0" name="bottom"/>
  <anchor x="370.644" y="700.0" name="top"/>
  <anchor x="85.884" y="700.0" name="topleft"/>
  <outline>
    <contour>
      <point x="164.408" y="0.0" type="line"/>
      <point x="350.88" y="0.0" type="line"/>
      <point x="388.69200000000006" y="228.33200000000002" type="line"/>
      <point x="553.5799999999999" y="429.992"/>
      <point x="615.636" y="538.076"/>
      <point x="658.556" y="668.548" type="curve" smooth="yes"/>
      <point x="661.1800000000001" y="678.592"/>
      <point x="665.836" y="690.44"/>
      <point x="669.376" y="701.484" type="curve"/>
      <point x="457.392" y="701.3800000000001" type="line"/>
      <point x="455.572" y="691.024"/>
      <point x="453.348" y="681.152"/>
      <point x="451.92800000000005" y="671.0840000000001" type="curve" smooth="yes"/>
      <point x="427.75199999999995" y="568.128"/>
      <point x="400.0040000000001" y="487.88"/>
      <point x="320.13599999999997" y="369.56800000000004" type="curve"/>
      <point x="277.79600000000005" y="700.496" type="line"/>
      <point x="63.800000000000004" y="699.572" type="line"/>
      <point x="201.852" y="228.33200000000002" type="line"/>
    </contour>
  </outline>
</glyph>
<glyph name="Z" format="2">
  <advance width="589.9200000000001"/>
  <unicode hex="005A"/>
  <anchor x="251.88" y="0.0" name="bottom"/>
  <anchor x="306.76000000000005" y="350.0" name="center"/>
  <anchor x="358.59999999999997" y="700.0" name="top"/>
  <outline>
    <contour>
      <point x="-22.72" y="0.0" type="line"/>
      <point x="523.32" y="0.0" type="line"/>
      <point x="548.6800000000001" y="152.72000000000003" type="line"/>
      <point x="238.71999999999997" y="152.72000000000003" type="line"/>
      <point x="599.4399999999999" y="549.5600000000001" type="line"/>
      <point x="623.8000000000001" y="700.0" type="line"/>
      <point x="104.67999999999999" y="700.0" type="line"/>
      <point x="79.31999999999998" y="547.2800000000001" type="line"/>
      <point x="368.56000000000006" y="547.2800000000001" type="line"/>
      <point x="0.9199999999999993" y="147.0" type="line"/>
    </contour>
  </outline>
</glyph>
<glyph name="bracketleft" format="2">
  <advance width="334.692"/>
  <unicode hex="005B"/>
  <outline>
    <contour>
      <point x="135.848" y="-76.76" type="line"/>
      <point x="246.10399999999998" y="606.816" type="line"/>
      <point x="367.98400000000004" y="606.816" type="line"/>
      <point x="389.904" y="740.0" type="line"/>
      <point x="125.444" y="740.0" type="line"/>
      <point x="-28.224" y="-210.0" type="line"/>
      <point x="235.292" y="-210.0" type="line"/>
      <point x="257.72799999999995" y="-76.76" type="line"/>
    </contour>
  </outline>
</glyph>
<glyph name="backslash" format="2">
  <advance width="396.664"/>
  <unicode hex="005C"/>
  <outline>
    <contour>
      <point x="212.64399999999998" y="740.0" type="line"/>
      <point x="72.756" y="740.0" type="line"/>
      <point x="216.33200000000002" y="-210.0" type="line"/>
      <point x="355.704" y="-210.0" type="line"/>
    </contour>
  </outline>
</glyph>
<glyph name="bracketright" format="2">
  <advance width="334.692"/>
  <unicode hex="005D"/>
  <outline>
    <contour>
      <point x="-36.152" y="-76.76" type="line"/>
      <point x="-57.728" y="-210.0" type="line"/>
      <point x="205.648" y="-210.0" type="line"/>
      <point x="360.26" y="740.0" type="line"/>
      <point x="95.88399999999999" y="740.0" type="line"/>
      <point x="73.448" y="606.76" type="line"/>
      <point x="195.32800000000003" y="606.76" type="line"/>
      <point x="84.556" y="-76.76" type="line"/>
    </contour>
  </outline>
</glyph>
<glyph name="asciicircum" format="2">
  <advance width="511.172"/>
  <unicode hex="005E"/>
  <outline>
    <contour>
      <point x="40.216" y="233.252" type="line"/>
      <point x="176.116" y="233.252" type="line"/>
      <point x="292.536" y="520.304" type="line"/>
      <point x="322.436" y="233.252" type="line"/>
      <point x="457.708" y="233.252" type="line"/>
      <point x="399.908" y="701.4" type="line"/>
      <point x="242.248" y="701.4" type="line"/>
    </contour>
  </outline>
</glyph>
<glyph name="underscore" format="2">
  <advance width="717.8720000000001"/>
  <unicode hex="005F"/>
  <outline>
    <contour>
      <point x="-67.15199999999999" y="-199.124" type="line"/>
      <point x="633.352" y="-199.124" type="line"/>
      <point x="658.024" y="-51.955999999999996" type="line"/>
      <point x="-42.48" y="-51.955999999999996" type="line"/>
    </contour>
  </outline>
</glyph>
<glyph name="a" format="2">
  <advance width="580.8"/>
  <unicode hex="0061"/>
  <note>
15
</note>
  <anchor x="250.92000000000002" y="0.0" name="bottom"/>
  <anchor x="539.3599999999999" y="8.599999999999998" name="ogonek"/>
  <anchor x="331.43999999999994" y="547.2" name="top"/>
  <outline>
    <contour>
      <point x="446.76000000000005" y="-10.0" type="curve" smooth="yes"/>
      <point x="479.96000000000004" y="-10.0"/>
      <point x="518.04" y="-1.8399999999999999"/>
      <point x="538.6400000000001" y="8.599999999999998" type="curve"/>
      <point x="549.4000000000001" y="149.44" type="line"/>
      <point x="544.2800000000001" y="147.88000000000002"/>
      <point x="537.7200000000001" y="147.6"/>
      <point x="532.6" y="147.6" type="curve" smooth="yes"/>
      <point x="519.64" y="147.6"/>
      <point x="515.5200000000001" y="154.00000000000003"/>
      <point x="515.5200000000001" y="167.51999999999998" type="curve" smooth="yes"/>
      <point x="515.5200000000001" y="175.52"/>
      <point x="523.2" y="218.16"/>
      <point x="571.3199999999999" y="519.88" type="curve"/>
      <point x="515.68" y="539.5999999999999"/>
      <point x="417.36" y="557.2"/>
      <point x="334.8" y="557.2" type="curve" smooth="yes"/>
      <point x="136.39999999999998" y="557.2"/>
      <point x="17.52" y="434.16"/>
      <point x="17.52" y="186.64" type="curve" smooth="yes"/>
      <point x="17.52" y="54.72"/>
      <point x="84.28" y="-10.0"/>
      <point x="181.28" y="-10.0" type="curve" smooth="yes"/>
      <point x="239.99999999999997" y="-10.0"/>
      <point x="290.12000000000006" y="10.0"/>
      <point x="332.84" y="44.44000000000001" type="curve"/>
      <point x="355.76000000000005" y="9.000000000000002"/>
      <point x="398.84" y="-10.0"/>
    </contour>
    <contour>
      <point x="330.12" y="163.92" type="line"/>
      <point x="309.76" y="153.84"/>
      <point x="283.44" y="145.88"/>
      <point x="260.23999999999995" y="145.88" type="curve" smooth="yes"/>
      <point x="228.56" y="145.88"/>
      <point x="204.64" y="169.2"/>
      <point x="204.64" y="216.44" type="curve" smooth="yes"/>
      <point x="204.64" y="326.00000000000006"/>
      <point x="252.88" y="411.92"/>
      <point x="316.76" y="411.92" type="curve" smooth="yes"/>
      <point x="334.68000000000006" y="411.92"/>
      <point x="352.48" y="410.08000000000004"/>
      <point x="368.16" y="403.68" type="curve"/>
    </contour>
  </outline>
</glyph>
<glyph name="b" format="2">
  <advance width="570.564"/>
  <unicode hex="0062"/>
  <note>
12
</note>
  <outline>
    <contour>
      <point x="299.112" y="740.0" type="line"/>
      <point x="114.99199999999999" y="740.0" type="line"/>
      <point x="0.8239999999999992" y="19.572" type="line"/>
      <point x="54.696" y="5.795999999999999"/>
      <point x="136.11599999999999" y="-10.0"/>
      <point x="233.13600000000002" y="-10.0" type="curve" smooth="yes"/>
      <point x="449.0280000000001" y="-10.0"/>
      <point x="556.456" y="144.004"/>
      <point x="555.5960000000001" y="367.056" type="curve" smooth="yes"/>
      <point x="555.596" y="491.152"/>
      <point x="504.38" y="557.2"/>
      <point x="402.6959999999999" y="557.2" type="curve" smooth="yes"/>
      <point x="354.428" y="557.2"/>
      <point x="311.084" y="542.352"/>
      <point x="262.3" y="511.6240000000001" type="curve"/>
    </contour>
    <contour>
      <point x="311.088" y="398.10400000000004" type="curve" smooth="yes"/>
      <point x="351.676" y="398.10400000000004"/>
      <point x="368.89599999999996" y="374.384"/>
      <point x="368.89599999999996" y="321.05600000000004" type="curve" smooth="yes"/>
      <point x="368.89599999999996" y="236.144"/>
      <point x="331.94" y="131.036"/>
      <point x="251.99999999999997" y="131.036" type="curve" smooth="yes"/>
      <point x="234.74400000000003" y="131.036"/>
      <point x="218.16" y="133.904"/>
      <point x="204.2" y="138.46400000000003" type="curve"/>
      <point x="242.10000000000002" y="378.65599999999995" type="line"/>
      <point x="262.62399999999997" y="389.948"/>
      <point x="286.69199999999995" y="398.10400000000004"/>
    </contour>
  </outline>
</glyph>
<glyph name="c" format="2">
  <advance width="488.24000000000007"/>
  <unicode hex="0063"/>
  <note>
10
</note>
  <anchor x="250.84000000000003" y="0.0" name="bottom"/>
  <anchor x="331.0" y="547.1999999999999" name="top"/>
  <outline>
    <contour>
      <point x="251.28000000000003" y="-10.0" type="curve" smooth="yes"/>
      <point x="309.84" y="-10.0"/>
      <point x="381.64000000000004" y="-2.439999999999999"/>
      <point x="435.12" y="16.720000000000002" type="curve"/>
      <point x="422.96" y="155.68" type="line"/>
      <point x="375.64000000000004" y="146.40000000000003"/>
      <point x="343.4" y="143.28000000000003"/>
      <point x="303.87999999999994" y="143.28000000000003" type="curve" smooth="yes"/>
      <point x="241.11999999999998" y="143.28000000000003"/>
      <point x="205.96" y="177.07999999999998"/>
      <point x="205.96" y="231.36" type="curve" smooth="yes"/>
      <point x="205.96" y="325.03999999999996"/>
      <point x="251.6" y="403.64"/>
      <point x="334.88000000000005" y="403.64" type="curve" smooth="yes"/>
      <point x="375.76" y="403.64"/>
      <point x="415.20000000000005" y="399.9199999999999"/>
      <point x="457.15999999999997" y="387.63999999999993" type="curve"/>
      <point x="507.15999999999997" y="535.76" type="line"/>
      <point x="462.16" y="549.48"/>
      <point x="398.80000000000007" y="557.1999999999999"/>
      <point x="340.32" y="557.1999999999999" type="curve" smooth="yes"/>
      <point x="123.07999999999997" y="557.1999999999999"/>
      <point x="17.520000000000003" y="416.56"/>
      <point x="17.520000000000003" y="201.0" type="curve" smooth="yes"/>
      <point x="17.520000000000003" y="67.48"/>
      <point x="92.83999999999999" y="-10.0"/>
    </contour>
  </outline>
</glyph>
<glyph name="d" format="2">
  <advance width="580.6400000000001"/>
  <unicode hex="0064"/>
  <note>
17
</note>
  <anchor x="267.28000000000003" y="0.0" name="bottom"/>
  <anchor x="290.88" y="282.84000000000003" name="center"/>
  <anchor x="348.28" y="740.0" name="top"/>
  <anchor x="636.28" y="740.0" name="topright"/>
  <outline>
    <contour>
      <point x="446.76" y="-10.0" type="curve" smooth="yes"/>
      <point x="477.68" y="-10.0"/>
      <point x="515.7600000000001" y="-2.5599999999999996"/>
      <point x="537.6400000000001" y="8.599999999999998" type="curve"/>
      <point x="548.1200000000002" y="149.44000000000003" type="line"/>
      <point x="543.2800000000001" y="147.88000000000002"/>
      <point x="536.72" y="147.6"/>
      <point x="532.32" y="147.6" type="curve" smooth="yes"/>
      <point x="519.6399999999999" y="147.6"/>
      <point x="515.2399999999999" y="153.72"/>
      <point x="515.2399999999999" y="164.24" type="curve" smooth="yes"/>
      <point x="515.2399999999999" y="181.12"/>
      <point x="595.9200000000001" y="685.96"/>
      <point x="604.3199999999999" y="740.0" type="curve"/>
      <point x="420.64" y="740.0" type="line"/>
      <point x="389.36" y="542.2" type="line"/>
      <point x="363.5199999999999" y="551.9200000000002"/>
      <point x="330.52000000000004" y="557.2"/>
      <point x="293.84" y="557.2" type="curve" smooth="yes"/>
      <point x="142.0" y="557.2"/>
      <point x="17.240000000000002" y="429.03999999999996"/>
      <point x="17.240000000000002" y="189.4" type="curve" smooth="yes"/>
      <point x="17.240000000000002" y="52.88"/>
      <point x="85.56" y="-10.0"/>
      <point x="182.72" y="-10.0" type="curve" smooth="yes"/>
      <point x="240.88" y="-10.0"/>
      <point x="293.11999999999995" y="13.720000000000002"/>
      <point x="331.84" y="44.16000000000001" type="curve"/>
      <point x="354.76" y="9.719999999999999"/>
      <point x="397.55999999999995" y="-10.0"/>
    </contour>
    <contour>
      <point x="258.67999999999995" y="146.16000000000003" type="curve" smooth="yes"/>
      <point x="227.12" y="146.16000000000003"/>
      <point x="203.64" y="167.64000000000004"/>
      <point x="203.64" y="205.6" type="curve" smooth="yes"/>
      <point x="203.64" y="310.28000000000003"/>
      <point x="249.88000000000002" y="411.92"/>
      <point x="315.92" y="411.92" type="curve" smooth="yes"/>
      <point x="334.68" y="411.92"/>
      <point x="352.2" y="409.79999999999995"/>
      <point x="367.44" y="404.52000000000004" type="curve"/>
      <point x="329.12" y="163.64" type="line"/>
      <point x="308.76" y="153.84"/>
      <point x="281.72" y="146.16000000000003"/>
    </contour>
  </outline>
</glyph>
<glyph name="e" format="2">
  <advance width="532.72"/>
  <unicode hex="0065"/>
  <note>
14 points
</note>
  <anchor x="245.79999999999998" y="0.0" name="bottom"/>
  <anchor x="412.16" y="4.5600000000000005" name="ogonek"/>
  <anchor x="322.96" y="546.76" name="top"/>
  <outline>
    <contour>
      <point x="166.8" y="299.0" type="curve"/>
      <point x="156.2" y="200.12" type="line"/>
      <point x="197.75999999999996" y="195.68"/>
      <point x="243.44" y="196.95999999999995"/>
      <point x="296.44" y="204.24" type="curve" smooth="yes"/>
      <point x="443.59999999999997" y="226.8"/>
      <point x="532.76" y="303.5599999999999"/>
      <point x="532.76" y="411.47999999999996" type="curve" smooth="yes"/>
      <point x="532.76" y="499.2799999999999"/>
      <point x="458.67999999999995" y="556.48"/>
      <point x="334.44" y="556.48" type="curve" smooth="yes"/>
      <point x="123.48" y="556.48"/>
      <point x="18.080000000000002" y="405.87999999999994"/>
      <point x="18.080000000000002" y="210.2" type="curve" smooth="yes"/>
      <point x="18.080000000000002" y="69.44000000000001"/>
      <point x="107.16000000000001" y="-10.0"/>
      <point x="263.87999999999994" y="-10.0" type="curve" smooth="yes"/>
      <point x="333.91999999999996" y="-10.0"/>
      <point x="407.24" y="0.5600000000000014"/>
      <point x="471.72" y="23.84" type="curve"/>
      <point x="450.68000000000006" y="170.12000000000003" type="line"/>
      <point x="389.52000000000004" y="150.27999999999997"/>
      <point x="333.08" y="142.44000000000003"/>
      <point x="299.0" y="142.44000000000003" type="curve" smooth="yes"/>
      <point x="225.36" y="142.44000000000003"/>
      <point x="198.32" y="160.11999999999998"/>
      <point x="199.76000000000005" y="234.44" type="curve" smooth="yes"/>
      <point x="201.20000000000002" y="349.04"/>
      <point x="249.60000000000002" y="420.4"/>
      <point x="311.71999999999997" y="420.4" type="curve" smooth="yes"/>
      <point x="339.56000000000006" y="420.4"/>
      <point x="352.08000000000004" y="409.15999999999997"/>
      <point x="352.08000000000004" y="384.68" type="curve" smooth="yes"/>
      <point x="351.36" y="347.12"/>
      <point x="311.92" y="315.68"/>
      <point x="244.84000000000006" y="303.56" type="curve" smooth="yes"/>
      <point x="218.64000000000001" y="299.00000000000006"/>
      <point x="187.83999999999997" y="296.0"/>
    </contour>
  </outline>
</glyph>
<glyph name="f" format="2">
  <advance width="386.752"/>
  <unicode hex="0066"/>
  <outline>
    <contour>
      <point x="14.544000000000004" y="-220.0" type="curve" smooth="yes"/>
      <point x="127.424" y="-220.0"/>
      <point x="192.068" y="-147.17600000000002"/>
      <point x="214.904" y="-4.451999999999998" type="curve" smooth="yes"/>
      <point x="273.32399999999996" y="365.584" type="line"/>
      <point x="384.27599999999995" y="365.584" type="line"/>
      <point x="407.05600000000004" y="507.22" type="line"/>
      <point x="295.76" y="507.22" type="line"/>
      <point x="305.532" y="569.192"/>
      <point x="330.596" y="589.96"/>
      <point x="374.43600000000004" y="589.96" type="curve" smooth="yes"/>
      <point x="399.84000000000003" y="589.96"/>
      <point x="431.02000000000004" y="584.2800000000001"/>
      <point x="452.45599999999996" y="577.12" type="curve"/>
      <point x="499.47600000000006" y="720.6800000000001" type="line"/>
      <point x="458.56" y="738.036"/>
      <point x="409.24799999999993" y="750.0"/>
      <point x="352.776" y="750.0" type="curve" smooth="yes"/>
      <point x="222.324" y="750.0"/>
      <point x="134.47199999999998" y="667.548"/>
      <point x="112.1" y="507.22" type="curve"/>
      <point x="46.28" y="495.944" type="line"/>
      <point x="24.671999999999997" y="365.584" type="line"/>
      <point x="89.32" y="365.584" type="line"/>
      <point x="33.452" y="10.087999999999994" type="line" smooth="yes"/>
      <point x="25.572" y="-39.29600000000001"/>
      <point x="8.399999999999997" y="-60.41200000000001"/>
      <point x="-19.476" y="-60.41200000000001" type="curve" smooth="yes"/>
      <point x="-29.232" y="-60.41200000000001"/>
      <point x="-40.971999999999994" y="-59.388000000000005"/>
      <point x="-54.044" y="-54.96400000000001" type="curve"/>
      <point x="-94.104" y="-200.276" type="line"/>
      <point x="-59.588" y="-213.816"/>
      <point x="-25.844000000000005" y="-220.0"/>
    </contour>
  </outline>
</glyph>
<glyph name="g" format="2">
  <advance width="574.8000000000001"/>
  <unicode hex="0067"/>
  <note>
16
</note>
  <anchor x="203.2" y="-215.72" name="bottom"/>
  <anchor x="333.6" y="547.1999999999999" name="top"/>
  <outline>
    <contour>
      <point x="-17.360000000000003" y="-176.08" type="line"/>
      <point x="47.720000000000006" y="-202.39999999999998"/>
      <point x="126.95999999999998" y="-220.0"/>
      <point x="211.08" y="-220.0" type="curve" smooth="yes"/>
      <point x="377.11999999999995" y="-220.0"/>
      <point x="467.20000000000005" y="-135.07999999999996"/>
      <point x="494.08000000000004" y="36.32" type="curve" smooth="yes"/>
      <point x="572.9200000000001" y="527.0400000000001" type="line"/>
      <point x="531.48" y="541.32"/>
      <point x="421.8400000000001" y="557.1999999999999"/>
      <point x="350.59999999999997" y="557.1999999999999" type="curve" smooth="yes"/>
      <point x="110.12" y="557.1999999999999"/>
      <point x="17.68" y="407.67999999999995"/>
      <point x="17.68" y="188.88" type="curve" smooth="yes"/>
      <point x="17.68" y="79.96000000000002"/>
      <point x="73.84" y="12.799999999999997"/>
      <point x="176.27999999999997" y="12.799999999999997" type="curve" smooth="yes"/>
      <point x="209.52" y="12.799999999999997"/>
      <point x="270.96000000000004" y="25.639999999999997"/>
      <point x="312.96000000000004" y="49.96000000000001" type="curve"/>
      <point x="309.67999999999995" y="23.839999999999993" type="line" smooth="yes"/>
      <point x="300.0" y="-48.11999999999999"/>
      <point x="261.9199999999999" y="-66.84"/>
      <point x="200.20000000000002" y="-66.84" type="curve" smooth="yes"/>
      <point x="146.88" y="-66.84"/>
      <point x="81.68" y="-51.96000000000001"/>
      <point x="29.92" y="-34.959999999999994" type="curve"/>
    </contour>
    <contour>
      <point x="369.32" y="408.12000000000006" type="curve"/>
      <point x="332.00000000000006" y="171.92000000000002" type="line"/>
      <point x="312.2" y="162.12"/>
      <point x="287.20000000000005" y="155.04"/>
      <point x="269.88" y="155.04" type="curve" smooth="yes"/>
      <point x="227.84" y="155.04"/>
      <point x="206.95999999999998" y="182.0"/>
      <point x="206.95999999999998" y="236.72000000000003" type="curve" smooth="yes"/>
      <point x="206.95999999999998" y="324.88"/>
      <point x="251.48" y="416.8"/>
      <point x="321.08" y="416.8" type="curve" smooth="yes"/>
      <point x="343.99999999999994" y="416.8"/>
      <point x="357.52000000000004" y="412.68"/>
    </contour>
  </outline>
</glyph>
<glyph name="h" format="2">
  <advance width="565.4"/>
  <unicode hex="0068"/>
  <note>
16
</note>
  <anchor x="244.97599999999997" y="0.0" name="bottom"/>
  <anchor x="300.561728" y="378.6" name="center"/>
  <anchor x="350.672" y="740.0" name="top"/>
  <outline>
    <contour>
      <point x="503.12799999999993" y="165.248" type="curve" smooth="yes"/>
      <point x="503.12799999999993" y="187.48"/>
      <point x="544.232" y="403.904"/>
      <point x="544.232" y="439.296" type="curve" smooth="yes"/>
      <point x="544.232" y="508.31199999999995"/>
      <point x="504.064" y="557.2"/>
      <point x="414.024" y="557.2" type="curve" smooth="yes"/>
      <point x="360.648" y="557.2"/>
      <point x="321.14399999999995" y="542.9520000000001"/>
      <point x="261.72" y="508.0800000000001" type="curve"/>
      <point x="299.13599999999997" y="740.0" type="line"/>
      <point x="114.88" y="740.0" type="line"/>
      <point x="-3.4080000000000017" y="0.0" type="line"/>
      <point x="181.136" y="0.0" type="line"/>
      <point x="241.81599999999995" y="379.16" type="line"/>
      <point x="266.82399999999996" y="391.79999999999995"/>
      <point x="291.71200000000005" y="400.31199999999995"/>
      <point x="312.856" y="400.31199999999995" type="curve" smooth="yes"/>
      <point x="339.704" y="400.31199999999995"/>
      <point x="350.37600000000003" y="386.68"/>
      <point x="350.37600000000003" y="366.20799999999997" type="curve" smooth="yes"/>
      <point x="350.37600000000003" y="341.872"/>
      <point x="309.9920000000001" y="127.416"/>
      <point x="309.9920000000001" y="92.59200000000001" type="curve" smooth="yes"/>
      <point x="309.9920000000001" y="30.216"/>
      <point x="360.0799999999999" y="-10.0"/>
      <point x="432.5040000000001" y="-10.0" type="curve" smooth="yes"/>
      <point x="465.144" y="-10.0"/>
      <point x="501.784" y="-3.128"/>
      <point x="526.5360000000001" y="7.599999999999999" type="curve"/>
      <point x="537.4400000000002" y="150.296" type="line"/>
      <point x="531.8959999999998" y="148.736"/>
      <point x="525.048" y="147.888"/>
      <point x="520.496" y="147.888" type="curve" smooth="yes"/>
      <point x="508.96799999999996" y="147.888"/>
      <point x="503.12799999999993" y="153.864"/>
    </contour>
  </outline>
</glyph>
<glyph name="i" format="2">
  <advance width="266.616"/>
  <unicode hex="0069"/>
  <note>
Ajuster pts sur points
8
</note>
  <anchor x="89.64873599999999" y="0.0" name="bottom"/>
  <anchor x="181.884" y="0.0" name="ogonek"/>
  <anchor x="176.32326400000002" y="547.2" name="top"/>
  <outline>
    <contour>
      <point x="-2.3240000000000016" y="0.0" type="line"/>
      <point x="181.884" y="0.0" type="line"/>
      <point x="268.12" y="547.2" type="line"/>
      <point x="84.516" y="547.2" type="line"/>
    </contour>
    <contour>
      <point x="213.24399999999997" y="778.8" type="curve" smooth="yes"/>
      <point x="126.372" y="778.8"/>
      <point x="88.768" y="726.86"/>
      <point x="88.46000000000001" y="658.1999999999999" type="curve" smooth="yes"/>
      <point x="88.37599999999998" y="609.836"/>
      <point x="118.02799999999999" y="584.3240000000001"/>
      <point x="180.90399999999997" y="584.3240000000001" type="curve" smooth="yes"/>
      <point x="258.94" y="584.3240000000001"/>
      <point x="305.09200000000004" y="632.48"/>
      <point x="305.456" y="705.84" type="curve" smooth="yes"/>
      <point x="305.54" y="753.804"/>
      <point x="275.53999999999996" y="778.8"/>
    </contour>
  </outline>
</glyph>
<glyph name="j" format="2">
  <advance width="278.432"/>
  <unicode hex="006A"/>
  <note>
idem /i
12
</note>
  <outline>
    <contour>
      <point x="225.404" y="778.8" type="curve" smooth="yes"/>
      <point x="138.188" y="778.8"/>
      <point x="101.04" y="726.86"/>
      <point x="100.732" y="658.1999999999999" type="curve" smooth="yes"/>
      <point x="100.648" y="609.836"/>
      <point x="131.04799999999997" y="584.3240000000001"/>
      <point x="193.924" y="584.3240000000001" type="curve" smooth="yes"/>
      <point x="271.276" y="584.3240000000001"/>
      <point x="317.14000000000004" y="632.48"/>
      <point x="317.504" y="705.84" type="curve" smooth="yes"/>
      <point x="317.588" y="753.804"/>
      <point x="287.7" y="778.8"/>
    </contour>
    <contour>
      <point x="281.14" y="547.2" type="line"/>
      <point x="96.67600000000002" y="547.2" type="line"/>
      <point x="11.448000000000004" y="10.712000000000002" type="line" smooth="yes"/>
      <point x="3.896000000000001" y="-36.88000000000001"/>
      <point x="-10.583999999999996" y="-60.41200000000001"/>
      <point x="-41.06" y="-60.41200000000001" type="curve" smooth="yes"/>
      <point x="-50.040000000000006" y="-60.41200000000001"/>
      <point x="-62.17200000000001" y="-59.78800000000001"/>
      <point x="-74.432" y="-55.48400000000001" type="curve"/>
      <point x="-114.264" y="-206.64399999999998" type="line"/>
      <point x="-79.51599999999999" y="-216.224"/>
      <point x="-39.952" y="-220.0"/>
      <point x="-16.240000000000002" y="-220.0" type="curve" smooth="yes"/>
      <point x="116.524" y="-220.0"/>
      <point x="171.312" y="-140.712"/>
      <point x="196.632" y="19.472" type="curve" smooth="yes"/>
    </contour>
  </outline>
</glyph>
<glyph name="l" format="2">
  <advance width="308.192"/>
  <unicode hex="006C"/>
  <anchor x="134.096" y="0.0" name="bottom"/>
  <anchor x="171.086064" y="378.6" name="center"/>
  <anchor x="206.60800000000003" y="740.0" name="top"/>
  <anchor x="330.44" y="740.0" name="topright"/>
  <outline>
    <contour>
      <point x="114.648" y="740.0" type="line"/>
      <point x="22.596000000000004" y="159.23999999999998" type="line" smooth="yes"/>
      <point x="19.647999999999996" y="139.952"/>
      <point x="17.448" y="120.22399999999999"/>
      <point x="17.448" y="103.844" type="curve" smooth="yes"/>
      <point x="17.448" y="28.204"/>
      <point x="56.17200000000001" y="-10.0"/>
      <point x="136.73200000000003" y="-10.0" type="curve" smooth="yes"/>
      <point x="183.156" y="-10.0"/>
      <point x="232.15999999999997" y="0.5639999999999998"/>
      <point x="269.85200000000003" y="16.34" type="curve"/>
      <point x="280.588" y="162.456" type="line"/>
      <point x="261.47600000000006" y="158.032"/>
      <point x="248.71999999999997" y="155.808"/>
      <point x="236.568" y="155.808" type="curve" smooth="yes"/>
      <point x="218.82000000000002" y="155.808"/>
      <point x="211.00000000000003" y="164.128"/>
      <point x="211.00000000000003" y="180.332" type="curve" smooth="yes"/>
      <point x="211.00000000000003" y="187.12400000000002"/>
      <point x="211.99199999999996" y="195.32"/>
      <point x="213.644" y="205.116" type="curve" smooth="yes"/>
      <point x="298.652" y="740.0" type="line"/>
    </contour>
  </outline>
</glyph>
<glyph name="m" format="2">
  <advance width="830.0240000000001"/>
  <unicode hex="006D"/>
  <note>
24&gt;23 points
un point de trop dans la jointure avec 2e jambage
</note>
  <outline>
    <contour>
      <point x="695.776" y="-10.0" type="curve" smooth="yes"/>
      <point x="728.3040000000001" y="-10.0"/>
      <point x="767.816" y="-3.2680000000000002"/>
      <point x="791.216" y="7.515999999999999" type="curve"/>
      <point x="802.0079999999999" y="149.792" type="line"/>
      <point x="796.66" y="148.232"/>
      <point x="789.5600000000001" y="147.636"/>
      <point x="785.064" y="147.636" type="curve" smooth="yes"/>
      <point x="773.5920000000001" y="147.636"/>
      <point x="767.4720000000001" y="155.13200000000003"/>
      <point x="767.4720000000001" y="168.09200000000004" type="curve" smooth="yes"/>
      <point x="767.4720000000001" y="199.69600000000003"/>
      <point x="808.968" y="407.34799999999996"/>
      <point x="808.968" y="442.224" type="curve" smooth="yes"/>
      <point x="808.968" y="507.0559999999999"/>
      <point x="767.428" y="557.2"/>
      <point x="677.04" y="557.2" type="curve" smooth="yes"/>
      <point x="619.076" y="557.2"/>
      <point x="575.04" y="538.996"/>
      <point x="513.0559999999999" y="494.53999999999996" type="curve"/>
      <point x="498.8239999999999" y="532.284"/>
      <point x="466.48400000000004" y="557.2"/>
      <point x="404.972" y="557.2" type="curve" smooth="yes"/>
      <point x="356.14000000000004" y="557.2"/>
      <point x="305.464" y="540.8"/>
      <point x="242.80400000000003" y="500.16799999999995" type="curve"/>
      <point x="250.32000000000002" y="547.2" type="line"/>
      <point x="84.088" y="547.2" type="line"/>
      <point x="-2.4359999999999964" y="0.0" type="line"/>
      <point x="181.512" y="0.0" type="line"/>
      <point x="241.984" y="382.676" type="line"/>
      <point x="261.972" y="393.536"/>
      <point x="280.51599999999996" y="400.34"/>
      <point x="297.512" y="400.34" type="curve" smooth="yes"/>
      <point x="323.336" y="400.34"/>
      <point x="334.96000000000004" y="386.0"/>
      <point x="334.96000000000004" y="362.916" type="curve" smooth="yes"/>
      <point x="334.96000000000004" y="348.728"/>
      <point x="301.196" y="143.05599999999998"/>
      <point x="277.984" y="0.0" type="curve"/>
      <point x="460.124" y="0.0" type="line"/>
      <point x="478.69199999999995" y="115.19599999999998"/>
      <point x="500.24399999999997" y="251.468"/>
      <point x="516.068" y="351.544" type="curve" smooth="yes"/>
      <point x="516.928" y="358.024"/>
      <point x="519.1959999999999" y="374.48"/>
      <point x="519.8600000000001" y="379.672" type="curve"/>
      <point x="540.7800000000001" y="392.832"/>
      <point x="558.6600000000001" y="399.308"/>
      <point x="577.004" y="399.308" type="curve" smooth="yes"/>
      <point x="604.036" y="399.308"/>
      <point x="614.5040000000001" y="385.55600000000004"/>
      <point x="614.5040000000001" y="364.292" type="curve" smooth="yes"/>
      <point x="614.5040000000001" y="340.24399999999997"/>
      <point x="574.492" y="132.58"/>
      <point x="574.492" y="94.112" type="curve" smooth="yes"/>
      <point x="574.492" y="27.064"/>
      <point x="623.464" y="-10.0"/>
    </contour>
  </outline>
</glyph>
<glyph name="n" format="2">
  <advance width="565.232"/>
  <unicode hex="006E"/>
  <note>
16
</note>
  <anchor x="250.57199999999997" y="0.0" name="bottom"/>
  <anchor x="320.772" y="547.2" name="top"/>
  <outline>
    <contour>
      <point x="84.088" y="547.2" type="line"/>
      <point x="-2.4359999999999964" y="0.0" type="line"/>
      <point x="181.168" y="0.0" type="line"/>
      <point x="242.44400000000002" y="379.44" type="line"/>
      <point x="264.124" y="391.048"/>
      <point x="290.968" y="400.424"/>
      <point x="313.196" y="400.424" type="curve" smooth="yes"/>
      <point x="339.53200000000004" y="400.424"/>
      <point x="351.2" y="387.96400000000006"/>
      <point x="351.2" y="366.012" type="curve" smooth="yes"/>
      <point x="351.2" y="334.81999999999994"/>
      <point x="310.84400000000005" y="136.02"/>
      <point x="310.84400000000005" y="89.98400000000001" type="curve" smooth="yes"/>
      <point x="310.84400000000005" y="30.676000000000002"/>
      <point x="359.704" y="-10.0"/>
      <point x="432.01599999999996" y="-10.0" type="curve" smooth="yes"/>
      <point x="464.544" y="-10.0"/>
      <point x="503.02400000000006" y="-3.2680000000000002"/>
      <point x="526.4240000000001" y="7.515999999999999" type="curve"/>
      <point x="537.2159999999999" y="149.792" type="line"/>
      <point x="531.8679999999999" y="148.232"/>
      <point x="524.768" y="147.636"/>
      <point x="520.2719999999999" y="147.636" type="curve" smooth="yes"/>
      <point x="508.8" y="147.636"/>
      <point x="502.79200000000003" y="153.64"/>
      <point x="502.79200000000003" y="165.052" type="curve" smooth="yes"/>
      <point x="502.79200000000003" y="187.368"/>
      <point x="544.804" y="403.736"/>
      <point x="544.804" y="439.128" type="curve" smooth="yes"/>
      <point x="544.804" y="512.904"/>
      <point x="496.444" y="557.2"/>
      <point x="412.764" y="557.2" type="curve" smooth="yes"/>
      <point x="356.32" y="557.2"/>
      <point x="298.52000000000004" y="539.7399999999999"/>
      <point x="244.24" y="499.916" type="curve"/>
      <point x="251.352" y="547.2" type="line"/>
    </contour>
  </outline>
</glyph>
<glyph name="o" format="2">
  <advance width="555.76"/>
  <unicode hex="006F"/>
  <note>
8
</note>
  <anchor x="236.39999999999998" y="0.0" name="bottom"/>
  <anchor x="278.72" y="274.15999999999997" name="center"/>
  <anchor x="333.68000000000006" y="0.0" name="ogonek"/>
  <anchor x="311.0" y="547.1999999999999" name="top"/>
  <anchor x="456.79999999999995" y="537.76" name="topright"/>
  <outline>
    <contour>
      <point x="262.04" y="-10.0" type="curve" smooth="yes"/>
      <point x="450.28000000000003" y="-10.0"/>
      <point x="533.68" y="137.64000000000001"/>
      <point x="533.68" y="335.44" type="curve" smooth="yes"/>
      <point x="533.68" y="483.4000000000001"/>
      <point x="447.6" y="558.2"/>
      <point x="299.76000000000005" y="558.2" type="curve" smooth="yes"/>
      <point x="104.08000000000003" y="558.2"/>
      <point x="21.24" y="407.36"/>
      <point x="21.24" y="212.19999999999996" type="curve" smooth="yes"/>
      <point x="21.24" y="64.8"/>
      <point x="106.2" y="-10.0"/>
    </contour>
    <contour>
      <point x="263.96" y="132.12" type="curve" smooth="yes"/>
      <point x="230.60000000000002" y="131.4"/>
      <point x="206.95999999999998" y="147.55999999999997"/>
      <point x="205.51999999999998" y="191.76" type="curve" smooth="yes"/>
      <point x="202.64" y="275.84"/>
      <point x="225.95999999999998" y="414.64"/>
      <point x="290.96" y="416.08" type="curve" smooth="yes"/>
      <point x="322.2" y="416.79999999999995"/>
      <point x="347.4" y="400.64"/>
      <point x="348.84" y="358.4" type="curve" smooth="yes"/>
      <point x="351.72" y="269.56"/>
      <point x="328.40000000000003" y="133.56"/>
    </contour>
  </outline>
</glyph>
<glyph name="p" format="2">
  <advance width="570.62"/>
  <unicode hex="0070"/>
  <note>
14 point
</note>
  <outline>
    <contour>
      <point x="-35.007999999999996" y="-210.0" type="line"/>
      <point x="148.16799999999998" y="-210.0" type="line"/>
      <point x="181.33599999999998" y="-0.21600000000000008" type="line"/>
      <point x="201.876" y="-4.747999999999999"/>
      <point x="231.772" y="-9.14"/>
      <point x="266.28400000000005" y="-9.14" type="curve" smooth="yes"/>
      <point x="461.88" y="-9.14"/>
      <point x="555.5960000000001" y="156.26"/>
      <point x="555.5960000000001" y="365.16800000000006" type="curve" smooth="yes"/>
      <point x="555.5960000000001" y="488.936"/>
      <point x="505.792" y="557.2"/>
      <point x="401.08799999999997" y="557.2" type="curve" smooth="yes"/>
      <point x="338.948" y="557.2"/>
      <point x="294.912" y="533.8080000000001"/>
      <point x="249.39999999999998" y="503.08" type="curve"/>
      <point x="251.95999999999998" y="548.0400000000001" type="line"/>
      <point x="84.6" y="548.0400000000001" type="line"/>
    </contour>
    <contour>
      <point x="251.55199999999996" y="131.036" type="curve" smooth="yes"/>
      <point x="234.29600000000002" y="131.036"/>
      <point x="218.16" y="133.876"/>
      <point x="204.11599999999999" y="138.436" type="curve"/>
      <point x="242.044" y="378.6" type="line"/>
      <point x="262.12" y="389.584"/>
      <point x="288.24399999999997" y="398.10400000000004"/>
      <point x="312.808" y="398.10400000000004" type="curve" smooth="yes"/>
      <point x="352.50000000000006" y="398.10400000000004"/>
      <point x="368.89599999999996" y="375.98"/>
      <point x="368.89599999999996" y="320.832" type="curve" smooth="yes"/>
      <point x="368.89599999999996" y="235.92"/>
      <point x="332.78" y="131.036"/>
    </contour>
  </outline>
</glyph>
<glyph name="q" format="2">
  <advance width="571.668"/>
  <unicode hex="0071"/>
  <note>
12
</note>
  <outline>
    <contour>
      <point x="569.732" y="527.6279999999999" type="line"/>
      <point x="514.308" y="541.236"/>
      <point x="426.56000000000006" y="557.2"/>
      <point x="343.3" y="557.2" type="curve" smooth="yes"/>
      <point x="125.78800000000001" y="557.2"/>
      <point x="15.464" y="399.944"/>
      <point x="15.464" y="178.548" type="curve" smooth="yes"/>
      <point x="15.464" y="57.54399999999999"/>
      <point x="70.772" y="-10.0"/>
      <point x="181.488" y="-10.0" type="curve" smooth="yes"/>
      <point x="226.03599999999997" y="-10.0"/>
      <point x="264.08" y="5.924"/>
      <point x="307.25600000000003" y="35.211999999999996" type="curve"/>
      <point x="268.6120000000001" y="-210.0" type="line"/>
      <point x="451.18" y="-210.0" type="line"/>
    </contour>
    <contour>
      <point x="366.41200000000003" y="405.408" type="curve"/>
      <point x="328.316" y="166.264" type="line"/>
      <point x="306.40799999999996" y="154.08399999999997"/>
      <point x="282.87200000000007" y="146.516"/>
      <point x="260.112" y="146.516" type="curve" smooth="yes"/>
      <point x="226.028" y="146.516"/>
      <point x="201.192" y="163.488"/>
      <point x="201.192" y="224.764" type="curve" smooth="yes"/>
      <point x="201.192" y="308.304"/>
      <point x="240.06" y="413.66799999999995"/>
      <point x="316.556" y="413.66799999999995" type="curve" smooth="yes"/>
      <point x="338.72" y="413.66799999999995"/>
      <point x="353.78" y="409.884"/>
    </contour>
  </outline>
</glyph>
<glyph name="r" format="2">
  <advance width="400.35999999999996"/>
  <unicode hex="0072"/>
  <anchor x="86.544" y="0.0" name="bottom"/>
  <anchor x="272.06000000000006" y="547.2" name="top"/>
  <outline>
    <contour>
      <point x="248.544" y="547.2" type="line"/>
      <point x="84.776" y="547.2" type="line"/>
      <point x="-2.7799999999999976" y="0.0" type="line"/>
      <point x="179.908" y="0.0" type="line"/>
      <point x="236.612" y="350.00800000000004" type="line"/>
      <point x="272.968" y="371.096"/>
      <point x="300.44" y="377.636"/>
      <point x="327.644" y="377.636" type="curve" smooth="yes"/>
      <point x="345.972" y="377.636"/>
      <point x="368.104" y="374.49600000000004"/>
      <point x="390.396" y="368.44" type="curve"/>
      <point x="444.64000000000004" y="546.488" type="line"/>
      <point x="423.42800000000005" y="554.292"/>
      <point x="402.62" y="557.2"/>
      <point x="380.988" y="557.2" type="curve" smooth="yes"/>
      <point x="335.876" y="557.2"/>
      <point x="298.796" y="537.4719999999999"/>
      <point x="238.892" y="485.13599999999997" type="curve"/>
    </contour>
  </outline>
</glyph>
<glyph name="s" format="2">
  <advance width="512.0000000000001"/>
  <unicode hex="0073"/>
  <anchor x="223.44" y="0.0" name="bottom"/>
  <anchor x="304.56" y="547.1999999999999" name="top"/>
  <outline>
    <contour>
      <point x="-17.880000000000003" y="34.52" type="line"/>
      <point x="41.31999999999999" y="9.04"/>
      <point x="113.56" y="-10.0"/>
      <point x="217.2" y="-10.0" type="curve" smooth="yes"/>
      <point x="373.32" y="-10.0"/>
      <point x="475.88" y="31.200000000000006"/>
      <point x="475.88" y="181.56" type="curve" smooth="yes"/>
      <point x="475.88" y="399.64000000000004"/>
      <point x="181.16" y="295.96"/>
      <point x="181.16" y="390.40000000000003" type="curve" smooth="yes"/>
      <point x="181.16" y="414.0"/>
      <point x="212.92000000000002" y="415.8"/>
      <point x="292.08000000000004" y="415.8" type="curve" smooth="yes"/>
      <point x="345.72" y="415.8"/>
      <point x="407.64" y="404.08000000000004"/>
      <point x="457.71999999999997" y="386.48" type="curve"/>
      <point x="495.8" y="524.4399999999999" type="line"/>
      <point x="449.32000000000005" y="543.3199999999999"/>
      <point x="375.32" y="557.1999999999999"/>
      <point x="301.64" y="557.1999999999999" type="curve" smooth="yes"/>
      <point x="119.83999999999999" y="557.1999999999999"/>
      <point x="37.76" y="487.16"/>
      <point x="37.76" y="370.48" type="curve" smooth="yes"/>
      <point x="37.76" y="161.64000000000001"/>
      <point x="333.20000000000005" y="248.16000000000003"/>
      <point x="333.20000000000005" y="149.88" type="curve" smooth="yes"/>
      <point x="333.20000000000005" y="127.43999999999998"/>
      <point x="299.88" y="127.80000000000001"/>
      <point x="222.04" y="127.80000000000001" type="curve" smooth="yes"/>
      <point x="150.2" y="127.80000000000001"/>
      <point x="72.12" y="147.39999999999998"/>
      <point x="24.8" y="168.0" type="curve"/>
    </contour>
  </outline>
</glyph>
<glyph name="t" format="2">
  <advance width="381.432"/>
  <unicode hex="0074"/>
  <anchor x="174.22" y="0.0" name="bottom"/>
  <anchor x="188.608" y="279.872" name="center"/>
  <anchor x="230.58" y="659.324" name="top"/>
  <anchor x="381.752" y="773.18" name="topright"/>
  <outline>
    <contour>
      <point x="339.852" y="161.3" type="line"/>
      <point x="311.636" y="155.288"/>
      <point x="293.52000000000004" y="151.244"/>
      <point x="276.772" y="151.244" type="curve" smooth="yes"/>
      <point x="247.11199999999997" y="151.244"/>
      <point x="235.836" y="165.648"/>
      <point x="235.836" y="189.784" type="curve" smooth="yes"/>
      <point x="235.836" y="196.96399999999997"/>
      <point x="236.57600000000002" y="204.8"/>
      <point x="237.772" y="213.748" type="curve" smooth="yes"/>
      <point x="269.50800000000004" y="405.67600000000004" type="line"/>
      <point x="380.144" y="405.67600000000004" type="line"/>
      <point x="404.644" y="547.2" type="line"/>
      <point x="292.976" y="547.2" type="line"/>
      <point x="310.764" y="659.324" type="line"/>
      <point x="150.388" y="659.324" type="line"/>
      <point x="111.26400000000001" y="547.2" type="line"/>
      <point x="43.268" y="536.384" type="line"/>
      <point x="20.4" y="406.192" type="line"/>
      <point x="85.732" y="406.192" type="line"/>
      <point x="52.79200000000001" y="199.816" type="line" smooth="yes"/>
      <point x="48.072" y="171.064"/>
      <point x="44.608000000000004" y="136.84"/>
      <point x="44.608000000000004" y="114.924" type="curve" smooth="yes"/>
      <point x="44.608000000000004" y="17.268"/>
      <point x="105.36" y="-10.0"/>
      <point x="178.948" y="-10.0" type="curve" smooth="yes"/>
      <point x="232.688" y="-10.0"/>
      <point x="278.768" y="-0.6159999999999999"/>
      <point x="327.88" y="16.792" type="curve"/>
    </contour>
  </outline>
</glyph>
<glyph name="u" format="2">
  <advance width="564.12"/>
  <unicode hex="0075"/>
  <note>
15
</note>
  <anchor x="240.332" y="0.0" name="bottom"/>
  <anchor x="522.5799999999999" y="16.684" name="ogonek"/>
  <anchor x="320.42289600000004" y="547.2" name="top"/>
  <anchor x="543.196" y="547.2" name="topright"/>
  <outline>
    <contour>
      <point x="153.192" y="-10.0" type="curve" smooth="yes"/>
      <point x="208.612" y="-10.0"/>
      <point x="262.15599999999995" y="11.260000000000002"/>
      <point x="316.544" y="53.792" type="curve"/>
      <point x="331.07200000000006" y="17.552"/>
      <point x="369.88" y="-10.0"/>
      <point x="421.40399999999994" y="-10.0" type="curve" smooth="yes"/>
      <point x="456.236" y="-10.0"/>
      <point x="496.02000000000004" y="1.1680000000000006"/>
      <point x="522.5799999999999" y="20.468" type="curve"/>
      <point x="532.656" y="149.35999999999999" type="line"/>
      <point x="524.8439999999999" y="146.768"/>
      <point x="518.756" y="146.34799999999998"/>
      <point x="515.712" y="146.34799999999998" type="curve" smooth="yes"/>
      <point x="505.1040000000001" y="146.34799999999998"/>
      <point x="498.60400000000004" y="152.89600000000002"/>
      <point x="498.60400000000004" y="168.59199999999998" type="curve" smooth="yes"/>
      <point x="498.60400000000004" y="174.256"/>
      <point x="499.77200000000005" y="184.58"/>
      <point x="558.6759999999999" y="547.2" type="curve"/>
      <point x="375.87600000000003" y="547.2" type="line"/>
      <point x="314.96799999999996" y="165.41600000000003" type="line"/>
      <point x="293.66" y="153.416"/>
      <point x="268.636" y="145.056"/>
      <point x="245.42800000000003" y="145.056" type="curve" smooth="yes"/>
      <point x="220.43200000000002" y="145.056"/>
      <point x="206.888" y="157.5"/>
      <point x="207.92" y="182.48" type="curve" smooth="yes"/>
      <point x="217.208" y="253.928"/>
      <point x="231.27999999999997" y="337.528"/>
      <point x="265.952" y="547.2" type="curve"/>
      <point x="82.69200000000001" y="547.2" type="line"/>
      <point x="31.72" y="231.832"/>
      <point x="15.888000000000005" y="152.75199999999998"/>
      <point x="15.888000000000005" y="107.96000000000001" type="curve" smooth="yes"/>
      <point x="15.888000000000005" y="37.088"/>
      <point x="63.00800000000001" y="-10.0"/>
    </contour>
  </outline>
</glyph>
<glyph name="v" format="2">
  <advance width="518.648"/>
  <unicode hex="0076"/>
  <outline>
    <contour>
      <point x="307.116" y="0.06399999999999983" type="line"/>
      <point x="438.20799999999997" y="206.936"/>
      <point x="531.852" y="371.79999999999995"/>
      <point x="546.784" y="547.2" type="curve"/>
      <point x="354.72" y="547.2" type="line"/>
      <point x="349.548" y="426.43199999999996"/>
      <point x="303.336" y="308.50800000000004"/>
      <point x="227.564" y="155.3" type="curve"/>
      <point x="227.272" y="547.76" type="line"/>
      <point x="32.628" y="547.168" type="line"/>
      <point x="86.94" y="0.06399999999999983" type="line"/>
    </contour>
  </outline>
</glyph>
<glyph name="w" format="2">
  <advance width="752.4760000000001"/>
  <unicode hex="0077"/>
  <note>
15
</note>
  <anchor x="331.70799999999997" y="0.0" name="bottom"/>
  <anchor x="403.17999999999995" y="547.2" name="top"/>
  <outline>
    <contour>
      <point x="562.9639999999999" y="0.0" type="line"/>
      <point x="690.6759999999999" y="219.09199999999998"/>
      <point x="772.4599999999999" y="393.388"/>
      <point x="773.332" y="547.2" type="curve"/>
      <point x="601.104" y="547.2" type="line"/>
      <point x="595.8240000000001" y="427.156"/>
      <point x="560.548" y="313.41999999999996"/>
      <point x="480.1959999999999" y="152.84799999999998" type="curve"/>
      <point x="514.692" y="542.644" type="line"/>
      <point x="310.68399999999997" y="542.644" type="line"/>
      <point x="269.14399999999995" y="399.20399999999995"/>
      <point x="226.00799999999998" y="282.296"/>
      <point x="180.628" y="153.59199999999998" type="curve"/>
      <point x="217.072" y="547.76" type="line"/>
      <point x="38.196" y="547.224" type="line"/>
      <point x="37.37200000000001" y="0.0" type="line"/>
      <point x="260.416" y="0.0" type="line"/>
      <point x="300.532" y="99.38"/>
      <point x="345.232" y="220.676"/>
      <point x="376.51599999999996" y="313.46400000000006" type="curve"/>
      <point x="354.99999999999994" y="0.0" type="line"/>
    </contour>
  </outline>
</glyph>
<glyph name="x" format="2">
  <advance width="547.352"/>
  <unicode hex="0078"/>
  <outline>
    <contour>
      <point x="389.832" y="547.2" type="line"/>
      <point x="380.32" y="468.76000000000005"/>
      <point x="358.57599999999996" y="424.384"/>
      <point x="298.912" y="355.344" type="curve"/>
      <point x="269.928" y="549.024" type="line"/>
      <point x="69.048" y="547.496" type="line"/>
      <point x="144.936" y="282.632" type="line"/>
      <point x="65.744" y="204.352"/>
      <point x="-0.7599999999999989" y="113.63199999999999"/>
      <point x="-23.64" y="0.0" type="curve"/>
      <point x="175.0" y="0.0" type="line"/>
      <point x="195.90400000000002" y="97.4"/>
      <point x="236.752" y="154.544"/>
      <point x="271.75999999999993" y="198.96" type="curve"/>
      <point x="301.312" y="-1.1360000000000001" type="line"/>
      <point x="505.36" y="-0.016000000000000014" type="line"/>
      <point x="424.46399999999994" y="273.64" type="line"/>
      <point x="515.072" y="368.63200000000006"/>
      <point x="561.272" y="467.896"/>
      <point x="582.864" y="547.2" type="curve"/>
    </contour>
  </outline>
</glyph>
<glyph name="y" format="2">
  <advance width="537.9200000000001"/>
  <unicode hex="0079"/>
  <anchor x="366.12" y="-58.80000000000001" name="bottom"/>
  <anchor x="305.15999999999997" y="547.1999999999999" name="top"/>
  <outline>
    <contour>
      <point x="413.67999999999995" y="545.16" type="line"/>
      <point x="416.84" y="455.44"/>
      <point x="336.92" y="296.76"/>
      <point x="247.96" y="135.08" type="curve"/>
      <point x="191.84" y="548.6" type="line"/>
      <point x="34.12" y="546.5999999999999" type="line"/>
      <point x="128.20000000000002" y="-3.44" type="line"/>
      <point x="174.68" y="-3.44" type="line"/>
      <point x="136.12" y="-66.52000000000001"/>
      <point x="90.83999999999999" y="-130.20000000000002"/>
      <point x="34.64" y="-208.28" type="curve"/>
      <point x="186.16" y="-211.4" type="line"/>
      <point x="363.03999999999996" y="78.72000000000001"/>
      <point x="561.68" y="369.44"/>
      <point x="568.84" y="546.32" type="curve"/>
    </contour>
  </outline>
</glyph>
<glyph name="z" format="2">
  <advance width="512.2040000000001"/>
  <unicode hex="007A"/>
  <anchor x="221.432" y="0.0" name="bottom"/>
  <anchor x="257.36400000000003" y="275.0" name="center"/>
  <anchor x="301.192" y="547.2" name="top"/>
  <outline>
    <contour>
      <point x="-10.040000000000003" y="0.0" type="line"/>
      <point x="446.572" y="0.0" type="line"/>
      <point x="469.696" y="144.42" type="line"/>
      <point x="239.07600000000002" y="144.42" type="line"/>
      <point x="492.768" y="410.86400000000003" type="line"/>
      <point x="518.644" y="547.2" type="line"/>
      <point x="84.77600000000001" y="547.2" type="line"/>
      <point x="60.792" y="401.748" type="line"/>
      <point x="271.07599999999996" y="401.748" type="line"/>
      <point x="9.847999999999999" y="128.08" type="line"/>
    </contour>
  </outline>
</glyph>
<glyph name="braceleft" format="2">
  <advance width="336.624"/>
  <unicode hex="007B"/>
  <outline>
    <contour>
      <point x="17.6" y="-84.03999999999999" type="curve" smooth="yes"/>
      <point x="17.6" y="-173.16"/>
      <point x="72.592" y="-210.0"/>
      <point x="145.756" y="-210.0" type="curve" smooth="yes"/>
      <point x="235.136" y="-210.0" type="line"/>
      <point x="257.572" y="-76.48" type="line"/>
      <point x="218.244" y="-76.48" type="line" smooth="yes"/>
      <point x="191.252" y="-76.48"/>
      <point x="179.848" y="-61.60000000000001"/>
      <point x="179.848" y="-36.087999999999994" type="curve" smooth="yes"/>
      <point x="179.848" y="36.448"/>
      <point x="237.48000000000002" y="94.516"/>
      <point x="237.48000000000002" y="170.168" type="curve" smooth="yes"/>
      <point x="237.48000000000002" y="206.67999999999998"/>
      <point x="225.292" y="239.848"/>
      <point x="187.392" y="265.7" type="curve"/>
      <point x="247.912" y="301.16799999999995"/>
      <point x="278.96000000000004" y="358.244"/>
      <point x="278.96000000000004" y="425.62000000000006" type="curve" smooth="yes"/>
      <point x="278.96000000000004" y="458.59999999999997"/>
      <point x="270.484" y="481.85200000000003"/>
      <point x="270.484" y="520.8599999999999" type="curve" smooth="yes"/>
      <point x="270.484" y="560.256"/>
      <point x="285.38000000000005" y="606.4799999999999"/>
      <point x="329.7" y="606.4799999999999" type="curve" smooth="yes"/>
      <point x="367.66" y="606.4799999999999" type="line"/>
      <point x="389.06399999999996" y="740.0" type="line"/>
      <point x="300.104" y="740.0" type="line" smooth="yes"/>
      <point x="173.54" y="740.0"/>
      <point x="115.06000000000002" y="635.596"/>
      <point x="115.06000000000002" y="515.976" type="curve" smooth="yes"/>
      <point x="115.06000000000002" y="473.456"/>
      <point x="124.74" y="443.85200000000003"/>
      <point x="124.74" y="410.81199999999995" type="curve" smooth="yes"/>
      <point x="124.74" y="371.15999999999997"/>
      <point x="112.944" y="334.264"/>
      <point x="77.552" y="334.264" type="curve" smooth="yes"/>
      <point x="62.724000000000004" y="334.264" type="line"/>
      <point x="40.804" y="196.928" type="line"/>
      <point x="55.52" y="196.928" type="line" smooth="yes"/>
      <point x="78.328" y="196.928"/>
      <point x="86.03600000000002" y="185.544"/>
      <point x="86.03600000000002" y="165.2" type="curve" smooth="yes"/>
      <point x="86.03600000000002" y="100.324"/>
      <point x="17.6" y="17.240000000000002"/>
    </contour>
  </outline>
</glyph>
<glyph name="bar" format="2">
  <advance width="227.744"/>
  <unicode hex="007C"/>
  <outline>
    <contour>
      <point x="270.06" y="790.516" type="line"/>
      <point x="122.2" y="790.516" type="line"/>
      <point x="-37.831999999999994" y="-210.0" type="line"/>
      <point x="110.20000000000002" y="-210.0" type="line"/>
    </contour>
  </outline>
</glyph>
<glyph name="braceright" format="2">
  <advance width="336.624"/>
  <unicode hex="007D"/>
  <outline>
    <contour>
      <point x="315.968" y="614.0400000000001" type="curve" smooth="yes"/>
      <point x="315.968" y="703.676"/>
      <point x="260.46" y="740.516"/>
      <point x="187.29600000000002" y="740.516" type="curve" smooth="yes"/>
      <point x="97.916" y="740.516" type="line"/>
      <point x="75.47999999999999" y="606.996" type="line"/>
      <point x="109.648" y="606.996" type="line" smooth="yes"/>
      <point x="137.156" y="606.996"/>
      <point x="149.076" y="591.6000000000001"/>
      <point x="149.076" y="566.088" type="curve" smooth="yes"/>
      <point x="149.076" y="492.52000000000004"/>
      <point x="91.444" y="445.528"/>
      <point x="91.444" y="359.04" type="curve" smooth="yes"/>
      <point x="91.444" y="324.076"/>
      <point x="103.11599999999999" y="290.908"/>
      <point x="142.048" y="265.572" type="curve"/>
      <point x="81.528" y="229.58800000000002"/>
      <point x="49.964000000000006" y="173.54400000000004"/>
      <point x="49.964000000000006" y="105.65200000000002" type="curve" smooth="yes"/>
      <point x="49.964000000000006" y="72.67200000000001"/>
      <point x="58.440000000000005" y="48.664"/>
      <point x="58.440000000000005" y="10.688000000000002" type="curve" smooth="yes"/>
      <point x="58.440000000000005" y="-28.708"/>
      <point x="44.06" y="-75.964"/>
      <point x="-0.259999999999998" y="-75.964" type="curve" smooth="yes"/>
      <point x="-34.092" y="-75.964" type="line"/>
      <point x="-55.495999999999995" y="-210.0" type="line"/>
      <point x="32.94800000000001" y="-210.0" type="line" smooth="yes"/>
      <point x="159.512" y="-210.0"/>
      <point x="217.99200000000002" y="-98.88799999999999"/>
      <point x="217.99200000000002" y="4.219999999999999" type="curve" smooth="yes"/>
      <point x="217.99200000000002" y="60.672"/>
      <point x="208.312" y="93.09599999999999"/>
      <point x="208.312" y="122.524" type="curve" smooth="yes"/>
      <point x="208.312" y="161.144"/>
      <point x="221.14" y="197.008"/>
      <point x="255.5" y="197.008" type="curve" smooth="yes"/>
      <point x="270.32800000000003" y="197.008" type="line"/>
      <point x="292.248" y="333.82800000000003" type="line"/>
      <point x="277.532" y="333.82800000000003" type="line" smooth="yes"/>
      <point x="254.72400000000002" y="333.82800000000003"/>
      <point x="247.016" y="345.212"/>
      <point x="247.016" y="365.556" type="curve" smooth="yes"/>
      <point x="247.016" y="430.94800000000004"/>
      <point x="315.968" y="505.536"/>
    </contour>
  </outline>
</glyph>
<glyph name="asciitilde" format="2">
  <advance width="515.168"/>
  <unicode hex="007E"/>
  <outline>
    <contour>
      <point x="452.376" y="232.94" type="curve"/>
      <point x="475.64000000000004" y="387.74399999999997" type="line"/>
      <point x="446.272" y="362.08000000000004"/>
      <point x="415.264" y="351.73199999999997"/>
      <point x="379.376" y="351.73199999999997" type="curve" smooth="yes"/>
      <point x="286.04" y="351.73199999999997"/>
      <point x="246.024" y="428.84000000000003"/>
      <point x="172.20000000000002" y="428.84000000000003" type="curve" smooth="yes"/>
      <point x="123.78" y="428.84000000000003"/>
      <point x="86.72800000000001" y="403.97599999999994"/>
      <point x="76.764" y="394.96000000000004" type="curve"/>
      <point x="51.78" y="240.1" type="line"/>
      <point x="71.77600000000001" y="254.76000000000002"/>
      <point x="103.844" y="273.30400000000003"/>
      <point x="147.3" y="273.30400000000003" type="curve" smooth="yes"/>
      <point x="234.42400000000004" y="273.30400000000003"/>
      <point x="272.404" y="196.19599999999997"/>
      <point x="360.752" y="196.19599999999997" type="curve" smooth="yes"/>
      <point x="390.756" y="196.19599999999997"/>
      <point x="425.696" y="208.90400000000002"/>
    </contour>
  </outline>
</glyph>
<glyph name="cent" format="2">
  <advance width="656.824"/>
  <unicode hex="00A2"/>
  <outline>
    <contour>
      <point x="216.688" y="-105.172" type="line"/>
      <point x="358.35600000000005" y="-105.172" type="line"/>
      <point x="374.21600000000007" y="-5.472" type="line"/>
      <point x="424.116" y="-2.3560000000000016"/>
      <point x="470.328" y="4.603999999999999"/>
      <point x="509.1119999999999" y="17.048" type="curve"/>
      <point x="508.58000000000004" y="172.19199999999998" type="line"/>
      <point x="456.56" y="162.78799999999998"/>
      <point x="421.76800000000003" y="157.61200000000002"/>
      <point x="389.24" y="157.61200000000002" type="curve" smooth="yes"/>
      <point x="326.696" y="157.61200000000002"/>
      <point x="299.028" y="186.64000000000001"/>
      <point x="299.028" y="231.22" type="curve" smooth="yes"/>
      <point x="299.028" y="315.372"/>
      <point x="346.984" y="387.184"/>
      <point x="420.43600000000004" y="387.184" type="curve" smooth="yes"/>
      <point x="457.276" y="387.184"/>
      <point x="484.144" y="382.716"/>
      <point x="531.828" y="371.22400000000005" type="curve"/>
      <point x="582.976" y="534.332" type="line"/>
      <point x="545.4" y="544.588"/>
      <point x="512.188" y="552.2159999999999"/>
      <point x="463.956" y="554.536" type="curve"/>
      <point x="480.244" y="651.6840000000001" type="line"/>
      <point x="338.57599999999996" y="651.6840000000001" type="line"/>
      <point x="320.224" y="540.72" type="line"/>
      <point x="179.348" y="489.888"/>
      <point x="105.964" y="329.12800000000004"/>
      <point x="105.964" y="174.57999999999998" type="curve" smooth="yes"/>
      <point x="105.964" y="76.492"/>
      <point x="150.916" y="22.635999999999996"/>
      <point x="233.61200000000002" y="2.3519999999999994" type="curve"/>
    </contour>
  </outline>
</glyph>
<glyph name="sterling" format="2">
  <advance width="657.16"/>
  <unicode hex="00A3"/>
  <outline>
    <contour>
      <point x="53.27199999999999" y="0.0" type="line"/>
      <point x="521.632" y="0.0" type="line"/>
      <point x="545.2719999999999" y="151.0" type="line"/>
      <point x="290.95199999999994" y="151.0" type="line"/>
      <point x="330.94399999999996" y="189.42400000000004"/>
      <point x="359.03200000000004" y="232.768"/>
      <point x="359.03200000000004" y="294.4800000000001" type="curve" smooth="yes"/>
      <point x="359.03200000000004" y="336.688"/>
      <point x="336.496" y="396.55999999999995"/>
      <point x="336.496" y="443.784" type="curve" smooth="yes"/>
      <point x="336.496" y="513.208"/>
      <point x="382.03200000000004" y="546.2399999999999"/>
      <point x="451.92800000000005" y="546.2399999999999" type="curve" smooth="yes"/>
      <point x="498.20000000000005" y="546.2399999999999"/>
      <point x="533.8639999999999" y="541.2479999999999"/>
      <point x="576.544" y="525.6879999999999" type="curve"/>
      <point x="625.672" y="672.9680000000001" type="line"/>
      <point x="569.664" y="697.84"/>
      <point x="517.408" y="710.0"/>
      <point x="444.02400000000006" y="710.0" type="curve" smooth="yes"/>
      <point x="293.37600000000003" y="710.0"/>
      <point x="159.40800000000002" y="613.936"/>
      <point x="159.40800000000002" y="471.57599999999996" type="curve" smooth="yes"/>
      <point x="159.40800000000002" y="399.464"/>
      <point x="188.4" y="340.256"/>
      <point x="188.4" y="283.8879999999999" type="curve" smooth="yes"/>
      <point x="188.4" y="214.728"/>
      <point x="140.00000000000003" y="162.63199999999998"/>
      <point x="71.328" y="118.32" type="curve"/>
    </contour>
    <contour>
      <point x="93.464" y="305.98400000000004" type="line"/>
      <point x="495.456" y="305.984" type="line"/>
      <point x="510.32799999999986" y="401.62399999999997" type="line"/>
      <point x="108.04800000000002" y="401.62399999999997" type="line"/>
    </contour>
  </outline>
</glyph>
<glyph name="currency" format="2">
  <advance width="451.85600000000005"/>
  <unicode hex="00A4"/>
  <outline>
    <contour>
      <point x="101.30000000000001" y="93.564" type="line"/>
      <point x="169.83599999999998" y="158.072" type="line"/>
      <point x="180.18400000000003" y="153.55200000000002"/>
      <point x="192.744" y="151.66799999999998"/>
      <point x="206.57600000000002" y="151.66799999999998" type="curve" smooth="yes"/>
      <point x="220.008" y="151.66799999999998"/>
      <point x="233.012" y="153.608"/>
      <point x="245.316" y="157.9" type="curve"/>
      <point x="294.608" y="93.564" type="line"/>
      <point x="400.624" y="193.73600000000002" type="line"/>
      <point x="360.41999999999996" y="246.892" type="line"/>
      <point x="372.056" y="267.724"/>
      <point x="379.39200000000005" y="291.156"/>
      <point x="380.42400000000004" y="316.496" type="curve" smooth="yes"/>
      <point x="381.456" y="329.088"/>
      <point x="380.272" y="341.888"/>
      <point x="377.872" y="353.812" type="curve"/>
      <point x="434.596" y="406.96799999999996" type="line"/>
      <point x="360.70000000000005" y="507.14" type="line"/>
      <point x="292.452" y="444.352" type="line"/>
      <point x="281.38800000000003" y="448.70000000000005"/>
      <point x="268.372" y="451.24"/>
      <point x="254.08" y="451.24" type="curve" smooth="yes"/>
      <point x="239.732" y="451.24"/>
      <point x="226.096" y="448.184"/>
      <point x="213.448" y="444.18" type="curve"/>
      <point x="167.04800000000003" y="507.14" type="line"/>
      <point x="60.168000000000006" y="406.96799999999996" type="line"/>
      <point x="99.892" y="353.036" type="line"/>
      <point x="88.544" y="333.724"/>
      <point x="81.864" y="311.236"/>
      <point x="80.83200000000001" y="287.5" type="curve" smooth="yes"/>
      <point x="79.8" y="273.67999999999995"/>
      <point x="80.468" y="259.764"/>
      <point x="83.212" y="247.61200000000002" type="curve"/>
      <point x="25.852" y="193.73600000000002" type="line"/>
    </contour>
    <contour>
      <point x="223.82000000000002" y="258.52799999999996" type="curve" smooth="yes"/>
      <point x="202.544" y="258.52799999999996"/>
      <point x="189.704" y="273.07199999999995"/>
      <point x="191.25199999999998" y="295.772" type="curve" smooth="yes"/>
      <point x="192.79999999999998" y="322.48"/>
      <point x="213.012" y="343.864"/>
      <point x="237.148" y="343.864" type="curve" smooth="yes"/>
      <point x="258.85200000000003" y="343.864"/>
      <point x="271.092" y="327.14"/>
      <point x="269.544" y="305.78799999999995" type="curve" smooth="yes"/>
      <point x="267.996" y="277.1"/>
      <point x="247.464" y="258.52799999999996"/>
    </contour>
  </outline>
</glyph>
<glyph name="yen" format="2">
  <advance width="701.8000000000001"/>
  <unicode hex="00A5"/>
  <outline>
    <contour>
      <point x="102.24" y="293.67999999999995" type="line"/>
      <point x="279.76" y="293.67999999999995" type="line"/>
      <point x="273.35999999999996" y="250.96" type="line"/>
      <point x="95.4" y="250.96" type="line"/>
      <point x="82.24000000000001" y="165.56000000000003" type="line"/>
      <point x="260.2" y="165.56000000000003" type="line"/>
      <point x="233.36" y="0.0" type="line"/>
      <point x="383.88" y="0.0" type="line"/>
      <point x="411.72" y="165.56000000000003" type="line"/>
      <point x="588.64" y="165.56000000000003" type="line"/>
      <point x="601.52" y="250.96" type="line"/>
      <point x="423.88" y="250.96" type="line"/>
      <point x="430.28" y="293.67999999999995" type="line"/>
      <point x="608.64" y="293.67999999999995" type="line"/>
      <point x="621.8000000000001" y="379.24" type="line"/>
      <point x="443.72" y="379.24" type="line"/>
      <point x="714.6400000000001" y="697.56" type="line"/>
      <point x="556.0799999999999" y="701.12" type="line"/>
      <point x="382.48" y="472.52" type="line"/>
      <point x="282.15999999999997" y="702.0" type="line"/>
      <point x="121.16" y="697.56" type="line"/>
      <point x="293.64000000000004" y="379.24" type="line"/>
      <point x="115.67999999999999" y="379.24" type="line"/>
    </contour>
  </outline>
</glyph>
<glyph name="brokenbar" format="2">
  <advance width="230.408"/>
  <unicode hex="00A6"/>
  <outline>
    <contour>
      <point x="207.78" y="391.0" type="line"/>
      <point x="273.15599999999995" y="790.516" type="line"/>
      <point x="125.296" y="790.516" type="line"/>
      <point x="59.92" y="391.0" type="line"/>
    </contour>
    <contour>
      <point x="27.028000000000006" y="190.51600000000002" type="line"/>
      <point x="-37.74799999999999" y="-210.0" type="line"/>
      <point x="109.76799999999999" y="-210.0" type="line"/>
      <point x="175.06" y="190.51600000000002" type="line"/>
    </contour>
  </outline>
</glyph>
<glyph name="section" format="2">
  <advance width="519.768"/>
  <unicode hex="00A7"/>
  <outline>
    <contour>
      <point x="20.576" y="-15.656000000000011" type="curve"/>
      <point x="-41.896" y="-184.736" type="line"/>
      <point x="7.672000000000001" y="-205.64399999999998"/>
      <point x="76.976" y="-220.0"/>
      <point x="125.14" y="-220.0" type="curve" smooth="yes"/>
      <point x="333.82" y="-220.0"/>
      <point x="470.936" y="-40.452"/>
      <point x="470.936" y="158.388" type="curve" smooth="yes"/>
      <point x="470.936" y="301.79600000000005"/>
      <point x="378.97200000000004" y="394.44"/>
      <point x="378.97200000000004" y="490.972" type="curve" smooth="yes"/>
      <point x="378.97200000000004" y="536.528"/>
      <point x="403.652" y="566.524"/>
      <point x="440.132" y="566.524" type="curve" smooth="yes"/>
      <point x="453.264" y="566.524"/>
      <point x="463.288" y="562.276"/>
      <point x="477.924" y="555.3399999999999" type="curve"/>
      <point x="534.74" y="728.2479999999999" type="line"/>
      <point x="499.064" y="742.484"/>
      <point x="440.392" y="749.516"/>
      <point x="400.296" y="749.516" type="curve" smooth="yes"/>
      <point x="177.01600000000002" y="749.516"/>
      <point x="50.123999999999995" y="578.848"/>
      <point x="50.123999999999995" y="386.66" type="curve" smooth="yes"/>
      <point x="50.123999999999995" y="224.2"/>
      <point x="143.764" y="112.612"/>
      <point x="143.764" y="18.407999999999998" type="curve" smooth="yes"/>
      <point x="143.764" y="-11.496000000000002"/>
      <point x="127.52000000000001" y="-39.512000000000015"/>
      <point x="94.89200000000001" y="-39.512000000000015" type="curve" smooth="yes"/>
      <point x="71.58800000000001" y="-39.512000000000015"/>
      <point x="46.327999999999996" y="-31.82"/>
    </contour>
    <contour>
      <point x="332.652" y="639.732" type="curve"/>
      <point x="268.184" y="597.4359999999999"/>
      <point x="247.764" y="529.8480000000001"/>
      <point x="247.764" y="467.688" type="curve" smooth="yes"/>
      <point x="247.764" y="354.296"/>
      <point x="331.33199999999994" y="232.36"/>
      <point x="331.33199999999994" y="122.86800000000001" type="curve" smooth="yes"/>
      <point x="331.33199999999994" y="10.144000000000005"/>
      <point x="274.652" y="-120.64399999999999"/>
      <point x="150.308" y="-125.97599999999998" type="curve"/>
      <point x="237.244" y="-99.02"/>
      <point x="276.488" y="-14.467999999999998"/>
      <point x="276.488" y="61.48399999999999" type="curve" smooth="yes"/>
      <point x="276.488" y="173.632"/>
      <point x="192.792" y="291.24"/>
      <point x="192.792" y="408.32000000000005" type="curve" smooth="yes"/>
      <point x="192.792" y="508.824"/>
      <point x="234.384" y="614.1"/>
    </contour>
  </outline>
</glyph>
<glyph name="copyright" format="2">
  <advance width="774.228"/>
  <unicode hex="00A9"/>
  <outline>
    <contour>
      <point x="373.25600000000003" y="-10.399999999999999" type="curve" smooth="yes"/>
      <point x="629.7439999999999" y="-11.488"/>
      <point x="738.6039999999999" y="131.144"/>
      <point x="738.6039999999999" y="357.252" type="curve" smooth="yes"/>
      <point x="738.6039999999999" y="561.7919999999999"/>
      <point x="647.704" y="707.764"/>
      <point x="427.6039999999999" y="708.852" type="curve" smooth="yes"/>
      <point x="171.43999999999997" y="709.9399999999999"/>
      <point x="59.108000000000004" y="569.2919999999999"/>
      <point x="59.108000000000004" y="341.6" type="curve" smooth="yes"/>
      <point x="59.108000000000004" y="137.684"/>
      <point x="150.35999999999996" y="-9.312"/>
    </contour>
    <contour>
      <point x="388.284" y="141.576" type="curve" smooth="yes"/>
      <point x="431.656" y="141.576"/>
      <point x="476.172" y="151.528"/>
      <point x="506.496" y="165.17200000000003" type="curve"/>
      <point x="501.40799999999996" y="252.268" type="line"/>
      <point x="474.57199999999995" y="243.836"/>
      <point x="444.576" y="238.49200000000002"/>
      <point x="419.936" y="238.49200000000002" type="curve" smooth="yes"/>
      <point x="376.34000000000003" y="238.49200000000002"/>
      <point x="351.968" y="265.048"/>
      <point x="351.968" y="312.09599999999995" type="curve" smooth="yes"/>
      <point x="351.968" y="391.74799999999993"/>
      <point x="386.216" y="454.972"/>
      <point x="447.28399999999993" y="454.972" type="curve" smooth="yes"/>
      <point x="473.124" y="454.972"/>
      <point x="495.37999999999994" y="452.316"/>
      <point x="520.888" y="445.46" type="curve"/>
      <point x="548.088" y="543.988" type="line"/>
      <point x="523.0319999999999" y="552.9639999999999"/>
      <point x="490.28000000000003" y="558.8839999999999"/>
      <point x="448.536" y="558.8839999999999" type="curve" smooth="yes"/>
      <point x="333.084" y="558.8839999999999"/>
      <point x="239.78399999999996" y="463.59999999999997"/>
      <point x="239.78399999999996" y="308.344" type="curve" smooth="yes"/>
      <point x="239.78399999999996" y="198.28400000000002"/>
      <point x="295.684" y="141.576"/>
    </contour>
    <contour>
      <point x="381.388" y="51.568" type="curve" smooth="yes"/>
      <point x="196.1" y="51.568"/>
      <point x="127.436" y="166.68000000000004"/>
      <point x="127.436" y="344.08" type="curve" smooth="yes"/>
      <point x="127.436" y="530.048"/>
      <point x="201.54399999999998" y="646.9959999999999"/>
      <point x="419.7" y="646.9959999999999" type="curve" smooth="yes"/>
      <point x="599.5479999999999" y="646.9959999999999"/>
      <point x="670.276" y="531.7719999999999"/>
      <point x="670.276" y="355.46000000000004" type="curve" smooth="yes"/>
      <point x="670.276" y="170.292"/>
      <point x="598.7439999999999" y="51.568"/>
    </contour>
  </outline>
</glyph>
<glyph name="ordfeminine" format="2">
  <advance width="393.096"/>
  <unicode hex="00AA"/>
  <outline>
    <contour>
      <point x="24.608" y="223.60399999999998" type="line"/>
      <point x="350.54" y="223.60399999999998" type="line"/>
      <point x="364.892" y="316.772" type="line"/>
      <point x="38.96" y="316.772" type="line"/>
    </contour>
    <component base="a.superior" xOffset="8.728"/>
  </outline>
</glyph>
<glyph name="logicalnot" format="2">
  <advance width="511.8"/>
  <unicode hex="00AC"/>
  <outline>
    <contour>
      <point x="53.724000000000004" y="303.84400000000005" type="line"/>
      <point x="318.36" y="303.84400000000005" type="line"/>
      <point x="298.144" y="169.432" type="line"/>
      <point x="445.572" y="169.432" type="line"/>
      <point x="490.80400000000003" y="454.284" type="line"/>
      <point x="78.74" y="454.284" type="line"/>
    </contour>
  </outline>
</glyph>
<glyph name="registered" format="2">
  <advance width="670.448"/>
  <unicode hex="00AE"/>
  <outline>
    <contour>
      <point x="332.40400000000005" y="208.91199999999998" type="curve" smooth="yes"/>
      <point x="547.956" y="208.91199999999998"/>
      <point x="673.028" y="362.668"/>
      <point x="673.028" y="602.1080000000001" type="curve" smooth="yes"/>
      <point x="673.028" y="776.816"/>
      <point x="586.0840000000001" y="893.056"/>
      <point x="423.81600000000003" y="893.056" type="curve" smooth="yes"/>
      <point x="208.264" y="893.056"/>
      <point x="85.30399999999999" y="738.3"/>
      <point x="85.30399999999999" y="499.85999999999996" type="curve" smooth="yes"/>
      <point x="85.30399999999999" y="325.264"/>
      <point x="170.02399999999997" y="208.91199999999998"/>
    </contour>
    <contour>
      <point x="338.5319999999999" y="267.36400000000003" type="curve" smooth="yes"/>
      <point x="211.044" y="267.36400000000003"/>
      <point x="147.132" y="364.192"/>
      <point x="147.132" y="498.67999999999995" type="curve" smooth="yes"/>
      <point x="147.132" y="709.6600000000001"/>
      <point x="243.26800000000003" y="833.7159999999999"/>
      <point x="417.8" y="833.7159999999999" type="curve" smooth="yes"/>
      <point x="545.288" y="833.7159999999999"/>
      <point x="611.1999999999999" y="737.776"/>
      <point x="611.1999999999999" y="602.288" type="curve" smooth="yes"/>
      <point x="611.1999999999999" y="391.30800000000005"/>
      <point x="512.952" y="267.36400000000003"/>
    </contour>
    <contour>
      <point x="222.496" y="369.1" type="line"/>
      <point x="320.68" y="369.1" type="line"/>
      <point x="338.496" y="482.464" type="line"/>
      <point x="347.48799999999994" y="481.896"/>
      <point x="356.016" y="481.216"/>
      <point x="367.096" y="481.41200000000003" type="curve"/>
      <point x="411.212" y="498.76" type="line"/>
      <point x="485.07599999999996" y="500.21199999999993"/>
      <point x="541.6519999999999" y="547.2159999999999"/>
      <point x="541.6519999999999" y="640.416" type="curve" smooth="yes"/>
      <point x="541.6519999999999" y="707.596"/>
      <point x="500.956" y="742.192"/>
      <point x="408.028" y="742.192" type="curve" smooth="yes"/>
      <point x="374.91999999999996" y="742.192"/>
      <point x="334.24" y="740.3879999999999"/>
      <point x="281.468" y="735.6999999999999" type="curve"/>
    </contour>
    <contour>
      <point x="376.056" y="554.3399999999999" type="curve" smooth="yes"/>
      <point x="369.32399999999996" y="554.3399999999999"/>
      <point x="363.64" y="554.824"/>
      <point x="350.436" y="555.424" type="curve"/>
      <point x="366.684" y="658.448" type="line"/>
      <point x="385.6039999999999" y="659.5559999999999"/>
      <point x="390.996" y="660.5559999999999"/>
      <point x="405.02" y="660.5559999999999" type="curve" smooth="yes"/>
      <point x="433.20799999999997" y="660.5559999999999"/>
      <point x="442.9800000000001" y="650.6560000000001"/>
      <point x="442.9800000000001" y="631.2560000000001" type="curve" smooth="yes"/>
      <point x="442.9800000000001" y="587.56"/>
      <point x="425.37200000000007" y="554.3399999999999"/>
    </contour>
    <contour>
      <point x="485.3280000000001" y="364.176" type="curve" smooth="yes"/>
      <point x="489.196" y="364.176"/>
      <point x="500.452" y="365.208"/>
      <point x="506.65999999999997" y="367.75600000000003" type="curve"/>
      <point x="519.4879999999999" y="463.74800000000005" type="line"/>
      <point x="516.9760000000001" y="463.78000000000003"/>
      <point x="514.688" y="463.78000000000003"/>
      <point x="512.4839999999999" y="463.78000000000003" type="curve" smooth="yes"/>
      <point x="494.348" y="463.78000000000003"/>
      <point x="466.94000000000005" y="484.61199999999997"/>
      <point x="449.82" y="523.412" type="curve"/>
      <point x="353.19599999999997" y="497.096" type="line"/>
      <point x="398.88399999999996" y="391.728"/>
      <point x="436.3680000000001" y="364.176"/>
    </contour>
  </outline>
</glyph>
<glyph name="degree" format="2">
  <advance width="346.61999999999995"/>
  <unicode hex="00B0"/>
  <outline>
    <contour>
      <point x="191.8" y="371.39200000000005" type="curve" smooth="yes"/>
      <point x="301.584" y="371.39200000000005"/>
      <point x="362.096" y="478.87600000000003"/>
      <point x="362.096" y="582.188" type="curve" smooth="yes"/>
      <point x="362.096" y="652.0640000000001"/>
      <point x="329.24" y="711.832"/>
      <point x="239.536" y="711.832" type="curve" smooth="yes"/>
      <point x="130.212" y="711.832"/>
      <point x="68.836" y="604.904"/>
      <point x="68.836" y="501.704" type="curve" smooth="yes"/>
      <point x="68.836" y="430.044"/>
      <point x="104.07600000000001" y="371.39200000000005"/>
    </contour>
    <contour>
      <point x="207.69600000000003" y="491.368" type="curve" smooth="yes"/>
      <point x="189.34" y="491.368"/>
      <point x="179.58800000000002" y="505.216"/>
      <point x="179.58800000000002" y="526.232" type="curve" smooth="yes"/>
      <point x="179.58800000000002" y="557.988"/>
      <point x="195.19599999999997" y="589.792"/>
      <point x="222.71999999999997" y="589.792" type="curve" smooth="yes"/>
      <point x="241.704" y="589.792"/>
      <point x="251.34400000000002" y="575.7760000000001"/>
      <point x="251.34400000000002" y="555.164" type="curve" smooth="yes"/>
      <point x="251.34400000000002" y="524.0640000000001"/>
      <point x="235.108" y="491.368"/>
    </contour>
  </outline>
</glyph>
<glyph name="plusminus" format="2">
  <advance width="512.6560000000001"/>
  <unicode hex="00B1"/>
  <outline>
    <contour>
      <point x="420.188" y="10.016" type="line"/>
      <point x="445.20399999999995" y="165.7" type="line"/>
      <point x="316.464" y="165.7" type="line"/>
      <point x="333.584" y="272.512" type="line"/>
      <point x="462.24" y="272.512" type="line"/>
      <point x="487.256" y="428.196" type="line"/>
      <point x="358.59999999999997" y="428.196" type="line"/>
      <point x="377.324" y="544.74" type="line"/>
      <point x="221.64000000000001" y="544.74" type="line"/>
      <point x="202.312" y="428.196" type="line"/>
      <point x="74.52" y="428.196" type="line"/>
      <point x="49.504000000000005" y="272.512" type="line"/>
      <point x="177.89999999999998" y="272.512" type="line"/>
      <point x="160.092" y="165.7" type="line"/>
      <point x="32.468" y="165.7" type="line"/>
      <point x="7.452000000000001" y="10.016" type="line"/>
    </contour>
  </outline>
</glyph>
<glyph name="uni00B2" format="2">
  <advance width="367.79999999999995"/>
  <unicode hex="00B2"/>
  <outline>
    <contour>
      <point x="39.63999999999999" y="369.548" type="line"/>
      <point x="356.676" y="369.548" type="line"/>
      <point x="371.608" y="453.628" type="line"/>
      <point x="226.25599999999997" y="453.628" type="line"/>
      <point x="308.608" y="516.832"/>
      <point x="379.316" y="583.936"/>
      <point x="379.316" y="672.532" type="curve" smooth="yes"/>
      <point x="379.316" y="740.3879999999999"/>
      <point x="319.32399999999996" y="773.548"/>
      <point x="248.608" y="773.548" type="curve" smooth="yes"/>
      <point x="196.58" y="773.548"/>
      <point x="132.264" y="756.764"/>
      <point x="90.6" y="732.872" type="curve"/>
      <point x="112.876" y="637.656" type="line"/>
      <point x="144.01600000000002" y="653.808"/>
      <point x="171.576" y="662.948"/>
      <point x="197.89999999999998" y="662.948" type="curve" smooth="yes"/>
      <point x="223.52800000000002" y="662.948"/>
      <point x="239.30399999999997" y="649.096"/>
      <point x="239.30399999999997" y="626.048" type="curve" smooth="yes"/>
      <point x="238.82" y="571.78"/>
      <point x="158.53600000000003" y="497.70000000000005"/>
      <point x="51.336" y="440.652" type="curve"/>
    </contour>
  </outline>
</glyph>
<glyph name="uni00B3" format="2">
  <advance width="392.22"/>
  <unicode hex="00B3"/>
  <outline>
    <contour>
      <point x="41.44" y="394.40000000000003" type="line"/>
      <point x="81.9" y="373.42"/>
      <point x="133.78" y="364.0"/>
      <point x="190.12" y="364.0" type="curve" smooth="yes"/>
      <point x="290.1" y="364.0"/>
      <point x="393.54" y="396.36"/>
      <point x="393.54" y="494.15999999999997" type="curve" smooth="yes"/>
      <point x="393.54" y="535.0"/>
      <point x="370.53999999999996" y="560.54"/>
      <point x="337.54" y="572.84" type="curve"/>
      <point x="383.0" y="592.86"/>
      <point x="415.44" y="623.5799999999999"/>
      <point x="415.44" y="676.3" type="curve" smooth="yes"/>
      <point x="415.44" y="732.58"/>
      <point x="356.66" y="774.58"/>
      <point x="258.14" y="774.58" type="curve" smooth="yes"/>
      <point x="201.35999999999999" y="774.58"/>
      <point x="141.83999999999997" y="762.5600000000001"/>
      <point x="107.56" y="745.6999999999999" type="curve"/>
      <point x="117.14" y="662.04" type="line"/>
      <point x="148.14000000000001" y="670.88"/>
      <point x="188.74" y="676.02"/>
      <point x="221.88" y="676.02" type="curve" smooth="yes"/>
      <point x="266.12" y="676.02"/>
      <point x="290.94" y="663.94"/>
      <point x="290.94" y="644.92" type="curve" smooth="yes"/>
      <point x="290.94" y="622.18"/>
      <point x="265.14" y="609.22"/>
      <point x="216.28" y="609.22" type="curve" smooth="yes"/>
      <point x="156.04" y="609.22" type="line"/>
      <point x="142.0" y="533.16" type="line"/>
      <point x="197.51999999999998" y="533.16" type="line" smooth="yes"/>
      <point x="257.67999999999995" y="533.16"/>
      <point x="275.2" y="519.48"/>
      <point x="275.2" y="498.90000000000003" type="curve" smooth="yes"/>
      <point x="275.2" y="473.32"/>
      <point x="242.56" y="457.40000000000003"/>
      <point x="187.26" y="457.40000000000003" type="curve" smooth="yes"/>
      <point x="148.98000000000002" y="457.40000000000003"/>
      <point x="111.67999999999999" y="465.1"/>
      <point x="84.4" y="477.06" type="curve"/>
    </contour>
  </outline>
</glyph>
<glyph name="uni00B5" format="2">
  <advance width="566.0319999999999"/>
  <unicode hex="00B5"/>
  <outline>
    <contour>
      <point x="-35.727999999999994" y="-210.0" type="line"/>
      <point x="146.76" y="-210.0" type="line"/>
      <point x="180.28" y="-1.2759999999999998" type="line"/>
      <point x="185.94400000000002" y="-6.799999999999999"/>
      <point x="194.32" y="-10.0"/>
      <point x="205.84400000000002" y="-10.0" type="curve" smooth="yes"/>
      <point x="241.82800000000003" y="-10.0"/>
      <point x="284.02" y="7.648"/>
      <point x="323.09999999999997" y="47.6" type="curve"/>
      <point x="337.62800000000004" y="16.52"/>
      <point x="374.37200000000007" y="-10.0"/>
      <point x="423.316" y="-10.0" type="curve" smooth="yes"/>
      <point x="458.14799999999997" y="-10.0"/>
      <point x="497.932" y="1.1680000000000006"/>
      <point x="524.4920000000001" y="20.468" type="curve"/>
      <point x="534.568" y="149.35999999999999" type="line"/>
      <point x="526.7560000000001" y="146.768"/>
      <point x="520.668" y="146.34799999999998"/>
      <point x="517.624" y="146.34799999999998" type="curve" smooth="yes"/>
      <point x="507.01599999999996" y="146.34799999999998"/>
      <point x="500.516" y="152.89600000000002"/>
      <point x="500.516" y="168.59199999999998" type="curve" smooth="yes"/>
      <point x="500.516" y="174.256"/>
      <point x="501.684" y="184.58"/>
      <point x="560.5880000000001" y="547.2" type="curve"/>
      <point x="377.788" y="547.2" type="line"/>
      <point x="316.88" y="165.41600000000003" type="line"/>
      <point x="295.572" y="153.416"/>
      <point x="269.876" y="145.056"/>
      <point x="247.17200000000003" y="145.056" type="curve" smooth="yes"/>
      <point x="222.17600000000002" y="145.056"/>
      <point x="208.716" y="157.07999999999998"/>
      <point x="209.748" y="182.06" type="curve" smooth="yes"/>
      <point x="221.61599999999999" y="253.844"/>
      <point x="234.956" y="348.952"/>
      <point x="267.86400000000003" y="547.2" type="curve"/>
      <point x="84.604" y="547.2" type="line"/>
    </contour>
  </outline>
</glyph>
<glyph name="paragraph" format="2">
  <advance width="628.7959999999999"/>
  <unicode hex="00B6"/>
  <outline>
    <contour>
      <point x="365.784" y="-210.0" type="line"/>
      <point x="503.49600000000004" y="-210.0" type="line"/>
      <point x="655.3879999999999" y="740.0" type="line"/>
      <point x="517.6759999999999" y="740.0" type="line"/>
    </contour>
    <contour>
      <point x="257.9" y="338.264" type="line"/>
      <point x="234.564" y="344.472"/>
      <point x="216.864" y="374.128"/>
      <point x="216.864" y="421.70799999999997" type="curve" smooth="yes"/>
      <point x="216.864" y="490.544"/>
      <point x="241.46399999999997" y="581.832"/>
      <point x="315.912" y="583.5360000000001" type="curve"/>
      <point x="189.724" y="-210.0" type="line"/>
      <point x="327.436" y="-210.0" type="line"/>
      <point x="479.32800000000003" y="740.0" type="line"/>
      <point x="385.68800000000005" y="740.0" type="line" smooth="yes"/>
      <point x="177.3" y="740.0"/>
      <point x="63.90400000000001" y="610.956"/>
      <point x="63.90400000000001" y="416.21200000000005" type="curve" smooth="yes"/>
      <point x="63.90400000000001" y="312.388"/>
      <point x="115.24399999999999" y="243.824"/>
      <point x="222.79999999999998" y="225.668" type="curve"/>
    </contour>
  </outline>
</glyph>
<glyph name="periodcentered" format="2">
  <advance width="250.072"/>
  <unicode hex="00B7"/>
  <outline>
    <contour>
      <point x="29.912000000000006" y="290.88" type="curve" smooth="yes"/>
      <point x="29.631999999999994" y="241.328"/>
      <point x="56.0" y="215.968"/>
      <point x="115.44" y="215.968" type="curve" smooth="yes"/>
      <point x="196.368" y="215.968"/>
      <point x="232.76800000000003" y="279.456"/>
      <point x="233.048" y="346.616" type="curve" smooth="yes"/>
      <point x="233.32800000000003" y="395.88"/>
      <point x="206.67999999999995" y="421.23999999999995"/>
      <point x="148.23999999999998" y="421.23999999999995" type="curve" smooth="yes"/>
      <point x="68.592" y="421.23999999999995"/>
      <point x="30.191999999999997" y="356.60799999999995"/>
    </contour>
  </outline>
</glyph>
<glyph name="uni00B9" format="2">
  <advance width="350.508"/>
  <unicode hex="00B9"/>
  <outline>
    <contour>
      <point x="49.56400000000001" y="370.0" type="line"/>
      <point x="344.112" y="370.0" type="line"/>
      <point x="360.044" y="458.84000000000003" type="line"/>
      <point x="281.748" y="458.84000000000003" type="line"/>
      <point x="333.86" y="766.792" type="line"/>
      <point x="265.468" y="766.792" type="line"/>
      <point x="93.004" y="708.636" type="line"/>
      <point x="101.35600000000001" y="608.0079999999999" type="line"/>
      <point x="184.576" y="636.9920000000001" type="line"/>
      <point x="153.63599999999997" y="458.84000000000003" type="line"/>
      <point x="64.492" y="458.84000000000003" type="line"/>
    </contour>
  </outline>
</glyph>
<glyph name="ordmasculine" format="2">
  <advance width="369.852"/>
  <unicode hex="00BA"/>
  <outline>
    <contour>
      <point x="24.708" y="223.60399999999998" type="line"/>
      <point x="330.55600000000004" y="223.60399999999998" type="line"/>
      <point x="344.824" y="316.772" type="line"/>
      <point x="38.976" y="316.772" type="line"/>
    </contour>
    <component base="o.superior" xOffset="8.84"/>
  </outline>
</glyph>
<glyph name="AE" format="2">
  <advance width="916.96"/>
  <unicode hex="00C6"/>
  <anchor x="429.97580800000003" y="0.0" name="bottom"/>
  <anchor x="579.0560000000002" y="700.0" name="top"/>
  <outline>
    <contour>
      <point x="354.336" y="0.0" type="line"/>
      <point x="849.272" y="0.0" type="line"/>
      <point x="874.3439999999999" y="156.136" type="line"/>
      <point x="557.648" y="156.136" type="line"/>
      <point x="576.9760000000001" y="278.09599999999995" type="line"/>
      <point x="851.544" y="278.09599999999995" type="line"/>
      <point x="875.7440000000001" y="422.712" type="line"/>
      <point x="600.744" y="422.712" type="line"/>
      <point x="619.5120000000001" y="541.704" type="line"/>
      <point x="919.7760000000001" y="541.704" type="line"/>
      <point x="945.992" y="700.0" type="line"/>
      <point x="345.416" y="700.0" type="line"/>
      <point x="-43.16" y="0.0" type="line"/>
      <point x="162.824" y="0.0" type="line"/>
      <point x="243.576" y="148.51999999999998" type="line"/>
      <point x="377.52799999999996" y="148.51999999999998" type="line"/>
    </contour>
    <contour>
      <point x="316.72800000000007" y="296.088" type="line"/>
      <point x="443.736" y="568.6080000000002" type="line"/>
      <point x="400.304" y="296.088" type="line"/>
    </contour>
  </outline>
</glyph>
<glyph name="multiply" format="2">
  <advance width="469.12"/>
  <unicode hex="00D7"/>
  <outline>
    <contour>
      <point x="115.664" y="118.39999999999999" type="line"/>
      <point x="227.376" y="220.688" type="line"/>
      <point x="308.67199999999997" y="113.792" type="line"/>
      <point x="421.70399999999995" y="228.56" type="line"/>
      <point x="348.04" y="325.704" type="line"/>
      <point x="454.00800000000004" y="424.23999999999995" type="line"/>
      <point x="370.64000000000004" y="535.28" type="line"/>
      <point x="259.76" y="432.6960000000001" type="line"/>
      <point x="177.056" y="538.736" type="line"/>
      <point x="64.456" y="427.12" type="line"/>
      <point x="139.96800000000002" y="327.408" type="line"/>
      <point x="31.576000000000004" y="227.72" type="line"/>
    </contour>
  </outline>
</glyph>
<glyph name="Oslash" format="2">
  <advance width="673.84"/>
  <unicode hex="00D8"/>
  <anchor x="397.4" y="700.0" name="top"/>
  <outline>
    <contour>
      <point x="731.7600000000001" y="717.2" type="line"/>
      <point x="603.8399999999999" y="717.2" type="line"/>
      <point x="505.84000000000003" y="604.8000000000001" type="line"/>
      <point x="500.67999999999995" y="605.8" type="line"/>
      <point x="142.0" y="182.2" type="line"/>
      <point x="136.83999999999997" y="183.92" type="line"/>
      <point x="-28.68" y="-11.48" type="line"/>
      <point x="99.52000000000001" y="-11.48" type="line"/>
      <point x="207.48000000000002" y="112.03999999999999" type="line"/>
      <point x="212.64000000000001" y="111.03999999999999" type="line"/>
      <point x="562.52" y="523.96" type="line"/>
      <point x="566.96" y="522.24" type="line"/>
    </contour>
    <contour>
      <point x="311.08000000000004" y="-6.56" type="curve" smooth="yes"/>
      <point x="534.04" y="-6.56"/>
      <point x="656.2" y="158.32000000000002"/>
      <point x="664.1200000000001" y="411.68000000000006" type="curve" smooth="yes"/>
      <point x="669.8800000000001" y="599.5600000000001"/>
      <point x="572.96" y="706.5600000000001"/>
      <point x="392.28" y="706.5600000000001" type="curve" smooth="yes"/>
      <point x="169.32000000000002" y="706.5600000000001"/>
      <point x="47.160000000000004" y="541.96"/>
      <point x="39.24" y="288.03999999999996" type="curve" smooth="yes"/>
      <point x="33.480000000000004" y="100.16"/>
      <point x="130.4" y="-6.56"/>
    </contour>
    <contour>
      <point x="324.68" y="143.12" type="curve" smooth="yes"/>
      <point x="257.52" y="143.12"/>
      <point x="223.6" y="179.27999999999997"/>
      <point x="223.6" y="274.03999999999996" type="curve" smooth="yes"/>
      <point x="223.6" y="436.08"/>
      <point x="288.08000000000004" y="556.8800000000001"/>
      <point x="379.79999999999995" y="556.8800000000001" type="curve" smooth="yes"/>
      <point x="445.40000000000003" y="556.8800000000001"/>
      <point x="479.76" y="520.7200000000001"/>
      <point x="479.76" y="425.24" type="curve" smooth="yes"/>
      <point x="479.76" y="268.8"/>
      <point x="415.84" y="143.12"/>
    </contour>
  </outline>
</glyph>
<glyph name="Thorn" format="2">
  <advance width="654.1"/>
  <unicode hex="00DE"/>
  <outline>
    <contour>
      <point x="3.460000000000001" y="0.0" type="line"/>
      <point x="192.74" y="0.0" type="line"/>
      <point x="208.84" y="97.44" type="line"/>
      <point x="262.96" y="93.72000000000001"/>
      <point x="281.3" y="92.86000000000001"/>
      <point x="313.34" y="92.86000000000001" type="curve" smooth="yes"/>
      <point x="542.4" y="92.86000000000001"/>
      <point x="652.58" y="202.1"/>
      <point x="652.58" y="410.76000000000005" type="curve" smooth="yes"/>
      <point x="652.58" y="551.16"/>
      <point x="579.6999999999999" y="630.2"/>
      <point x="371.79999999999995" y="630.2" type="curve" smooth="yes"/>
      <point x="355.42" y="630.2"/>
      <point x="330.90000000000003" y="629.2"/>
      <point x="294.62" y="628.5" type="curve"/>
      <point x="306.18" y="700.0" type="line"/>
      <point x="116.89999999999999" y="700.0" type="line"/>
    </contour>
    <contour>
      <point x="303.6" y="246.74" type="curve" smooth="yes"/>
      <point x="281.9" y="246.74"/>
      <point x="267.40000000000003" y="246.88"/>
      <point x="234.2" y="249.88" type="curve"/>
      <point x="269.40000000000003" y="472.76" type="line"/>
      <point x="319.58" y="476.04"/>
      <point x="330.78" y="477.04"/>
      <point x="362.78" y="477.04" type="curve" smooth="yes"/>
      <point x="436.98" y="477.04"/>
      <point x="460.72" y="434.65999999999997"/>
      <point x="460.72" y="387.7" type="curve" smooth="yes"/>
      <point x="460.72" y="290.91999999999996"/>
      <point x="412.84" y="246.74"/>
    </contour>
  </outline>
</glyph>
<glyph name="germandbls" format="2">
  <advance width="712.9200000000001"/>
  <unicode hex="00DF"/>
  <outline>
    <contour>
      <point x="31.527999999999995" y="5.943999999999997" type="line" smooth="yes"/>
      <point x="23.832000000000004" y="-38.784"/>
      <point x="7.567999999999999" y="-59.960000000000015"/>
      <point x="-19.184" y="-59.960000000000015" type="curve" smooth="yes"/>
      <point x="-29.456" y="-59.960000000000015"/>
      <point x="-41.016" y="-58.82400000000001"/>
      <point x="-54.855999999999995" y="-54.68800000000002" type="curve"/>
      <point x="-94.824" y="-200.25599999999997" type="line"/>
      <point x="-60.616" y="-213.99200000000002"/>
      <point x="-26.01600000000001" y="-220.0"/>
      <point x="14.488000000000001" y="-220.0" type="curve" smooth="yes"/>
      <point x="126.21600000000001" y="-220.0"/>
      <point x="187.88799999999998" y="-148.08"/>
      <point x="209.624" y="-9.799999999999997" type="curve" smooth="yes"/>
      <point x="287.848" y="491.752" type="line" smooth="yes"/>
      <point x="299.96" y="565.968"/>
      <point x="352.528" y="600.568"/>
      <point x="437.44" y="600.568" type="curve" smooth="yes"/>
      <point x="499.192" y="600.568"/>
      <point x="518.976" y="581.408"/>
      <point x="518.976" y="562.3760000000001" type="curve" smooth="yes"/>
      <point x="518.976" y="540.024"/>
      <point x="505.03200000000004" y="529.968"/>
      <point x="435.99999999999994" y="508.712" type="curve" smooth="yes"/>
      <point x="358.648" y="484.35999999999996"/>
      <point x="315.08799999999997" y="442.78400000000005"/>
      <point x="315.08799999999997" y="352.28800000000007" type="curve" smooth="yes"/>
      <point x="315.08799999999997" y="270.944"/>
      <point x="359.08000000000004" y="234.968"/>
      <point x="434.67199999999997" y="211.88" type="curve" smooth="yes"/>
      <point x="500.47200000000004" y="190.76000000000002"/>
      <point x="516.1039999999999" y="184.432"/>
      <point x="516.1039999999999" y="159.768" type="curve" smooth="yes"/>
      <point x="516.1039999999999" y="145.72"/>
      <point x="490.72" y="128.384"/>
      <point x="447.63199999999995" y="128.384" type="curve" smooth="yes"/>
      <point x="399.20799999999997" y="128.384"/>
      <point x="333.608" y="139.672"/>
      <point x="288.464" y="153.22399999999996" type="curve"/>
      <point x="251.808" y="21.568" type="line"/>
      <point x="304.112" y="2.856"/>
      <point x="366.82399999999996" y="-9.712"/>
      <point x="438.032" y="-9.712" type="curve" smooth="yes"/>
      <point x="615.5120000000001" y="-9.712"/>
      <point x="696.664" y="58.06400000000001"/>
      <point x="696.664" y="177.96800000000002" type="curve" smooth="yes"/>
      <point x="696.664" y="265.40000000000003"/>
      <point x="654.2080000000001" y="308.528"/>
      <point x="573.824" y="329.176" type="curve" smooth="yes"/>
      <point x="500.344" y="347.37600000000003"/>
      <point x="485.01599999999996" y="355.18399999999997"/>
      <point x="485.01599999999996" y="374.08" type="curve" smooth="yes"/>
      <point x="485.01599999999996" y="392.384"/>
      <point x="498.76800000000003" y="395.86400000000003"/>
      <point x="565.232" y="413.18399999999997" type="curve" smooth="yes"/>
      <point x="653.152" y="435.832"/>
      <point x="692.64" y="481.736"/>
      <point x="692.64" y="574.5680000000001" type="curve" smooth="yes"/>
      <point x="692.64" y="681.5680000000001"/>
      <point x="605.8" y="750.0"/>
      <point x="440.688" y="750.0" type="curve" smooth="yes"/>
      <point x="240.06400000000002" y="750.0"/>
      <point x="138.048" y="674.1279999999999"/>
      <point x="113.2" y="518.544" type="curve" smooth="yes"/>
      <point x="111.792" y="507.36" type="line"/>
      <point x="44.296" y="495.92" type="line"/>
      <point x="21.808" y="364.816" type="line"/>
      <point x="87.864" y="364.816" type="line"/>
    </contour>
  </outline>
</glyph>
<glyph name="ae" format="2">
  <advance width="837.88"/>
  <unicode hex="00E6"/>
  <anchor x="381.79999999999995" y="0.0" name="bottom"/>
  <anchor x="466.56000000000006" y="547.1999999999999" name="top"/>
  <outline>
    <contour>
      <point x="171.24" y="-10.0" type="curve" smooth="yes"/>
      <point x="217.2" y="-10.0"/>
      <point x="260.44" y="5.12"/>
      <point x="305.48" y="41.76" type="curve"/>
      <point x="297.76" y="-0.8400000000000005" type="line"/>
      <point x="461.08" y="-0.8400000000000005" type="line"/>
      <point x="469.76" y="51.24000000000001" type="line"/>
      <point x="501.96000000000004" y="14.480000000000004"/>
      <point x="551.36" y="-9.000000000000002"/>
      <point x="616.96" y="-9.000000000000002" type="curve" smooth="yes"/>
      <point x="672.5199999999999" y="-9.000000000000002"/>
      <point x="729.76" y="2.2799999999999994"/>
      <point x="780.48" y="25.28000000000001" type="curve"/>
      <point x="762.4399999999999" y="168.84" type="line"/>
      <point x="703.36" y="149.12"/>
      <point x="649.6800000000001" y="140.0"/>
      <point x="613.24" y="140.0" type="curve" smooth="yes"/>
      <point x="537.8" y="140.0"/>
      <point x="502.52000000000004" y="162.64"/>
      <point x="502.52000000000004" y="231.44" type="curve" smooth="yes"/>
      <point x="502.52000000000004" y="324.67999999999995"/>
      <point x="543.6" y="420.4"/>
      <point x="613.8" y="420.4" type="curve" smooth="yes"/>
      <point x="640.48" y="420.4"/>
      <point x="655.12" y="409.88"/>
      <point x="655.12" y="386.84" type="curve" smooth="yes"/>
      <point x="655.12" y="348.24"/>
      <point x="617.6799999999998" y="316.36"/>
      <point x="548.44" y="302.12000000000006" type="curve" smooth="yes"/>
      <point x="521.2399999999999" y="296.28"/>
      <point x="495.91999999999996" y="294.28"/>
      <point x="469.71999999999997" y="296.28000000000003" type="curve"/>
      <point x="460.84000000000003" y="200.11999999999998" type="line"/>
      <point x="502.67999999999995" y="195.39999999999998"/>
      <point x="549.92" y="197.4"/>
      <point x="602.48" y="205.96" type="curve" smooth="yes"/>
      <point x="749.2" y="228.96"/>
      <point x="834.9200000000001" y="309.6"/>
      <point x="834.9200000000001" y="420.11999999999995" type="curve" smooth="yes"/>
      <point x="834.9200000000001" y="504.6000000000001"/>
      <point x="778.76" y="557.1999999999999"/>
      <point x="680.7200000000001" y="557.1999999999999" type="curve" smooth="yes"/>
      <point x="624.2800000000001" y="557.1999999999999"/>
      <point x="576.84" y="540.0"/>
      <point x="541.5600000000001" y="510.76" type="curve"/>
      <point x="548.52" y="553.1999999999999" type="line"/>
      <point x="385.47999999999996" y="553.1999999999999" type="line"/>
      <point x="380.76" y="523.3199999999999" type="line"/>
      <point x="355.64" y="545.76"/>
      <point x="320.64" y="557.1999999999999"/>
      <point x="278.48" y="557.1999999999999" type="curve" smooth="yes"/>
      <point x="116.72000000000001" y="557.1999999999999"/>
      <point x="15.8" y="397.44"/>
      <point x="15.8" y="178.04000000000002" type="curve" smooth="yes"/>
      <point x="15.8" y="55.440000000000005"/>
      <point x="75.24000000000001" y="-10.0"/>
    </contour>
    <contour>
      <point x="259.52" y="132.11999999999998" type="curve" smooth="yes"/>
      <point x="229.12" y="132.11999999999998"/>
      <point x="202.48000000000002" y="149.84"/>
      <point x="202.48000000000002" y="205.84" type="curve" smooth="yes"/>
      <point x="202.48000000000002" y="321.11999999999995"/>
      <point x="259.56" y="416.08000000000004"/>
      <point x="315.48" y="416.08000000000004" type="curve" smooth="yes"/>
      <point x="332.67999999999995" y="416.08000000000004"/>
      <point x="347.48" y="413.52"/>
      <point x="360.84000000000003" y="406.16" type="curve"/>
      <point x="321.08000000000004" y="148.0" type="line"/>
      <point x="301.44000000000005" y="138.36"/>
      <point x="280.28" y="132.11999999999998"/>
    </contour>
  </outline>
</glyph>
<glyph name="eth" format="2">
  <advance width="566.36"/>
  <unicode hex="00F0"/>
  <outline>
    <contour>
      <point x="395.47999999999996" y="375.76" type="curve"/>
      <point x="420.11999999999995" y="497.64" type="line"/>
      <point x="383.72" y="516.4"/>
      <point x="333.48" y="525.52"/>
      <point x="290.52000000000004" y="525.52" type="curve" smooth="yes"/>
      <point x="110.47999999999999" y="525.52"/>
      <point x="10.879999999999999" y="388.96"/>
      <point x="10.879999999999999" y="214.55999999999997" type="curve" smooth="yes"/>
      <point x="10.879999999999999" y="51.599999999999994"/>
      <point x="112.12" y="-9.72"/>
      <point x="239.40000000000003" y="-9.72" type="curve" smooth="yes"/>
      <point x="407.68" y="-9.72"/>
      <point x="511.16" y="81.16000000000001"/>
      <point x="551.88" y="324.68" type="curve" smooth="yes"/>
      <point x="559.44" y="370.32"/>
      <point x="563.0" y="412.0"/>
      <point x="563.0" y="449.24" type="curve" smooth="yes"/>
      <point x="563.0" y="663.4"/>
      <point x="427.6" y="752.2800000000001"/>
      <point x="206.92000000000002" y="752.2800000000001" type="curve" smooth="yes"/>
      <point x="157.04000000000002" y="752.2800000000001"/>
      <point x="113.16000000000003" y="742.84"/>
      <point x="73.16" y="734.8399999999999" type="curve"/>
      <point x="69.28" y="621.4" type="line"/>
      <point x="99.4" y="625.6800000000001"/>
      <point x="122.79999999999997" y="633.4"/>
      <point x="177.67999999999998" y="633.4" type="curve" smooth="yes"/>
      <point x="325.40000000000003" y="633.4"/>
      <point x="379.32" y="590.52"/>
      <point x="379.32" y="486.0799999999999" type="curve" smooth="yes"/>
      <point x="379.32" y="451.56"/>
      <point x="376.04" y="409.87999999999994"/>
      <point x="367.48" y="357.64" type="curve" smooth="yes"/>
      <point x="335.36" y="162.8"/>
      <point x="304.08" y="121.91999999999999"/>
      <point x="251.72000000000003" y="121.91999999999999" type="curve" smooth="yes"/>
      <point x="211.88000000000002" y="121.91999999999999"/>
      <point x="195.15999999999997" y="151.56"/>
      <point x="195.15999999999997" y="200.8" type="curve" smooth="yes"/>
      <point x="195.15999999999997" y="307.79999999999995"/>
      <point x="244.56" y="398.04"/>
      <point x="322.2" y="398.04" type="curve" smooth="yes"/>
      <point x="348.68" y="398.04"/>
      <point x="374.0" y="388.20000000000005"/>
    </contour>
    <contour>
      <point x="218.12" y="546.96" type="line"/>
      <point x="400.32" y="639.8" type="line"/>
      <point x="399.2" y="644.24" type="line"/>
      <point x="610.12" y="751.52" type="line"/>
      <point x="455.0" y="752.24" type="line"/>
      <point x="327.68000000000006" y="688.04" type="line"/>
      <point x="328.08" y="682.88" type="line"/>
      <point x="64.4" y="546.96" type="line"/>
    </contour>
  </outline>
</glyph>
<glyph name="divide" format="2">
  <advance width="513.048"/>
  <unicode hex="00F7"/>
  <outline>
    <contour>
      <point x="144.05599999999998" y="93.84" type="curve" smooth="yes"/>
      <point x="143.776" y="55.45600000000001"/>
      <point x="166.696" y="35.68000000000001"/>
      <point x="217.976" y="35.68000000000001" type="curve" smooth="yes"/>
      <point x="277.256" y="35.68000000000001"/>
      <point x="315.952" y="65.63199999999999"/>
      <point x="316.512" y="135.072" type="curve" smooth="yes"/>
      <point x="316.79200000000003" y="173.456"/>
      <point x="293.87999999999994" y="192.51199999999997"/>
      <point x="243.744" y="192.51199999999997" type="curve" smooth="yes"/>
      <point x="182.02400000000003" y="192.51199999999997"/>
      <point x="144.61599999999999" y="153.96"/>
    </contour>
    <contour>
      <point x="211.272" y="506.28" type="curve" smooth="yes"/>
      <point x="210.99199999999996" y="468.464"/>
      <point x="232.624" y="448.84"/>
      <point x="284.47200000000004" y="448.84" type="curve" smooth="yes"/>
      <point x="344.04" y="448.84"/>
      <point x="382.31199999999995" y="479.64799999999997"/>
      <point x="382.87199999999996" y="548.0880000000001" type="curve" smooth="yes"/>
      <point x="383.15199999999993" y="587.1839999999999"/>
      <point x="360.37600000000003" y="605.9519999999999"/>
      <point x="309.672" y="605.9519999999999" type="curve" smooth="yes"/>
      <point x="245.79999999999995" y="605.9519999999999"/>
      <point x="211.83199999999997" y="564.68"/>
    </contour>
    <contour>
      <point x="44.69600000000001" y="242.87999999999997" type="line"/>
      <point x="457.6" y="242.87999999999997" type="line"/>
      <point x="483.24" y="399.03999999999996" type="line"/>
      <point x="70.05599999999998" y="399.03999999999996" type="line"/>
    </contour>
  </outline>
</glyph>
<glyph name="oslash" format="2">
  <advance width="555.76"/>
  <unicode hex="00F8"/>
  <anchor x="310.56000000000006" y="547.1999999999999" name="top"/>
  <outline>
    <contour>
      <point x="470.47999999999996" y="558.2" type="line"/>
      <point x="392.32" y="466.92" type="line"/>
      <point x="387.88" y="469.64000000000004" type="line"/>
      <point x="130.51999999999998" y="155.11999999999998" type="line"/>
      <point x="127.24" y="158.83999999999997" type="line"/>
      <point x="-18.919999999999995" y="-10.0" type="line"/>
      <point x="84.36000000000001" y="-10.0" type="line"/>
      <point x="165.59999999999997" y="83.48" type="line"/>
      <point x="170.32" y="80.75999999999999" type="line"/>
      <point x="436.52" y="404.56" type="line"/>
      <point x="439.52000000000004" y="400.84" type="line"/>
      <point x="575.2" y="558.2" type="line"/>
    </contour>
    <contour>
      <point x="262.72" y="-10.0" type="curve" smooth="yes"/>
      <point x="454.56" y="-10.0"/>
      <point x="533.64" y="135.48"/>
      <point x="533.64" y="332.56" type="curve" smooth="yes"/>
      <point x="533.64" y="481.24"/>
      <point x="447.56" y="558.2"/>
      <point x="301.15999999999997" y="558.2" type="curve" smooth="yes"/>
      <point x="101.88000000000001" y="558.2"/>
      <point x="22.64" y="409.52000000000004"/>
      <point x="22.64" y="215.07999999999998" type="curve" smooth="yes"/>
      <point x="22.64" y="66.96000000000001"/>
      <point x="107.6" y="-10.0"/>
    </contour>
    <contour>
      <point x="266.2" y="129.24" type="curve" smooth="yes"/>
      <point x="225.92" y="128.24"/>
      <point x="201.44000000000003" y="150.04"/>
      <point x="199.72000000000003" y="192.83999999999997" type="curve" smooth="yes"/>
      <point x="194.12" y="306.88"/>
      <point x="226.24000000000004" y="416.96"/>
      <point x="290.0799999999999" y="418.96" type="curve" smooth="yes"/>
      <point x="329.08" y="419.96000000000004"/>
      <point x="354.28000000000003" y="397.32000000000005"/>
      <point x="356.0" y="354.80000000000007" type="curve" smooth="yes"/>
      <point x="361.6" y="236.0"/>
      <point x="328.64" y="130.51999999999998"/>
    </contour>
  </outline>
</glyph>
<glyph name="thorn" format="2">
  <advance width="570.62"/>
  <unicode hex="00FE"/>
  <outline>
    <contour>
      <point x="-35.007999999999996" y="-210.0" type="line"/>
      <point x="148.168" y="-210.0" type="line"/>
      <point x="181.33599999999998" y="-0.21600000000000008" type="line"/>
      <point x="201.876" y="-4.747999999999999"/>
      <point x="231.772" y="-9.14"/>
      <point x="266.28400000000005" y="-9.14" type="curve" smooth="yes"/>
      <point x="461.88" y="-9.14"/>
      <point x="555.596" y="156.26"/>
      <point x="555.596" y="365.16800000000006" type="curve" smooth="yes"/>
      <point x="555.596" y="488.936"/>
      <point x="505.792" y="557.2"/>
      <point x="409.688" y="557.2" type="curve" smooth="yes"/>
      <point x="343.248" y="557.2"/>
      <point x="300.072" y="532.9480000000001"/>
      <point x="260.58" y="503.08" type="curve"/>
      <point x="297.392" y="740.0" type="line"/>
      <point x="114.99199999999999" y="740.0" type="line"/>
    </contour>
    <contour>
      <point x="251.55199999999996" y="133.61599999999999" type="curve" smooth="yes"/>
      <point x="234.296" y="133.61599999999999"/>
      <point x="218.16" y="136.456"/>
      <point x="204.11599999999999" y="141.01600000000002" type="curve"/>
      <point x="242.044" y="376.02000000000004" type="line"/>
      <point x="262.12" y="387.0040000000001"/>
      <point x="288.24399999999997" y="395.524"/>
      <point x="312.808" y="395.524" type="curve" smooth="yes"/>
      <point x="352.5" y="395.524"/>
      <point x="368.89599999999996" y="373.40000000000003"/>
      <point x="368.89599999999996" y="318.25199999999995" type="curve" smooth="yes"/>
      <point x="368.89599999999996" y="233.34"/>
      <point x="332.78000000000003" y="133.61599999999999"/>
    </contour>
  </outline>
</glyph>
<glyph name="Dcroat" format="2">
  <advance width="679.5120000000001"/>
  <unicode hex="0110"/>
  <outline>
    <contour>
      <point x="11.968" y="278.04" type="line"/>
      <point x="348.62399999999997" y="278.04" type="line"/>
      <point x="374.552" y="428.336" type="line"/>
      <point x="37.032" y="428.336" type="line"/>
    </contour>
    <component base="D" xOffset="10.304"/>
  </outline>
</glyph>
<glyph name="dcroat" format="2">
  <advance width="588.3839999999999"/>
  <unicode hex="0111"/>
  <outline>
    <contour>
      <point x="271.0" y="605.984" type="line"/>
      <point x="631.1840000000001" y="605.984" type="line"/>
      <point x="645.352" y="695.6239999999999" type="line"/>
      <point x="285.6" y="695.6239999999999" type="line"/>
    </contour>
    <component base="d"/>
  </outline>
</glyph>
<glyph name="Hbar" format="2">
  <advance width="672.992"/>
  <unicode hex="0126"/>
  <outline>
    <contour>
      <point x="44.652" y="496.728" type="line"/>
      <point x="699.996" y="496.728" type="line"/>
      <point x="722.0039999999999" y="633.784" type="line"/>
      <point x="66.66" y="633.784" type="line"/>
    </contour>
    <component base="H" xOffset="3.063999999999999"/>
  </outline>
</glyph>
<glyph name="hbar" format="2">
  <advance width="567.408"/>
  <unicode hex="0127"/>
  <outline>
    <contour>
      <point x="44.400000000000006" y="605.984" type="line"/>
      <point x="385.696" y="605.984" type="line"/>
      <point x="399.584" y="695.6239999999999" type="line"/>
      <point x="58.28799999999999" y="695.6239999999999" type="line"/>
    </contour>
    <component base="h" xOffset="2.007999999999999"/>
  </outline>
</glyph>
<glyph name="Idotaccent" format="2">
  <advance width="285.888"/>
  <unicode hex="0130"/>
  <outline>
    <contour>
      <point x="247.18399999999997" y="927.8199999999999" type="curve" smooth="yes"/>
      <point x="160.31199999999998" y="927.8199999999999"/>
      <point x="122.708" y="875.88"/>
      <point x="122.39999999999999" y="807.22" type="curve" smooth="yes"/>
      <point x="122.316" y="758.8559999999999"/>
      <point x="151.96800000000002" y="733.344"/>
      <point x="214.844" y="733.344" type="curve" smooth="yes"/>
      <point x="292.88000000000005" y="733.344"/>
      <point x="339.03200000000004" y="781.5000000000001"/>
      <point x="339.39599999999996" y="854.86" type="curve" smooth="yes"/>
      <point x="339.48" y="902.824"/>
      <point x="309.48" y="927.8199999999999"/>
    </contour>
    <component base="I"/>
  </outline>
</glyph>
<glyph name="dotlessi" format="2">
  <advance width="266.448"/>
  <unicode hex="0131"/>
  <anchor x="89.564736" y="0.0" name="bottom"/>
  <anchor x="181.8" y="0.0" name="ogonek"/>
  <anchor x="176.23926400000002" y="547.2" name="top"/>
  <outline>
    <contour>
      <point x="181.8" y="0.0" type="line"/>
      <point x="268.036" y="547.2" type="line"/>
      <point x="84.43199999999999" y="547.2" type="line"/>
      <point x="-2.4079999999999977" y="0.34400000000000003" type="line"/>
    </contour>
  </outline>
</glyph>
<glyph name="kgreenlandic" format="2">
  <advance width="542.64"/>
  <unicode hex="0138"/>
  <anchor x="243.32" y="0.0" name="bottom"/>
  <anchor x="317.52031999999997" y="547.1999999999999" name="top"/>
  <outline>
    <contour>
      <point x="-2.1199999999999974" y="0.0" type="line"/>
      <point x="181.55999999999997" y="0.0" type="line"/>
      <point x="269.0" y="547.1999999999999" type="line"/>
      <point x="84.32000000000001" y="547.1999999999999" type="line"/>
    </contour>
    <contour>
      <point x="443.04" y="-10.0" type="curve" smooth="yes"/>
      <point x="457.92" y="-10.0"/>
      <point x="472.08" y="-7.999999999999999"/>
      <point x="487.68000000000006" y="-3.2800000000000002" type="curve"/>
      <point x="513.6400000000001" y="170.68" type="line"/>
      <point x="505.92" y="170.4"/>
      <point x="498.92" y="170.4"/>
      <point x="491.48" y="171.12" type="curve" smooth="yes"/>
      <point x="453.59999999999997" y="174.71999999999997"/>
      <point x="414.15999999999997" y="189.64"/>
      <point x="344.92" y="267.20000000000005" type="curve" smooth="yes"/>
      <point x="228.12" y="398.67999999999995" type="line"/>
      <point x="192.32" y="208.00000000000003" type="line"/>
      <point x="281.16" y="93.56" type="line" smooth="yes"/>
      <point x="333.2" y="25.72"/>
      <point x="384.84" y="-10.0"/>
    </contour>
    <contour>
      <point x="342.28000000000003" y="248.56" type="line"/>
      <point x="444.8" y="329.76000000000005"/>
      <point x="535.1999999999999" y="446.24"/>
      <point x="569.84" y="544.76" type="curve"/>
      <point x="381.28000000000003" y="557.2" type="line"/>
      <point x="347.96" y="461.28000000000003"/>
      <point x="299.88" y="400.4800000000001"/>
      <point x="228.79999999999998" y="337.08" type="curve"/>
    </contour>
  </outline>
</glyph>
<glyph name="Ldot" format="2">
  <advance width="537.956"/>
  <unicode hex="013F"/>
  <outline>
    <contour>
      <point x="347.314968" y="392.348392" type="curve" smooth="yes"/>
      <point x="347.09096800000003" y="351.799832"/>
      <point x="369.757592" y="330.853724"/>
      <point x="420.16997999999995" y="330.853724" type="curve" smooth="yes"/>
      <point x="486.164476" y="330.853724"/>
      <point x="518.294928" y="377.770844"/>
      <point x="518.630928" y="433.718544" type="curve" smooth="yes"/>
      <point x="518.8549280000001" y="474.183276"/>
      <point x="496.272304" y="495.213384"/>
      <point x="446.547572" y="495.213384" type="curve" smooth="yes"/>
      <point x="381.24124800000004" y="495.213384"/>
      <point x="347.65096800000003" y="446.920092"/>
    </contour>
    <component base="L"/>
  </outline>
</glyph>
<glyph name="ldot" format="2">
  <advance width="388.432"/>
  <unicode hex="0140"/>
  <outline>
    <contour>
      <point x="284.39758" y="372.5309" type="curve" smooth="yes"/>
      <point x="284.17358" y="339.003208"/>
      <point x="300.346516" y="322.062808"/>
      <point x="336.983424" y="322.062808" type="curve" smooth="yes"/>
      <point x="387.47057199999995" y="322.062808"/>
      <point x="409.26778" y="363.984704"/>
      <point x="409.60378000000003" y="409.628056" type="curve" smooth="yes"/>
      <point x="409.8277800000001" y="442.859328"/>
      <point x="393.738844" y="459.883728"/>
      <point x="357.63548000000003" y="459.883728" type="curve" smooth="yes"/>
      <point x="307.681016" y="459.883728"/>
      <point x="284.73358" y="417.24304399999994"/>
    </contour>
    <component base="l"/>
  </outline>
</glyph>
<glyph name="Lslash" format="2">
  <advance width="546.7159999999999"/>
  <unicode hex="0141"/>
  <outline>
    <contour>
      <point x="12.079999999999998" y="0.0" type="line"/>
      <point x="483.716" y="0.0" type="line"/>
      <point x="510.7960000000001" y="161.588" type="line"/>
      <point x="227.408" y="161.588" type="line"/>
      <point x="251.21599999999998" y="312.596" type="line"/>
      <point x="419.27200000000005" y="393.992" type="line"/>
      <point x="447.524" y="563.56" type="line"/>
      <point x="278.43600000000004" y="481.648" type="line"/>
      <point x="313.908" y="700.0" type="line"/>
      <point x="124.97200000000001" y="700.0" type="line"/>
      <point x="74.51599999999999" y="389.168" type="line"/>
      <point x="18.887999999999998" y="361.568" type="line"/>
      <point x="-7.212" y="193.636" type="line"/>
      <point x="47.212" y="220.892" type="line"/>
    </contour>
  </outline>
</glyph>
<glyph name="lslash" format="2">
  <advance width="329.52000000000004"/>
  <unicode hex="0142"/>
  <outline>
    <contour>
      <point x="-5.788" y="201.85600000000002" type="line"/>
      <point x="322.56000000000006" y="386.504" type="line"/>
      <point x="345.824" y="531.808" type="line"/>
      <point x="16.616" y="347.16" type="line"/>
    </contour>
    <component base="l" xOffset="10.319999999999999"/>
  </outline>
</glyph>
<glyph name="Eng" format="2">
  <advance width="650.68"/>
  <unicode hex="014A"/>
  <outline>
    <contour>
      <point x="3.3200000000000007" y="0.0" type="line"/>
      <point x="173.04000000000002" y="0.0" type="line"/>
      <point x="234.07999999999998" y="369.24" type="line"/>
      <point x="383.52" y="-1.720000000000001" type="line"/>
      <point x="378.7200000000001" y="-36.080000000000005"/>
      <point x="354.4" y="-47.0"/>
      <point x="322.0" y="-47.0" type="curve" smooth="yes"/>
      <point x="304.31999999999994" y="-47.56"/>
      <point x="288.96000000000004" y="-46.12"/>
      <point x="270.63999999999993" y="-39.84000000000001" type="curve"/>
      <point x="241.28" y="-202.16" type="line"/>
      <point x="271.56" y="-210.88"/>
      <point x="310.43999999999994" y="-211.72"/>
      <point x="330.11999999999995" y="-211.72" type="curve" smooth="yes"/>
      <point x="453.84000000000003" y="-209.55999999999997"/>
      <point x="532.76" y="-156.32"/>
      <point x="555.9200000000001" y="-9.079999999999998" type="curve" smooth="yes"/>
      <point x="670.36" y="700.0" type="line"/>
      <point x="499.2" y="700.0" type="line"/>
      <point x="435.43999999999994" y="310.28" type="line"/>
      <point x="290.56" y="700.56" type="line"/>
      <point x="116.04" y="700.56" type="line"/>
    </contour>
  </outline>
</glyph>
<glyph name="eng" format="2">
  <advance width="558.528"/>
  <unicode hex="014B"/>
  <outline>
    <contour>
      <point x="475.26800000000003" y="25.32800000000001" type="curve" smooth="yes"/>
      <point x="484.64400000000006" y="85.64000000000004"/>
      <point x="543.428" y="425.94"/>
      <point x="543.428" y="445.72400000000005" type="curve" smooth="yes"/>
      <point x="543.428" y="512.72"/>
      <point x="497.4840000000001" y="557.2"/>
      <point x="412.50399999999996" y="557.2" type="curve" smooth="yes"/>
      <point x="356.06" y="557.2"/>
      <point x="308.49600000000004" y="540.7719999999999"/>
      <point x="241.144" y="499.916" type="curve"/>
      <point x="248.256" y="547.2" type="line"/>
      <point x="84.088" y="547.2" type="line"/>
      <point x="-2.4359999999999964" y="0.0" type="line"/>
      <point x="179.364" y="0.0" type="line"/>
      <point x="241.412" y="381.16" type="line"/>
      <point x="267.22" y="393.11199999999997"/>
      <point x="289.332" y="400.76800000000003"/>
      <point x="311.216" y="400.76800000000003" type="curve" smooth="yes"/>
      <point x="337.476" y="400.76800000000003"/>
      <point x="352.31600000000003" y="388.80400000000003"/>
      <point x="349.564" y="362.464" type="curve" smooth="yes"/>
      <point x="345.43600000000004" y="333.16799999999995"/>
      <point x="336.35600000000005" y="278.912"/>
      <point x="295.244" y="25.339999999999996" type="curve" smooth="yes"/>
      <point x="287.692" y="-21.047999999999995"/>
      <point x="269.77200000000005" y="-44.75200000000002"/>
      <point x="236.37199999999999" y="-44.75200000000002" type="curve" smooth="yes"/>
      <point x="232.45600000000002" y="-44.75200000000002"/>
      <point x="226.85200000000003" y="-44.556"/>
      <point x="221.288" y="-42.74" type="curve"/>
      <point x="185.156" y="-214.024" type="line"/>
      <point x="204.43200000000002" y="-217.504"/>
      <point x="236.952" y="-220.336"/>
      <point x="267.728" y="-220.336" type="curve" smooth="yes"/>
      <point x="375.38" y="-220.336"/>
      <point x="449.60400000000004" y="-155.83999999999997"/>
    </contour>
  </outline>
</glyph>
<glyph name="OE" format="2">
  <advance width="953.9599999999998"/>
  <unicode hex="0152"/>
  <outline>
    <contour>
      <point x="885.84" y="0.0" type="line"/>
      <point x="911.48" y="156.27999999999997" type="line"/>
      <point x="596.52" y="156.27999999999997" type="line"/>
      <point x="616.0" y="279.36" type="line"/>
      <point x="890.52" y="279.36" type="line"/>
      <point x="913.5599999999998" y="424.12" type="line"/>
      <point x="638.7599999999999" y="424.12" type="line"/>
      <point x="657.5200000000001" y="541.56" type="line"/>
      <point x="956.9200000000001" y="541.56" type="line"/>
      <point x="982.5599999999998" y="700.0" type="line"/>
      <point x="683.0399999999998" y="700.0" type="line"/>
      <point x="608.8399999999999" y="704.0000000000001"/>
      <point x="532.24" y="710.0"/>
      <point x="427.9200000000001" y="710.0" type="curve" smooth="yes"/>
      <point x="205.04000000000002" y="710.0"/>
      <point x="32.36" y="516.24"/>
      <point x="32.36" y="257.12" type="curve" smooth="yes"/>
      <point x="32.36" y="85.24"/>
      <point x="112.63999999999997" y="-10.0"/>
      <point x="325.47999999999996" y="-10.0" type="curve" smooth="yes"/>
      <point x="408.87999999999994" y="-10.0"/>
      <point x="476.92" y="-5.0"/>
      <point x="563.7199999999999" y="0.0" type="curve"/>
    </contour>
    <contour>
      <point x="408.84000000000003" y="145.28000000000003" type="line"/>
      <point x="386.8" y="143.0"/>
      <point x="359.56" y="141.72"/>
      <point x="326.03999999999996" y="141.72" type="curve" smooth="yes"/>
      <point x="259.96" y="141.72"/>
      <point x="219.48000000000002" y="191.79999999999998"/>
      <point x="219.48000000000002" y="269.28000000000003" type="curve" smooth="yes"/>
      <point x="219.48000000000002" y="399.64"/>
      <point x="290.55999999999995" y="554.8400000000001"/>
      <point x="399.68000000000006" y="554.8400000000001" type="curve" smooth="yes"/>
      <point x="426.9599999999999" y="554.8400000000001"/>
      <point x="455.15999999999997" y="552.56"/>
      <point x="474.28000000000003" y="551.28" type="curve"/>
    </contour>
  </outline>
</glyph>
